<?xml version="1.0" standalone="no"?>
<!DOCTYPE svg PUBLIC "-//W3C//DTD SVG 1.1//EN" "http://www.w3.org/Graphics/SVG/1.1/DTD/svg11.dtd" >
<svg xmlns="http://www.w3.org/2000/svg">
<metadata>Generated by IcoMoon</metadata>
<defs>
<font id="icomoon" horiz-adv-x="1024">
<font-face units-per-em="1024" ascent="960" descent="-64" />
<missing-glyph horiz-adv-x="1024" />
<glyph unicode="&#x20;" horiz-adv-x="512" d="" />
<glyph unicode="&#xa022;" glyph-name="folder-pack" d="M931.072 632.912c-13.472 13.008-31.104 19.984-50.176 19.984h-383.296l-115.232 178.416c-0.928 1.392-2.32 2.336-3.712 2.336h-243.456c-34.848 0-63.2-30.672-63.2-68.752v-633.744c0-38.096 32.064-68.768 71.088-68.768h737.808c39.024 0 71.088 30.672 71.088 68.768v452.976c0.016 18.592-7.424 35.776-20.912 48.784zM906.448 131.12c-0.448-13.472-11.616-24.16-25.552-24.16h-737.808c-13.936 0-25.552 11.168-25.552 24.624v453.024c0 13.472 11.616 24.624 25.552 24.624h737.808c13.936 0 25.552-11.152 25.552-24.624v-453.488zM117.536 648.256v116.624c0 13.008 8.368 24.624 17.664 24.624h220.688l87.808-136.128h-301.056c-8.368-0.016-16.736-1.872-25.104-5.12zM270.4 388.528c-8.352 0-16.256-3.264-21.84-8.832-6.032-5.584-9.296-13.472-9.296-21.376 0-7.888 3.264-15.792 9.296-21.376 5.584-5.6 13.936-8.832 21.84-8.832s16.272 3.248 21.84 8.832c6.032 5.584 9.296 13.488 9.296 21.376 0 7.904-3.248 15.792-9.296 21.376-5.568 5.568-13.472 8.832-21.84 8.832zM780.080 380.176h-385.168c-12.544 0-22.752-9.76-22.752-22.32 0-12.080 10.208-22.304 22.752-22.304h385.168c12.544 0 22.784 9.744 22.784 22.304s-10.24 22.32-22.784 22.32zM270.4 525.12c-8.352 0-16.256-3.248-21.84-8.832-6.032-5.584-9.296-13.472-9.296-21.376 0-7.888 3.264-15.792 9.296-21.376 5.584-5.568 13.936-8.816 21.84-8.816 8.368 0 16.272 3.248 21.84 8.816 6.032 5.584 9.296 13.488 9.296 21.376 0 7.904-3.248 15.792-9.296 21.376-5.568 5.584-13.472 8.832-21.84 8.832zM780.080 517.232h-385.168c-12.544 0-22.752-9.744-22.752-22.304 0-12.080 10.208-22.304 22.752-22.304h385.168c12.544 0 22.784 9.76 22.784 22.304 0 12.080-10.24 22.304-22.784 22.304zM270.4 251.472c-8.352 0-16.256-3.248-21.84-8.848-6.032-5.552-9.296-13.472-9.296-21.36 0-7.904 3.264-15.792 9.296-21.376 5.584-5.584 13.936-8.816 21.84-8.816s16.272 3.232 21.84 8.816c6.032 5.584 9.296 13.472 9.296 21.376 0 7.888-3.248 15.808-9.296 21.36-5.568 5.6-13.472 8.848-21.84 8.848zM780.080 243.104h-385.168c-12.544 0-22.752-9.76-22.752-22.32 0-12.080 10.208-22.304 22.752-22.304h385.168c12.544 0 22.784 9.776 22.784 22.304 0 12.56-10.24 22.32-22.784 22.32z" />
<glyph unicode="&#xa023;" glyph-name="folder-deployment" d="M896.88 583.184h-12.032v87.824c0 30.432-24.688 55.104-55.136 55.104h-344.416v49.936c0 30.432-24.656 55.12-55.088 55.12h-303.088c-30.432 0-55.12-24.688-55.12-55.12v-656.128c0-30.416 24.688-55.072 55.12-55.072h702.576c30.448 0 55.136 24.656 55.136 55.072l67.152 408.16c0.016 30.416-24.656 55.104-55.104 55.104zM113.328 748.512c0 30.432 10.912 41.328 41.328 41.328h248c30.416 0 41.328-10.896 41.328-41.328v-63.728h358.192c30.416 0 41.296-10.912 41.296-41.328v-60.272h-649.184c-30.416 0-55.104-24.672-55.104-55.104l-25.856-167.6v388.032zM843.504 147.504c0-30.4-10.88-41.328-41.328-41.328h-647.52c-30.416 0-41.328 10.928-41.328 41.328l67.184 353.024c0 30.432 10.896 41.312 41.328 41.312h647.52c30.416 0 41.296-10.88 41.296-41.312l-67.152-353.024zM284.4 345.984c-7.504 0-14.56-2.928-19.552-7.888-5.424-5.008-8.336-12.064-8.336-19.136 0-7.040 2.912-14.16 8.336-19.136 4.992-4.992 12.464-7.904 19.552-7.904 7.056 0 14.544 2.928 19.536 7.904 5.408 4.992 8.32 12.080 8.32 19.136 0 7.072-2.928 14.144-8.32 19.136-4.976 4.96-12.048 7.888-19.536 7.888zM740.496 338.48h-344.672c-11.216 0-20.368-8.736-20.368-19.936 0-10.8 9.152-19.968 20.368-19.968h344.672c11.232 0 20.384 8.752 20.384 19.968 0.016 11.2-9.152 19.936-20.384 19.936zM284.4 468.224c-7.504 0-14.56-2.912-19.552-7.904-5.424-4.992-8.336-12.064-8.336-19.12s2.912-14.128 8.336-19.152c4.992-4.992 12.464-7.872 19.552-7.872 7.488 0 14.544 2.928 19.536 7.872 5.408 5.008 8.32 12.064 8.32 19.152 0 7.056-2.928 14.144-8.32 19.12-4.976 4.992-12.048 7.904-19.536 7.904zM740.496 461.152h-344.672c-11.216 0-20.368-8.736-20.368-19.968 0-10.8 9.152-19.968 20.368-19.968h344.672c11.232 0 20.384 8.752 20.384 19.968 0.016 10.816-9.152 19.968-20.384 19.968zM284.4 223.328c-7.504 0-14.56-2.928-19.552-7.904-5.424-4.992-8.336-12.064-8.336-19.12 0-7.040 2.912-14.16 8.336-19.12 4.992-5.024 12.464-7.888 19.552-7.888 7.056 0 14.544 2.896 19.536 7.888 5.408 4.976 8.32 12.048 8.32 19.12 0 7.056-2.928 14.144-8.32 19.12-4.976 4.976-12.048 7.904-19.536 7.904zM740.496 215.84h-344.672c-11.216 0-20.368-8.736-20.368-19.952 0-10.816 9.152-19.952 20.368-19.952h344.672c11.232 0 20.384 8.736 20.384 19.952s-9.152 19.952-20.384 19.952z" />
<glyph unicode="&#xb001;" glyph-name="report-folder" d="M887.888 48h-757.6c-34.976 0-58.288 29.408-58.288 58.832v682.352c0 35.28 29.136 58.816 58.288 58.816h256.416c23.328 0 46.624-17.648 58.272-41.184l29.136-94.112c0 0 0-5.888 5.84-5.888h413.776c34.976 0 58.288-29.408 58.288-58.816v-541.168c-5.84-29.424-34.992-58.832-64.128-58.832zM130.288 795.056c0 0-5.84-5.872 0 0l-5.84-688.224c0 0 0-5.872 5.84-5.872h757.616c0 0 5.824 0 5.824 5.872v547.040c0 0 0 5.888-5.824 5.888h-413.792c-23.312 0-46.608 17.648-58.272 41.184l-23.312 88.24-262.24 5.872zM714.16 540.272h-396.8c-15.952 0-28.464-12.528-28.464-28.464 0-15.952 12.528-28.448 28.464-28.448h396.784c15.936 0 28.448 12.544 28.448 28.448 0.016 15.92-12.496 28.464-28.432 28.464zM714.16 256.768h-396.8c-15.952 0-28.464-12.496-28.464-28.464s12.528-28.496 28.464-28.496h396.784c15.936 0 28.448 12.528 28.448 28.496s-12.496 28.464-28.432 28.464zM714.16 398.512h-396.8c-15.952 0-28.464-12.528-28.464-28.464 0-15.952 12.528-28.48 28.464-28.48h396.784c15.936 0 28.448 12.528 28.448 28.48 0.016 15.936-12.496 28.464-28.432 28.464z" />
<glyph unicode="&#xb002;" glyph-name="grouping-item" d="M918.176 718.768h-304.64c-18.672 0-33.824 15.136-33.84 33.824 0 0 0 0.016 0 0.016 0 18.688 15.136 33.84 33.824 33.856 0.016 0 0.016 0 0.016 0h304.64c18.672 0 33.824-15.136 33.824-33.84 0 0 0 0 0-0.016 0-18.672-15.136-33.84-33.824-33.84v0zM918.176 549.536h-304.64c-18.672 0-33.824 15.136-33.84 33.824 0 0 0 0.016 0 0.032 0 18.688 15.136 33.84 33.824 33.84 0.016 0 0.016 0 0.016 0h304.64c18.672 0 33.824-15.136 33.824-33.824 0 0 0 0 0-0.016 0-18.704-15.136-33.84-33.824-33.856v0zM918.176 278.768h-304.64c-18.672-0.016-33.824 15.104-33.84 33.776 0 0.016 0 0.048 0 0.064-0.016 18.672 15.088 33.824 33.776 33.856 0.032 0 0.048 0 0.064 0h304.64c18.72 0 33.824-15.136 33.824-33.856s-15.104-33.84-33.824-33.84zM918.176 109.536h-304.64c-18.72 0-33.84 15.136-33.84 33.84 0 18.72 15.12 33.856 33.84 33.856h304.64c18.72 0 33.824-15.136 33.824-33.856 0-18.704-15.104-33.84-33.824-33.84zM376.608 481.84h-203.072c-55.984 0-101.536 45.568-101.536 101.552v203.072c0 55.968 45.552 101.536 101.536 101.536h203.072c55.984 0 101.552-45.568 101.552-101.536v-203.072c0-56-45.568-101.552-101.552-101.552zM173.536 820.32c-18.672-0.048-33.824-15.184-33.856-33.856v-203.072c0.032-18.688 15.168-33.824 33.856-33.856h203.072c18.688 0.032 33.824 15.168 33.856 33.856v203.072c-0.032 18.672-15.168 33.808-33.856 33.856h-203.072zM376.608 8h-203.072c-55.984 0-101.536 45.552-101.536 101.536v203.072c0 55.968 45.552 101.552 101.536 101.552h203.072c55.984 0 101.552-45.584 101.552-101.552v-203.072c0-55.984-45.568-101.536-101.552-101.536zM173.536 346.464c-18.688-0.032-33.824-15.168-33.856-33.856v-203.072c0.016-18.688 15.168-33.824 33.856-33.84h203.072c18.688 0.016 33.824 15.152 33.856 33.84v203.072c-0.016 18.688-15.168 33.824-33.856 33.856h-203.072z" />
<glyph unicode="&#xb003;" glyph-name="directory-entry" d="M72.080 448v59.904c0.192 39.328 26.816 65.776 65.968 65.84l120.528-0.064c36.352 0 63.792-25.392 64.672-61.824 0.928-42.496 0.928-85.12 0-127.744-0.816-36.352-28.32-61.872-64.544-61.872-40.64-0.128-81.264-0.128-121.84 0-37.152 0-64.288 26.624-64.72 63.664-0.24 20.784-0.064 41.472-0.064 62.096zM135.264 510.688v-125.056h124.864v125.056h-124.864zM72.080 133.632v60.656c0.256 38.704 27.072 65.152 65.904 65.152 40.016 0 79.952 0.128 119.904 0 37.904 0 65.152-26.448 65.472-64.416 0.496-40.832 0.368-81.648 0-122.464-0.176-38.032-27.376-64.544-65.344-64.544h-121.216c-37.216 0.048-64.288 26.512-64.72 63.68-0.176 20.624 0 41.296 0 61.936zM260.064 71.056v125.184h-124.752v-125.184h124.752zM685.008 416.608h-232.576c-16.112 0-26.944 6.688-32.272 19.504-6.64 15.872 0.848 34.112 16.72 40.752 2.192 0.928 4.48 1.584 6.816 2 3.2 0.496 6.432 0.72 9.664 0.672h463.248c19.12 0 31.696-9.552 34.864-26.464 2.784-16.608-8.176-32.416-24.704-35.68-3.904-0.72-7.872-0.72-11.712-0.72l-230.048-0.064zM685.264 165.104h231.952c17.088 0 29.44-8.368 33.52-22.496 4.88-16.656-4.688-34.112-21.328-38.96-1.296-0.368-2.624-0.672-3.936-0.88-3.008-0.432-6.016-0.624-9.040-0.56-154.464-0.128-308.832-0.128-463.232-0.128-18.4 0-30.784 8.864-34.64 24.592-3.84 16.768 6.64 33.488 23.408 37.344 0.768 0.192 1.568 0.336 2.352 0.432 3.456 0.448 6.928 0.64 10.4 0.576 76.768 0.144 153.696 0.080 230.544 0.080zM685.008 730.976l-233.264 0.064c-16.224 0-27.872 7.68-32.384 21.12-5.552 16.576 3.408 34.512 20 40.048 2.624 0.88 5.36 1.408 8.128 1.568 1.984 0.128 3.904 0.064 5.888 0.064h463.248c19.12 0 31.696-9.536 34.864-26.448 2.8-17.008-8.752-33.056-25.776-35.84-0.32-0.064-0.624-0.112-0.976-0.16-2.976-0.368-6.080-0.304-9.088-0.304-76.832-0.112-153.76-0.112-230.64-0.112zM166.912 744.528l36.912 37.104 95.328 95.392c14.064 13.936 33.504 14.672 46.384 1.728 12.752-12.816 12.080-32.080-1.616-45.904-51.28-51.344-102.56-102.64-153.92-153.872-14.432-14.432-32.832-14.432-47.264-0.128-20.224 20-40.368 40.064-60.448 60.208-13.312 13.328-13.632 32.88-0.992 45.472 12.752 12.752 31.76 12.32 45.392-1.104 12.816-12.656 25.52-25.344 38.336-38.096 0.32-0.24 0.768-0.304 1.888-0.8z" />
<glyph unicode="&#xb004;" glyph-name="index-folder" d="M887.888 48h-757.6c-34.976 0-58.288 29.408-58.288 58.832v682.352c0 35.28 29.136 58.816 58.288 58.816h256.416c23.328 0 46.624-17.648 58.272-41.184l29.136-94.112c0 0 0-5.888 5.84-5.888h413.776c34.976 0 58.288-29.408 58.288-58.816v-541.168c-5.84-29.424-34.992-58.832-64.128-58.832zM130.288 795.056c0 0-5.84-5.872 0 0l-5.84-688.224c0 0 0-5.872 5.84-5.872h757.616c0 0 5.824 0 5.824 5.872v547.040c0 0 0 5.888-5.824 5.888h-413.792c-23.312 0-46.608 17.648-58.272 41.184l-23.312 88.24-262.24 5.872zM675.248 438.224v-303.76h60.88v303.76h-60.88zM555.136 134.448h59.968v243.264h-59.968v-243.264zM435.024 134.448h59.984v182.096h-59.984v-182.096zM315.040 134.448h59.952v121.152h-59.952v-121.152zM317.088 283.936l368.8 247.248v-63.6h50.208v152.784h-151.664l0.144-50.208h69.296l-366-246.016 29.216-40.208z" />
<glyph unicode="&#xb005;" glyph-name="child-table" d="M818.416 888h-224.704c-17.296 0-31.44-14.144-31.44-31.424v-133.568h-295.408c-17.296 0-31.424-14.144-31.424-31.424s14.144-31.424 31.424-31.424h295.424v-150.864h-295.424c-17.296 0-31.424-14.144-31.424-31.424 0-17.296 14.144-31.424 31.424-31.424h295.424v-150.864h-295.424c-17.296 0-31.424-14.128-31.424-31.424 0-17.28 14.144-31.424 31.424-31.424h295.424v-100.56c0-17.296 14.144-31.44 31.44-31.44 17.28 0 31.424 14.144 31.424 31.44v692.96h193.28c39.296 0 70.72-31.424 70.72-70.704v-612.848c0-39.296-31.424-70.72-70.72-70.72h-612.864c-39.28 0-70.704 31.424-70.704 70.72v612.848c0 39.28 31.424 70.704 70.704 70.704h267.136c17.296 0 31.424 14.144 31.424 31.424s-14.128 31.44-31.424 31.44h-267.136c-73.856 0-133.568-59.712-133.568-133.568v-612.848c0-73.856 59.712-133.584 133.568-133.584h612.848c73.856 0 133.584 59.712 133.584 133.584v612.848c0 73.856-59.712 133.568-133.584 133.568zM680.144 649.136h158.72c17.296 0 31.424 14.144 31.424 31.424 0 17.296-14.128 31.424-31.424 31.424h-158.72c-17.296 0-31.424-14.144-31.424-31.424 0-17.264 14.128-31.424 31.424-31.424zM680.144 493.568h158.72c17.296 0 31.424 14.144 31.424 31.424s-14.128 31.424-31.424 31.424h-158.72c-17.296 0-31.424-14.144-31.424-31.424s14.128-31.424 31.424-31.424zM680.144 336.432h158.72c17.296 0 31.424 14.128 31.424 31.424 0 17.28-14.128 31.44-31.424 31.44h-158.72c-17.296 0-31.424-14.16-31.424-31.44 0-17.296 14.128-31.424 31.424-31.424zM680.144 179.296h158.72c17.296 0 31.424 14.128 31.424 31.424 0 17.28-14.128 31.44-31.424 31.44h-158.72c-17.296 0-31.424-14.16-31.424-31.44 0-17.296 14.128-31.424 31.424-31.424z" />
<glyph unicode="&#xb006;" glyph-name="deletion-system" d="M700.224 544.8h-339.68c-13.104 0-23.84-9.76-23.84-21.92 0.176-12.16 10.896-22.080 23.84-22.080h339.664c13.232 0 23.792 9.92 23.792 22.080 0.048 12.16-10.512 21.92-23.776 21.92zM253.312 562.4c-21.904 0-39.52-18.4-39.52-40.8-0.16-22.56 17.616-40.96 39.52-40.96 21.76 0 39.536 18.4 39.536 40.96 0 22.4-17.776 40.8-39.536 40.8zM253.312 400c-21.904 0-39.52-18.256-39.52-40.8-0.16-22.56 17.616-40.8 39.52-40.8 21.76 0 39.536 18.24 39.536 40.8 0 22.544-17.776 40.8-39.536 40.8zM253.312 230.4c-21.904 0-39.52-18.4-39.52-40.816 0-22.56 17.616-40.848 39.52-40.848 21.76 0 39.536 18.288 39.536 40.848 0 22.416-17.776 40.816-39.536 40.816zM832.224 793.6h-633.136c-13.12 0-23.84-10.56-23.84-23.68 0-12.96 10.56-23.68 23.84-23.68h633.136c13.072 0 24 10.72 24 23.68-0.176 13.12-10.912 23.68-24 23.68zM700.224 544.8h-339.68c-13.104 0-23.84-9.76-23.84-21.92 0.176-12.16 10.896-22.080 23.84-22.080h339.664c13.232 0 23.792 9.92 23.792 22.080 0.048 12.16-10.512 21.92-23.776 21.92zM253.312 562.4c-21.904 0-39.52-18.4-39.52-40.8-0.16-22.56 17.616-40.96 39.52-40.96 21.76 0 39.536 18.4 39.536 40.96 0 22.4-17.776 40.8-39.536 40.8zM253.312 400c-21.904 0-39.52-18.256-39.52-40.8-0.16-22.56 17.616-40.8 39.52-40.8 21.76 0 39.536 18.24 39.536 40.8 0 22.544-17.776 40.8-39.536 40.8zM253.312 230.4c-21.904 0-39.52-18.4-39.52-40.816 0-22.56 17.616-40.848 39.52-40.848 21.76 0 39.536 18.288 39.536 40.848 0 22.416-17.776 40.816-39.536 40.816zM584.224 175.2h-223.68c-12.96 0-23.664 9.92-23.84 22.080 0 12.16 10.736 21.92 23.84 21.92h201.264c3.664-10.56 8.336-20.64 13.744-30.272 2.736-4.608 5.456-9.248 8.672-13.728zM571.872 386.4c-3.664-7.040-6.912-14.4-9.76-22.096-2.72-7.184-5.072-14.56-6.88-22.096h-194.72c-12.96 0-23.664 9.888-23.84 22.096 0 12.176 10.736 22.096 23.84 22.096h211.36zM808.336 493.44v155.2h-614.56c-27.36 0-52.8 8.96-73.12 24.32v-545.28c0-40 32.816-72.48 73.12-72.48h614.576v33.76c16.816 4.16 32.816 10.352 47.84 18.352v-99.36h-662.416c-66.72 0-120.96 53.632-120.96 119.664v640.704c0 65.92 54.24 119.68 120.96 119.68h638.416c13.072 0 23.792-10.56 23.792-23.68s-10.704-23.68-23.792-23.68h-638.416c-40.32 0-73.12-32.48-73.12-72.48 0-39.84 32.816-72.32 73.12-72.32h662.416v-220.8c-14.88 8-30.88 14.24-47.856 18.4zM760.432 478.72c-105.28 0-190.56-85.456-190.56-190.72 0-105.28 85.28-190.72 190.56-190.72s190.72 85.44 190.72 190.72c0 105.264-85.44 190.72-190.72 190.72zM760.432 144.976c-78.912 0-142.912 64-142.912 143.024 0 78.88 64 143.024 142.912 143.024 79.008 0 143.008-64.16 143.008-143.024 0.048-79.024-63.952-143.024-143.008-143.024zM760.512 257.68l63.264-63.28c7.488-7.504 19.648-7.504 27.088 0 7.504 7.504 7.504 19.632 0 27.088v0l-63.2 63.312 63.248 63.28c7.504 7.488 7.504 19.648 0 27.088-7.488 7.504-19.648 7.504-27.088 0l-63.28-63.248-63.28 63.248c-7.504 7.504-19.632 7.504-27.104 0-7.488-7.456-7.488-19.616 0-27.088l63.248-63.28-63.248-63.28c-7.488-7.488-7.488-19.616 0-27.072 7.488-7.504 19.648-7.504 27.104 0l63.248 63.232z" />
<glyph unicode="&#xb007;" glyph-name="delete-report" d="M629.12 472.944c0-2.096-0.192-4.048-0.656-6l-0.16-0.16c-7.76-5.84-15.216-12.144-22.032-19.12-0.832-0.16-1.664-0.16-2.592-0.16h-354.768c-14.096 0-25.28 11.184-25.28 25.44s11.168 25.44 25.28 25.44h354.768c14.272 0 25.44-11.184 25.44-25.44zM570.64 194.144h-321.728c-14.096 0-25.28 11.168-25.28 25.456 0 14.256 11.168 25.408 25.28 25.408h301.328c4.544-18.016 11.472-34.976 20.4-50.864zM557.024 371.68c-6.16-16.032-10.208-33.040-12.16-50.88h-295.952c-14.096 0-25.28 11.152-25.28 25.408 0 14.304 11.168 25.472 25.28 25.472h308.112zM754.848 508.912c8.912 0 17.808-0.48 26.4-1.776v143.376c0 56.048-45.36 101.248-101.248 101.248h-75.808v50.864h-68.208c-21.888 30.128-62.544 51.024-109.36 51.024s-86.992-20.576-109.344-51.024h-68.352v-50.864h-75.664c-56.048 0-101.264-45.2-101.264-101.248v-506.768c0-55.872 45.2-101.408 101.264-101.408h506.736c34.832 0 65.456 17.52 83.6 44.384-2.928-0.32-5.856-0.32-8.752-0.32-20.896 0-40.992 3.040-60.096 8.72-4.864-1.632-9.872-2.384-15.216-2.384h-506.928c-27.872 0-50.72 23.008-50.72 51.008v506.768c0 28.016 22.848 50.864 50.72 50.864h75.984v-101.088h354.64v101.088h75.664c28 0 51.008-22.848 51.008-50.864v-143.056c8.096 0.976 16.528 1.456 24.944 1.456zM553.328 650.512h-253.392v101.248h56.384c0 28.016 31.6 50.864 70.304 50.864 38.72 0 70.144-23.008 70.144-50.864h56.56v-101.248zM758.912 490.448c-106.592 0-192.96-86.528-192.96-193.104 0-106.608 86.336-193.088 192.96-193.088 106.592 0 193.088 86.48 193.088 193.088 0 106.576-86.496 193.104-193.088 193.104zM758.912 152.496c-79.872 0-144.656 64.8-144.656 144.848 0 79.856 64.784 144.816 144.656 144.816 80.032 0 144.816-64.976 144.816-144.816-0.016-80.048-64.784-144.848-144.816-144.848zM758.4 268.896l63.28-63.264c7.472-7.504 19.632-7.504 27.088 0 7.504 7.488 7.504 19.616 0 27.088v0l-63.232 63.28 63.248 63.28c7.504 7.488 7.504 19.648 0 27.088-7.472 7.504-19.632 7.504-27.088 0l-63.296-63.248-63.28 63.248c-7.488 7.504-19.632 7.504-27.104 0-7.488-7.456-7.488-19.616 0-27.088l63.248-63.28-63.248-63.28c-7.488-7.488-7.488-19.616 0-27.088 7.488-7.504 19.632-7.504 27.104 0l63.28 63.264z" />
<glyph unicode="&#xb008;" glyph-name="deletion-method" d="M96.72 143.44h488.432c30.656-25.392 67.664-42.96 108.064-49.744h-596.464c-13.632-0.032-24.752 11.104-24.752 24.816s11.104 24.928 24.72 24.928v0 0zM283.856 505.728c8.208 0 14.88-6.688 14.88-14.928v-293.136c0-8.24-6.672-14.912-14.88-14.912h-98.048c-8.208 0-14.88 6.672-14.88 14.912v293.184c0 8.224 6.688 14.928 14.88 14.928l98.048-0.048zM472.336 802.336c8.224 0 14.896-6.704 14.896-14.928v-589.712c0-8.256-6.672-14.928-14.896-14.928h-97.968c-8.208 0-14.864 6.672-14.864 14.928v589.712c0 8.288 6.672 14.928 14.864 14.928h97.968zM547.92 481.568v139.040c0 8.24 6.672 14.944 14.896 14.944h98c8.224 0 14.88-6.704 14.88-14.944v-54.352c-51.296-12.864-96.016-43.296-127.776-84.688v0 0zM738 115.392c-118.224 0-214.016 95.824-214.016 214.032 0 118.176 95.792 214 214.016 214 118.192 0 214-95.808 214-214 0-118.24-95.808-214.032-214-214.032zM738 489.92c-88.64 0-160.512-71.872-160.512-160.496 0-88.672 71.872-160.512 160.512-160.512s160.512 71.856 160.512 160.512c0 88.592-71.872 160.496-160.512 160.496zM736 300.896l63.28-63.264c7.472-7.504 19.632-7.504 27.088 0 7.504 7.488 7.504 19.616 0 27.088v0l-63.248 63.28 63.248 63.28c7.504 7.488 7.504 19.648 0 27.088-7.472 7.504-19.632 7.504-27.088 0l-63.28-63.248-63.28 63.248c-7.488 7.504-19.632 7.504-27.104 0-7.488-7.456-7.488-19.616 0-27.088l63.248-63.28-63.248-63.28c-7.488-7.488-7.488-19.616 0-27.088 7.488-7.504 19.632-7.504 27.104 0l63.28 63.264z" />
<glyph unicode="&#xb009;" glyph-name="method-public001" d="M666.032 657.328c4.112 7.296 4.112 19.552 0 26.912-6.224 11.184-20.272 15.184-39.472 15.184-1.616 0-2.864 0-2.864 0h-346.944c-29.696 0-42.992-14.832-42.992-29.408 0-9.488 5.52-18.016 15.088-23.12 7.248-3.808 16.64-10.304 27.872-10.304h349.84c19.216 0 33.184 9.616 39.472 20.736v0zM666.032 532.528c4.112 7.296 4.112 19.552 0 26.912-6.224 11.184-20.272 15.184-39.472 15.184-1.616 0-2.864 0-2.864 0h-346.944c-29.696 0-42.992-14.832-42.992-29.408 0-9.504 5.52-18.032 15.088-23.136 7.248-3.808 16.64-10.304 27.872-10.304h349.84c19.216 0.016 33.184 9.632 39.472 20.752v0zM815.632 568.72c8.512-4.288 18.16-8.928 26.064-14.256l24.72-15.744v282.32c0 50.208-43.28 66.944-70.752 66.944v0h-636.656c-27.376 0-81.36-16.736-81.36-66.944v-745.424c0-50.624 54.080-67.632 81.44-67.632v0h636.544c50.032 0 70.752 39.888 70.752 67.632v66.752l-35.552 33.776-25.136-12.16v-88.944c0-0.032 0.4-1.936-2.128-4.656-1.6-1.744-3.824 0.4-7.888 0.4h-636.608c-2.96 0-20.768-6.208-20.768 4.784v745.456c0 2.608 9.456 4.080 20.768 4.080h636.544c4.288 0 10.064 5.424 10.064-4.080v-248.064l9.952-4.24zM314.576 321.12c-1.376 3.536-3.328 10.816-0.72 19.744l0.912 1.68 0.304 0.336c19.024 19.504 40.048 33.072 62.528 40.352 45.248 17.936 98.624-18.080 98.816-18.080 102.928 109.072 223.792 99.856 267.648 99.424l14.432-1.312c97.2-10.336 175.024-54.896 175.76-55.344 8.24-4.72 12.928-13.76 11.968-23.040l-12.752-130.336c-1.2-12.592-12.24-22.048-25.088-21.584l-133.52 4.752c-14.544-8.192-125.104-67.888-239.536-56.688h-0.256l-0.064 0.032c-27.312 4.304-77.136 22.064-127.744 57.904-9.12 6.464-32.672 23.52-54.944 42.272-21.648 18.336-34.352 31.744-37.744 39.888v0zM399.024 340.144c-13.568-2.16-23.632-6.192-30.144-9.584 34.576-31.088 138.768-96.592 172.368-101.904 100.224-9.824 212.592 52.864 213.616 53.488 4.24 2.688 9.136 4.016 14.208 3.84l118-4.208 9.008 91.904c-22.384 10.88-78.592 35.44-142.912 42.304l-2.8 0.304c-15.584 1.552-30.752 1.936-45.104 1.248-7.712-1.36-18.56-2.528-22.656-2.96-32.624-3.36-73.088-7.552-161.056-76 6.4-2.4 13.36-3.984 21.152-4.832 48.464-4.752 101.76 27.936 104 29.376 4.592 2.864 10.064 4.096 15.696 3.536 7.456-0.784 14-4.8 18.016-11.008 7.232-11.184 3.904-26.032-7.392-33.072-32.864-20.608-85.76-40.928-135.824-35.984l-1.216 0.128c-34.128 3.664-62.080 18.512-83.12 44.32-8.048 5.536-17.664 8.816-29.344 10.032-9.792 0.96-18.752 0.016-24.496-0.928v0z" />
<glyph unicode="&#xb010;" glyph-name="method-general001" d="M660.4 657.328c4.112 7.296 4.112 19.552 0 26.912-6.224 11.184-20.272 15.184-39.472 15.184-1.616 0-2.864 0-2.864 0h-346.944c-29.696 0-42.992-14.832-42.992-29.408 0-9.488 5.52-18.016 15.088-23.12 7.248-3.808 16.64-10.304 27.872-10.304h349.84c19.232 0 33.2 9.616 39.472 20.736v0zM228.064 542.4c0-9.504 5.456-19.792 15.008-24.96 7.216-3.84 16.56-6.592 27.728-6.592h268.784l4.448 6.672c8.336 9.312 17.040 19.328 25.936 26.544l34.48 29.664h-333.632c-29.52 0-42.752-16.736-42.752-31.328v0zM810 568.72c8.512-4.288 18.16-8.928 26.064-14.256l24.72-15.744v282.32c0 50.208-43.28 66.944-70.752 66.944v0h-636.672c-27.36 0.016-81.36-16.72-81.36-66.944v-745.424c0-50.624 54.080-67.632 81.44-67.632v0h636.56c50.032 0 70.752 39.888 70.752 67.632v66.752l-35.552 33.776-25.136-12.16v-88.944c0-0.032 0.4-1.936-2.128-4.656-1.6-1.744-3.824 0.4-7.888 0.4h-636.608c-2.96 0-20.768-6.208-20.768 4.784v745.456c0 2.608 9.456 4.080 20.768 4.080h636.56c4.288 0 10.064 5.424 10.064-4.080v-248.064l9.936-4.24zM947.744 182.8l-107.712 108.928c16.512 26.656 26.032 58.064 26.032 91.664 0 96.128-77.664 174.064-173.424 174.064-95.696 0-173.36-77.936-173.36-174.064s77.632-174.048 173.36-174.048c41.328 0 79.296 14.48 109.040 38.752l105.216-106.32c5.664-5.648 14.816-5.648 20.432 0l20.4 20.528c5.68 5.648 5.68 14.816 0.016 20.496v0zM567.44 382.32c0 69.744 56.336 126.288 125.776 126.288s125.744-56.512 125.744-126.288c0-69.744-56.336-126.288-125.744-126.288-69.44 0-125.776 56.528-125.776 126.288v0z" />
<glyph unicode="&#xb011;" glyph-name="investigation" d="M666.864 427.040c66.864 0 121.136 54.224 121.136 121.088 0 66.944-54.288 121.168-121.136 121.168-66.96 0-121.152-54.224-121.152-121.168-0.016-66.848 54.192-121.088 121.152-121.088zM666.864 390.32c-94.752 0-171.6-76.768-171.6-171.584v-147.248h343.136v147.248c-0.016 94.816-76.816 171.584-171.536 171.584zM853.76 348.656c120.864 107.52 131.664 292.56 24.24 413.44-107.472 120.816-292.576 131.68-413.408 24.176-115.696-102.944-130.24-276.816-36.944-397.568l-71.232-63.248-27.024 30.336-257.392-228.848 81.056-91.248 257.392 228.976-27.040 30.4 71.232 63.36c108.96-106.784 283.408-112.64 399.12-9.776zM483.088 765.488c109.152 97.12 276.992 87.248 374.048-21.968 97.072-109.152 87.28-276.912-21.872-374.048-109.184-97.104-276.992-87.232-374.080 21.936s-87.264 276.976 21.904 374.080z" />
<glyph unicode="&#xb012;" glyph-name="quote" d="M742.448 227.92h-440.032c-15.152 0-27.424-12.272-27.424-27.408s12.272-27.424 27.424-27.424h440.032c15.152 0 27.424 12.288 27.424 27.424s-12.256 27.408-27.424 27.408zM742.448 393.008h-302.512c-15.184 0-27.504-12.336-27.504-27.52s12.32-27.52 27.504-27.52h302.528c15.184 0 27.52 12.336 27.52 27.52-0.016 15.184-12.336 27.52-27.536 27.52zM742.448 558.016h-137.52c-15.184 0-27.52-12.304-27.52-27.488s12.32-27.504 27.504-27.52c0.016 0 0.016 0 0.016 0h137.52c15.184 0 27.52 12.304 27.52 27.504 0 15.184-12.32 27.504-27.488 27.504-0.016 0-0.032 0-0.032 0zM804.448 766.176h-43.664c-15.2 0-27.52-12.304-27.52-27.488-0.016-15.184 12.304-27.504 27.488-27.504 0.016 0 0.032 0 0.032 0h43.664c6.24 0 11.328-6.096 11.328-13.616v-620.96c0-7.504-5.088-13.616-11.328-13.616h-582.4c-6.24-0.032-11.328 6.080-11.328 13.616v207.712c0 15.184-12.304 27.52-27.488 27.52-15.2 0-27.52-12.32-27.52-27.504 0-0.016 0-0.016 0-0.016v-207.696c0-37.84 29.76-68.608 66.336-68.608h582.4c36.56 0 66.336 30.768 66.336 68.608v620.96c0 37.824-29.776 68.592-66.336 68.592zM375.648 564.096c11.808-9.504 29.088-7.648 38.608 4.176 0.016 0.032 0.048 0.048 0.064 0.096 9.504 11.824 7.6 29.12-4.24 38.624 0 0-0.016 0.016-0.032 0.016-36.368 29.152-25.104 64.112-19.472 76.368l155.744 143.12c39.984 17.312 61.136-4.208 65.696-9.568 35.744-40.256 14.56-71.088 8.32-78.512l-81.456-69.616c-11.552-9.872-12.928-27.232-3.040-38.784s27.232-12.912 38.784-3.040l82.928 70.832c0.752 0.64 1.488 1.328 2.144 2.064 23.12 24.56 51.536 88.224-5.52 152.48-17.312 21.696-67.808 54.288-135.024 22.16-2.464-1.184-4.752-2.72-6.768-4.576l-162.624-149.408c-2.144-1.936-3.936-4.192-5.36-6.64-16.88-29.632-32.080-99.072 31.248-149.792zM265.968 365.312c16.752 0 35.488 3.776 55.728 13.44 2.464 1.184 4.752 2.736 6.768 4.56l162.624 149.424c2.096 1.92 3.872 4.16 5.296 6.624 16.88 29.648 32.048 99.088-31.248 149.808-12.144 9.12-29.392 6.672-38.512-5.472-8.72-11.616-6.912-28 4.128-37.44 36.384-29.184 25.104-64.128 19.472-76.368l-155.744-143.104c-39.936-17.264-61.136 4.208-65.696 9.568-35.76 40.272-14.56 71.104-8.304 78.56l81.456 69.584c11.552 9.872 12.912 27.232 3.040 38.784-9.856 11.552-27.232 12.912-38.768 3.040l-82.928-70.816c-0.752-0.64-1.488-1.328-2.176-2.064-23.136-24.56-51.536-88.224 5.552-152.48 12.128-15.2 40.432-35.648 79.312-35.648z" />
<glyph unicode="&#xb014;" glyph-name="schedule" d="M336 536h352c16.208 0 29.344 13.136 29.344 29.328s-13.136 29.328-29.344 29.328h-352c-16.192 0-29.328-13.136-29.328-29.328s13.136-29.328 29.328-29.328zM336 360h352c16.208 0 29.344 13.136 29.344 29.328 0 16.208-13.136 29.344-29.344 29.344h-352c-16.192 0-29.328-13.136-29.328-29.344 0-16.192 13.136-29.328 29.328-29.328zM336 184h352c16.208 0 29.344 13.136 29.344 29.344 0 16.192-13.136 29.312-29.344 29.312h-352c-16.192 0-29.328-13.12-29.328-29.312 0-16.208 13.136-29.344 29.328-29.344zM805.344 770.672c-16.192 0-29.344-13.152-29.344-29.344s13.152-29.328 29.344-29.328 29.328-13.136 29.328-29.328v-586.672c0-16.144-13.136-29.328-29.328-29.328h-586.672c-16.144 0-29.344 13.184-29.344 29.328v586.672c0 16.192 13.2 29.328 29.344 29.328 16.192 0 29.328 13.152 29.328 29.328 0 16.192-13.152 29.344-29.328 29.344-48.528 0-88-39.488-88-88v-586.672c0-48.512 39.488-88 88-88h586.672c48.496 0 87.984 39.488 87.984 88v586.672c0 48.512-39.488 88-87.984 88zM336 712h352c16.208 0 29.344 13.152 29.344 29.328 0 16.192-13.136 29.344-29.344 29.344h-32.336c-13.552 66.944-72.736 117.328-143.664 117.328s-130.128-50.384-143.664-117.328h-32.336c-16.192 0-29.328-13.152-29.328-29.344s13.136-29.328 29.328-29.328zM512 829.328c38.192 0 69.872-24.64 82.064-58.672h-164.128c12.192 34.032 43.872 58.672 82.064 58.672z" />
<glyph unicode="&#xb015;" glyph-name="report001" d="M704.128 502.656h-384.8c-15.472 0-27.616-12.144-27.616-27.6s12.144-27.584 27.616-27.584h384.8c15.456 0 27.6 12.144 27.6 27.584-0.016 15.456-12.144 27.6-27.6 27.6zM704.128 227.728h-384.8c-15.472 0-27.616-12.144-27.616-27.6 0-15.488 12.144-27.632 27.616-27.632h384.8c15.456 0 27.6 12.144 27.6 27.632-0.016 15.472-12.144 27.6-27.6 27.6zM786.928 777.6h-82.256v55.184h-73.984c-23.712 32.592-67.888 55.216-118.688 55.216-50.768 0-94.384-22.080-118.688-55.2h-73.968v-55.2h-82.272c-60.736 0-109.872-49.152-109.872-109.872v-549.872c0-60.72 49.12-109.856 109.872-109.856h549.84c60.752 0 109.872 49.136 109.872 109.856v549.872c0.016 60.72-49.12 109.872-109.856 109.872zM374.528 777.6h61.28c0.016 30.352 34.24 55.184 76.192 55.184 41.968 0 76.176-24.864 76.176-55.2h61.296v-109.872h-274.944v109.888zM841.6 117.856c0-30.336-24.832-55.184-55.2-55.184h-549.872c-30.368 0-55.2 24.848-55.2 55.184v549.872c0 30.368 24.832 55.216 55.2 55.216h82.256v-109.856h384.8v109.856h82.272c30.352 0 55.2-24.832 55.2-55.216v-549.872h0.544zM704.128 365.184h-384.8c-15.472 0-27.616-12.144-27.616-27.6 0-15.472 12.144-27.616 27.616-27.616h384.8c15.456 0 27.6 12.144 27.6 27.616-0.016 15.456-12.144 27.6-27.6 27.6z" />
<glyph unicode="&#xb016;" glyph-name="header" d="M918.16 8h-812.32c-18.688 0-33.84 15.136-33.84 33.84v0 812.32c0 18.688 15.152 33.84 33.84 33.84h401.824c18.704 0 33.84-15.152 33.84-33.84s-15.136-33.84-33.84-33.84h-367.984v-744.64h744.64v370.144c0.016 18.704 15.152 33.856 33.84 33.84 18.704 0 33.84-15.152 33.84-33.84v-403.984c0-18.704-15.136-33.84-33.84-33.84v0zM782.768 752.624h-541.536c-18.688 0-33.84-15.152-33.84-33.84s15.152-33.856 33.84-33.856h541.536c18.704 0 33.84 15.168 33.824 33.856 0 18.672-15.136 33.824-33.824 33.84zM782.768 617.232h-541.536c-18.688 0-33.84-15.168-33.824-33.856s15.152-33.824 33.824-33.84h541.536c18.704 0 33.84 15.168 33.824 33.856 0 18.688-15.136 33.84-33.824 33.84z" />
<glyph unicode="&#xb017;" glyph-name="grouping" d="M144.16 19.232c-34.32 0-61.808 29.248-61.808 65.776v494.112c0 36.528 27.504 65.776 61.808 65.776h517.456c34.32 0 61.808-29.248 61.808-65.776v-494.112c0-36.528-27.504-65.776-61.808-65.776h-517.456zM144.16 601.344c-11.44 0-20.896-10.112-20.896-22.224v-501.376h1.312c2.64-8.576 10.128-14.96 19.376-14.96h517.664c11.44 0 20.912 10.112 20.912 22.224v494.112c0 12.112-9.472 22.224-20.912 22.224h-517.456zM791.856 201.824v494.128c0 12.096-9.472 22.224-20.912 22.224h-463.104c-10.784 0-20.24 9.232-20.24 21.568 0 11.424 8.8 21.552 20.24 21.552h462.448c34.32 0 61.808-29.248 61.808-65.76v-494.352c0-11.44-8.8-21.552-20.24-21.552-11.44-0.016-20 9.216-20 22.192zM901.408 317.76v494.128c0 12.096-9.456 22.224-20.896 22.224h-463.104c-10.784 0-20.256 9.232-20.256 21.568 0 11.44 8.816 21.568 20.256 21.568h462.432c34.336 0 61.808-29.264 61.808-65.776v-494.128c0-11.44-8.8-21.552-20.24-21.552s-20.64 9.872-20 21.968zM72 85.008v494.112c0 42.464 32.336 77.008 72.16 77.008h517.456c39.808 0 72.16-34.528 72.16-77.008v-494.112c0-42.464-32.336-77.008-72.16-77.008h-517.456c-39.824 0-72.16 34.544-72.16 77.008zM144.16 633.904c-28.368 0-51.248-24.64-51.248-54.784v-494.112c0-30.144 23.088-54.784 51.248-54.784h517.456c28.384 0 51.264 24.64 51.264 54.784v494.112c0 30.144-23.104 54.784-51.264 54.784h-517.456zM118.208 66.752h-5.28v512.368c0 18.272 14.080 33.216 31.232 33.216h517.456c17.152 0 31.248-14.96 31.248-33.216v-494.112c0-18.272-14.096-33.216-31.248-33.216h-517.456c-10.544 0-20.24 5.712-25.952 14.96zM144.16 590.336c-5.712 0-10.336-5.056-10.336-11.216v-495.216l0.88-2.64c1.104-3.52 4.192-7.488 9.68-7.488h517.216c5.712 0 10.336 5.056 10.336 11.232v494.112c0 5.936-4.848 11.216-10.336 11.216h-517.44zM781.52 201.824v494.128c0 5.936-4.848 11.216-10.336 11.216h-463.344c-16.944 0-30.576 14.512-30.576 32.56 0 18.032 13.648 32.544 30.576 32.544h462.448c39.808 0 72.16-34.528 72.16-77.008v-494.128c0-18.016-13.664-32.544-30.576-32.544-17.168 0.016-30.352 14.32-30.352 33.232zM307.84 749.84c-5.936 0-9.68-5.504-9.68-10.336 0-6.368 5.056-10.336 9.68-10.336h463.104c17.152 0 31.232-14.976 31.232-33.216v-494.128c0-6.592 3.952-11.216 9.68-11.216 5.936 0 9.664 5.504 9.664 10.336v494.112c0 30.144-23.088 54.784-51.248 54.784h-462.432zM898.992 294.896c-5.696 6.368-8.576 14.512-8.128 23.328v493.664c0 5.936-4.848 11.216-10.336 11.216h-463.12c-16.944 0-30.576 14.512-30.576 32.56 0 18.032 13.648 32.336 30.576 32.336h462.432c39.824 0 72.16-34.528 72.16-77.008v-494.112c0-18.048-13.632-32.56-30.576-32.56-8.368 0.224-16.48 3.984-22.432 10.576zM417.408 866c-5.936 0-9.68-5.504-9.68-10.336 0-6.384 5.056-10.336 9.68-10.336h463.104c17.152 0 31.232-14.976 31.232-33.216v-495.008c-0.24-2.624 0.656-5.040 2.416-7.040 1.984-2.192 4.608-3.296 7.248-3.296 5.952 0 9.68 5.504 9.68 10.336v494.112c0 30.144-23.088 54.784-51.264 54.784h-462.416z" />
<glyph unicode="&#xb018;" glyph-name="catalog" d="M512 888c-243.040 0-440-197.008-440-440 0-243.056 196.96-440 440-440 243.056 0 440 196.944 440 440 0 242.992-196.944 440-440 440zM512 66.656c-210.272 0-381.328 171.088-381.328 381.344 0 210.272 171.056 381.328 381.328 381.328 210.256 0 381.344-171.056 381.344-381.328 0-210.256-171.088-381.344-381.344-381.344zM717.344 653.328h-234.672c-16.208 0-29.344-13.136-29.344-29.328s13.136-29.328 29.344-29.328h234.672c16.176 0 29.312 13.136 29.312 29.328s-13.136 29.328-29.312 29.328zM717.344 477.328h-234.672c-16.208 0-29.344-13.152-29.344-29.328 0-16.192 13.136-29.344 29.344-29.344h234.672c16.176 0 29.312 13.152 29.312 29.344 0 16.176-13.136 29.328-29.312 29.328zM717.344 301.344h-234.672c-16.208 0-29.344-13.152-29.344-29.344s13.136-29.344 29.344-29.344h234.672c16.176 0 29.312 13.152 29.312 29.344s-13.136 29.344-29.312 29.344zM365.328 653.328h-58.656c-16.208 0-29.344-13.136-29.344-29.328s13.136-29.328 29.344-29.328h58.656c16.208 0 29.344 13.136 29.344 29.328s-13.136 29.328-29.344 29.328zM365.328 477.328h-58.656c-16.208 0-29.344-13.152-29.344-29.328 0-16.192 13.136-29.344 29.344-29.344h58.656c16.208 0 29.344 13.152 29.344 29.344 0 16.176-13.136 29.328-29.344 29.328zM365.328 301.344h-58.656c-16.208 0-29.344-13.152-29.344-29.344s13.136-29.344 29.344-29.344h58.656c16.208 0 29.344 13.152 29.344 29.344s-13.136 29.344-29.344 29.344z" />
<glyph unicode="&#xb019;" glyph-name="time-architecture" d="M843.952 232.4l-82.528 0.112c-4.688 0.448-8.464 4.112-8.656 8.944v56.288c0 9.632-7.904 17.456-17.68 17.456-9.632 0-17.28-7.456-17.664-16.896v-91.312c0.304-4.832 4.080-8.752 8.96-9.136h118.32c8.832 0.976 15.68 8.16 15.68 17.168-0.032 9.232-7.248 16.72-16.432 17.376zM735.040 421.744c-115.376 0-209.008-92.576-209.008-206.848 0-114.32 93.632-206.912 209.008-206.912 115.504 0 209.072 92.592 209.072 206.912 0.16 114.272-93.568 206.848-209.072 206.848zM735.040 61.632c-85.536 0-154.848 68.656-154.848 153.184 0 84.688 69.312 153.232 154.848 153.232 85.52 0 154.88-68.544 154.88-153.232 0.096-84.528-69.216-153.184-154.88-153.184zM519.76 392.992l43.856 55.008h-40.96v110h156.352c28.656 0 51.936 24.752 51.936 55.2v219.6c0 30.432-23.28 55.184-51.936 55.184h-364.88c-28.656 0-51.92-24.752-51.92-55.184v-219.504c0-30.432 23.28-55.2 51.92-55.2h156.352v-110h-234.24v-137.504h-104.112c-28.896 0-52.272-24.56-52.272-54.784v-192.912c0-30.080 23.376-54.784 52.272-54.784h260.16c28.88 0 52.24 24.48 52.24 54.784v192.784c0 30.032-23.36 54.816-52.24 54.816h-104v82.464l231.472 0.032zM314.128 612.992c0.224 0 0.112 0.096 0.112 0.208v219.6c0 0.176 0 0.176-0.112 0.176h364.896c-0.208 0-0.128-0.096-0.128-0.176v-219.504c0-0.192 0-0.192 0.128-0.192l-364.896-0.112zM392.288 255.488c0.096 0 0.192-0.080 0.192 0.208v-192.784c0 0.096 0 0.096-0.192 0.096h-260.16c-0.112 0-0.224 0.096-0.224-0.208v192.8c0-0.112 0-0.112 0.224-0.112h260.16z" />
<glyph unicode="&#xb020;" glyph-name="dataprimary-key" d="M773.376 326.592h-519.696c-14.080 0-25.552 11.36-25.552 25.344 0 13.968 11.472 25.312 25.552 25.312h519.696c14.096 0 25.552-11.344 25.552-25.312 0-13.984-11.36-25.344-25.552-25.344zM656.048 175.824h-402.368c-14.080 0-25.552 11.36-25.552 25.312 0 14 11.472 25.36 25.552 25.36h402.368c14.112 0 25.568-11.36 25.568-25.36 0-13.952-11.344-25.312-25.568-25.312zM250.592 454.576c-7.152-0.016-13.968 2.976-18.8 8.256-9.456 10.208-8.848 26.176 1.376 35.648 0.048 0.016 0.096 0.048 0.128 0.096l186.288 169.216c10.032 9.12 25.44 8.864 35.184-0.576l116.192-112.288 179.056 158.784c10.416 9.28 26.56 8.48 36.080-1.952 9.36-10.352 8.496-26.32-1.84-35.648-0.016-0.032-0.080-0.064-0.112-0.096l-196.944-174.464c-10.064-8.864-25.232-8.544-34.96 0.672l-115.968 112.048-168.4-153.040c-4.736-4.256-10.896-6.608-17.28-6.656v0zM148.912 887.968h726.192c42.448 0 76.896-34.592 76.896-77.248v0-725.488c0-42.656-34.432-77.232-76.896-77.232v0h-726.192c-42.464-0.016-76.896 34.544-76.912 77.2v725.52c-0.016 42.656 34.384 77.264 76.848 77.28 0.016 0 0.032 0 0.064 0v-0.032zM148.912 821.744c-6.064 0.016-10.976-4.896-11.008-10.992 0-0.016 0-0.016 0-0.032v-725.488c0-6.096 4.944-11.008 11.008-11.008h726.192c6.064 0 10.992 4.928 10.992 11.008v725.488c0 6.080-4.896 11.024-10.96 11.056-0.032 0-0.032 0-0.032 0l-726.192-0.032z" />
<glyph unicode="&#xb021;" glyph-name="dataprimary-keys" d="M148.912 887.968h726.192c42.448 0 76.896-34.592 76.896-77.248v0-725.488c0-42.656-34.432-77.232-76.896-77.232v0h-726.192c-42.464-0.016-76.896 34.544-76.912 77.2v725.52c-0.016 42.656 34.384 77.264 76.848 77.28 0.016 0 0.032 0 0.064 0v-0.032zM148.912 821.744c-6.064 0.016-10.976-4.896-11.008-10.992 0-0.016 0-0.016 0-0.032v-725.488c0-6.096 4.944-11.008 11.008-11.008h726.192c6.064 0 10.992 4.928 10.992 11.008v725.488c0 6.080-4.896 11.024-10.96 11.056-0.032 0-0.032 0-0.032 0l-726.192-0.032zM250.592 315.2c-7.152-0.016-13.968 2.992-18.8 8.272-9.456 10.208-8.848 26.16 1.376 35.632 0.048 0.032 0.096 0.064 0.128 0.112l186.288 169.2c10.032 9.12 25.44 8.88 35.184-0.56l116.192-112.288 179.056 158.784c10.416 9.28 26.56 8.48 36.080-1.936 9.36-10.352 8.496-26.336-1.84-35.664-0.016-0.032-0.080-0.064-0.112-0.096l-196.944-174.48c-10.064-8.864-25.232-8.544-34.96 0.672l-115.968 112.064-168.4-153.040c-4.736-4.272-10.896-6.624-17.28-6.672v0z" />
<glyph unicode="&#xb022;" glyph-name="fillin-information" d="M924.432 394.784c-1.184 6.096-3.040 12.24-5.424 17.76l-0.16 0.336-0.176 0.336c-5.808 12.784-13.824 24.944-23.872 36.096-10.512 11.68-20.624 20.048-30.912 25.584-5.376 2.816-10.8 5.008-17.024 6.96-7.344 2.224-14.64 3.456-22.16 3.776-1.264 0.048-2.112 0.064-2.976 0.064-7.744 0-15.552-1.2-23.264-3.584-9.008-2.784-17.696-7.488-25.776-13.952l-0.464-0.384-0.48-0.384c-3.952-3.376-8.528-7.6-13.648-12.512-4.576-4.464-8.448-8.176-11.712-11.264l-3.36-3.2-0.128 0.112-2.432-2.544-25.952-24.64 1.008-1.040-2.096-2.176-155.952-160.848c-9.456-9.728-17.392-17.952-23.712-24.688l-11.616-12.192c-5.872-6.048-10.64-11.968-14.32-17.824-3.024-4.752-5.856-10.128-8.336-15.84-2.368-4.8-4.672-10.784-7.456-19.424-2.368-7.312-4.848-15.424-7.392-24.24-2.416-8.384-4.704-16.496-6.88-24.384-2.8-10.288-4.384-17.488-5.2-23.52-2.896-19.264 0.736-35.92 10.848-48.912 6.064-7.632 19.296-19.776 43.040-19.776 2.96 0 6.048 0.192 9.216 0.544l0.864 0.080 0.848 0.16c5.056 0.8 11.52 2.304 20.848 4.8 7.968 2.16 16.432 4.72 25.888 7.824 8.88 2.992 17.376 6.032 25.472 9.072 8.784 3.376 15.456 6.24 20.576 8.8 6.768 3.136 13.232 7.168 19.296 12 4.048 3.168 7.76 6.32 11.12 9.408 2.864 2.416 6.288 5.84 13.008 12.768 6.128 6.336 13.632 14.144 22.688 23.6 8.208 8.64 17.664 18.336 29.888 30.672l0.256 0.256 0.256 0.272 33.824 35.28 120.032 123.808-0.080 0.112 0.336 0.304c2.576 2.336 5.408 5.024 8.384 8.080 1.776 1.84 3.92 3.952 6.352 6.352 2.928 2.928 6.176 6.144 9.76 9.856l0.624 0.624 0.576 0.656c6.688 7.488 11.728 15.744 15.008 24.624 3.2 8.528 4.848 17.584 4.848 26.64 0.048 6.672-0.608 13.344-1.904 19.712v0zM731.008 204.080l-33.824-35.264c-11.232-11.328-21.392-21.696-30.4-31.2-9.008-9.408-16.48-17.168-22.4-23.296-5.92-6.096-9.456-9.616-10.576-10.4-2.8-2.656-6.048-5.408-9.712-8.288-3.648-2.928-7.44-5.264-11.408-7.040-3.968-2-9.696-4.48-17.312-7.408-7.632-2.864-15.584-5.696-23.888-8.48-8.304-2.768-16.192-5.168-23.664-7.184-7.472-2-13.008-3.328-16.704-3.92-1.664-0.208-3.184-0.288-4.592-0.288-5.072 0-8.608 1.248-10.608 3.728-2.512 3.264-3.232 8.608-2.128 16.144 0.544 4.080 1.904 9.968 4.016 17.68 2.128 7.712 4.368 15.664 6.768 23.936 2.384 8.336 4.704 15.952 6.976 22.896 2.256 6.992 4.080 11.776 5.52 14.4 1.664 4.064 3.584 7.76 5.696 11.088 2.096 3.344 5.136 7.040 9.072 11.088 1.696 1.776 5.648 5.904 11.856 12.448 6.176 6.56 13.904 14.624 23.216 24.192l30.864 31.808 34.224 35.344 90.896 93.696 79.040-81.952-90.928-93.728zM882.736 363.664c-1.408-3.792-3.664-7.408-6.768-10.896-3.376-3.488-6.4-6.496-9.088-9.168-2.672-2.576-4.976-4.944-6.976-6.976-2.24-2.304-4.352-4.352-6.336-6.096l-79.056 81.52c3.408 3.2 7.44 7.040 12.048 11.568 4.672 4.512 8.544 8.048 11.648 10.688 3.936 3.168 8.048 5.44 12.256 6.752 3.824 1.184 7.616 1.76 11.296 1.76 0.384 0 0.784 0 1.168-0.016 4.080-0.176 8.048-0.8 11.824-1.952 3.808-1.184 7.12-2.48 9.936-3.968 5.936-3.184 12.48-8.752 19.664-16.752 7.184-7.984 12.72-16.336 16.688-25.056 1.136-2.64 2.048-5.68 2.736-9.168 0.704-3.488 1.056-7.088 1.056-10.896 0.016-3.792-0.672-7.552-2.096-11.344v0zM882.736 363.664v0zM383.28 65.152h-175.568c-30.16 0-54.704 25.312-54.704 56.4v652.88c0 31.088 24.544 56.384 54.704 56.384h583.328c30.16 0 54.704-25.296 54.704-56.384v-204.336c0-15.776 12.4-28.576 27.696-28.576 15.312 0 27.712 12.8 27.712 28.576v204.32c0 62.624-49.408 113.584-110.128 113.584h-583.312c-60.72 0-110.112-50.96-110.112-113.584v-652.864c0-62.608 49.392-113.568 110.112-113.568h175.568c15.296 0 27.712 12.8 27.712 28.576s-12.416 28.592-27.712 28.592v0zM383.28 65.152v0zM719.28 703.872c0 15.776-12.416 28.576-27.712 28.576h-394.848c-15.296 0-27.696-12.8-27.696-28.576s12.4-28.576 27.696-28.576h394.848c15.296 0 27.712 12.784 27.712 28.576v0zM719.28 703.872v0zM296.72 541.312c-15.296 0-27.696-12.8-27.696-28.56 0-15.792 12.4-28.592 27.696-28.592h272.464c15.296 0 27.696 12.8 27.696 28.592 0 15.76-12.4 28.56-27.696 28.56h-272.464zM296.72 541.312v0zM451.424 350.192h-154.704c-15.296 0-27.696-12.8-27.696-28.56 0-15.792 12.4-28.592 27.696-28.592h154.704c15.296 0 27.696 12.8 27.696 28.592 0 15.76-12.4 28.56-27.696 28.56v0zM451.424 350.192v0z" />
<glyph unicode="&#xb023;" glyph-name="information-item" d="M181.104 10.048c-28.352 0-55.216 8.944-75.616 25.184-21.12 16.784-33.456 42.272-33.504 69.248v684.928c0 26.816 12.336 52.288 35.632 73.376 14.208 12.624 35.904 20.672 62.608 23.168l670.528-0.048c8.704 0 16.4-0.16 22.336-1.904l11.408-2.336 1.088-0.56 6.384-1.104 1.168-1.056 3.888-1.392 0.752-0.848 4.688-2.336 8.272-4.88 1.84-1.504 4.992-1.104 2.624-4.256 2.432 1.728 20.976-21.104 2.080-2.768 0.688-6.416 3.28-5.008 0.432-1.392 2.576-3.792 2.864-5.424 1.28-7.264 3.808-1.44c1.392-5.888 1.392-13.264 1.392-19.344v-651.808l-2.144-6.704v-27.36c0-23.584-12.96-48.832-35.616-69.312-18.336-16.208-45.184-25.12-75.616-25.12l-657.52-0.048zM128.016 106.544c0-21.168 24.8-38.352 55.232-38.352h657.52c30.432 0 55.216 17.184 55.216 38.352v497.776h-767.968v-497.776zM183.184 827.664c-30.432 0-55.232-17.2-55.232-38.32v-129.008h767.92v129.008c0 21.104-24.816 38.32-55.232 38.32h-657.456zM733.2 387.040h-338.56c-15.616-0.032-28.272 12.624-28.272 28.24s12.64 28.256 28.24 28.272c0 0 0.016 0 0.032 0h338.512c15.6 0.016 28.272-12.624 28.288-28.224 0.016-15.632-12.624-28.288-28.24-28.288zM733.2 234.528h-338.56c-15.616-0.016-28.272 12.64-28.272 28.256s12.64 28.272 28.24 28.272c0 0 0.016 0 0.032 0h338.512c15.6 0.032 28.272-12.624 28.288-28.24 0.016-15.6-12.624-28.256-28.24-28.288v0zM292.448 391.584h-1.664c-15.6 0.656-27.68 13.84-27.008 29.44 0.64 14.624 12.336 26.336 26.976 27.008h1.664c15.6-0.672 27.664-13.872 27.008-29.456-0.656-14.624-12.352-26.336-26.976-26.992zM292.448 237.888h-1.664c-15.6-0.016-28.272 12.624-28.272 28.224 0 15.632 12.64 28.288 28.24 28.32 0 0 0.016 0 0.032 0h1.664c15.6 0 28.272-12.656 28.272-28.272s-12.64-28.272-28.24-28.272c0 0-0.016 0-0.032 0z" />
<glyph unicode="&#xb024;" glyph-name="method-public" d="M72 35.184h100.592v110.096h-100.592v-110.096zM197.744 35.184h100.592v220.176h-100.592v-220.176zM935.792 129.856l-156.448 167.216c-18.144 19.408-45.312 21.504-66.464 8.336l-83.664 89.488c44.096 52.352 71.152 121.424 71.152 197.472 0 163.264-123.84 295.632-276.592 295.632-152.768 0-276.608-132.352-276.608-295.632 0-135.488 85.216-249.664 201.504-284.624v-272.576h100.576v262.8c51.808 5.136 99.392 25.664 138.976 57.040l85.552-91.424c-12.336-22.64-10.336-51.664 7.792-71.024l156.448-167.216c21.632-23.12 56.624-23.12 78.256 0l19.568 20.864c21.568 23.136 21.568 60.56-0.048 83.648v0 0 0zM449.232 373.584v46.896h-100.576v-33.84c-77.744 31.984-132.944 112.608-132.944 206.96 0 34.576 8.016 66.88 21.216 96 15.328-15.376 38.752-39.12 38.752-40.368 0 25.84 73.584 104.528 96.064 104.528-1.152 0-22.96 23.664-37.36 39.536 27.008 13.76 56.88 22.080 88.784 22.080 114.576 0 207.44-99.264 207.44-221.744 0-113.056-79.104-206.352-181.376-220.048v0 0 0z" />
<glyph unicode="&#xb025;" glyph-name="method-general" d="M94.032 212.72h435.136c27.328-22.608 60.288-38.256 96.288-44.304h-531.408c-12.144-0.064-22.048 9.872-22.048 22.112 0 12.208 9.888 22.192 22.032 22.192v0 0zM260.752 535.504c7.312 0 13.248-5.968 13.248-13.296v-261.184c0-7.344-5.952-13.28-13.248-13.28h-87.36c-7.312 0-13.248 5.936-13.248 13.28v261.2c0 7.328 5.952 13.296 13.248 13.296l87.36-0.016zM428.672 799.744c7.328 0 13.264-5.968 13.264-13.296v-525.408c0-7.344-5.936-13.28-13.264-13.28h-87.28c-7.312 0-13.248 5.936-13.248 13.28v525.408c0 7.376 5.936 13.296 13.248 13.296h87.28zM496 513.952v123.888c0 7.344 5.952 13.312 13.264 13.312h87.312c7.312 0 13.248-5.968 13.248-13.312v-48.432c-45.68-11.472-85.504-38.56-113.824-75.456v0 0zM670.688 268.064c-61.552 0-111.456 50.016-111.456 111.712 0 61.728 49.904 111.76 111.456 111.76 61.536 0 111.44-50.032 111.44-111.76 0-61.696-49.904-111.712-111.44-111.712v0 0zM938.032 163.776l-106.976 91.232c-11.056 9.984-22.896 14.528-32.448 14.128 25.248 29.664 40.48 68.128 40.48 110.224 0 93.84-75.792 169.84-169.344 169.84-93.568 0-169.344-76-169.344-169.84 0-93.76 75.808-169.84 169.344-169.84 41.904 0 80.304 15.264 109.872 40.608-0.416-9.552 4.128-21.424 14.096-32.544l90.96-107.296c15.6-17.36 40.992-18.8 56.56-3.232 15.488 15.648 14.128 41.136-3.2 56.72v0 0z" />
<glyph unicode="&#xb026;" glyph-name="system" d="M168.080 768.224c0 39.952 32.848 72.448 73.136 72.448h638.4c13.168 0 23.936 10.576 23.936 23.664s-10.672 23.664-23.92 23.664h-638.304c-66.72 0-120.976-53.728-120.976-119.664v-640.672c0-66.032 54.256-119.664 120.976-119.664h662.336v687.76h-662.336c-40.384 0-73.248 32.528-73.248 72.464zM855.808 648.544v-593.328h-614.48c-40.384 0-73.152 32.464-73.152 72.432v545.328c20.368-15.328 45.664-24.432 73.152-24.432h614.48zM408.048 175.216h339.696c13.152 0 23.808 9.872 23.808 22.016 0 12.128-10.656 22-23.808 22h-339.696c-13.184 0-23.84-9.872-23.84-22 0.112-12.144 10.768-22.016 23.84-22.016zM408.048 342.288h339.696c13.152 0 23.808 9.904 23.808 22.032 0 12.144-10.656 22-23.808 22h-339.696c-13.184 0-23.84-9.856-23.84-22 0.112-12.128 10.768-22.032 23.84-22.032zM408.048 500.784h339.696c13.152 0 23.808 9.872 23.808 22 0 12.144-10.656 22-23.808 22h-339.696c-13.184 0-23.84-9.856-23.84-22 0.112-12.128 10.768-22 23.84-22zM300.768 148.704c21.84 0 39.52 18.304 39.52 40.832 0 22.512-17.76 40.816-39.52 40.816-21.84 0-39.504-18.304-39.504-40.816 0-22.544 17.664-40.832 39.504-40.832zM879.632 793.616h-633.024c-13.168 0-23.92-10.576-23.92-23.664s10.656-23.664 23.92-23.664h633.12c13.152 0 23.936 10.576 23.936 23.664-0.096 13.072-10.784 23.664-24.032 23.664zM300.768 318.368c21.84 0 39.52 18.288 39.52 40.816s-17.76 40.832-39.52 40.832c-21.84 0-39.504-18.304-39.504-40.832-0.096-22.528 17.664-40.816 39.504-40.816zM300.768 480.672c21.84 0 39.52 18.304 39.52 40.816 0 22.528-17.76 40.832-39.52 40.832-21.84 0-39.504-18.304-39.504-40.832-0.096-22.512 17.664-40.816 39.504-40.816z" />
<glyph unicode="&#xb027;" glyph-name="project" d="M780.896 888h-537.792c-53.984-0.048-97.728-43.808-97.776-97.776v-684.448c0.048-53.984 43.808-97.728 97.776-97.776h537.776c53.984 0.048 97.712 43.792 97.776 97.776v684.448c-0.048 53.968-43.776 97.728-97.76 97.776zM609.776 839.104h97.776v-195.552l-29.36 39.088c-9.2 12.32-29.904 12.32-39.088 0l-29.328-39.088v195.552zM194.224 105.776v684.448c0.032 26.992 21.904 48.864 48.896 48.896h48.88v-782.224h-48.896c-26.976 0.048-48.848 21.904-48.88 48.88zM829.776 105.776c-0.048-26.992-21.92-48.864-48.912-48.912h-440v782.24h220v-268.88c0-13.504 10.944-24.448 24.432-24.464 7.696 0 14.976 3.632 19.584 9.792l53.776 71.68 53.776-71.68c8.096-10.8 23.424-13.008 34.208-4.912 6.192 4.608 9.808 11.872 9.792 19.584v268.88h24.448c26.992-0.032 48.848-21.904 48.896-48.896v-684.432z" />
<glyph unicode="&#xb028;" glyph-name="index" d="M323.424 594.672h-251.424v-586.672h251.424v586.672zM260.56 81.36h-125.696v439.968h125.696v-439.968zM637.712 888h-251.424v-880h251.424v880zM574.88 81.36h-125.728v733.312h125.728v-733.312zM700.576 741.328v-733.328h251.424v733.328h-251.424zM889.12 81.36h-125.696v586.64h125.696v-586.64z" />
<glyph unicode="&#xb029;" glyph-name="index-item" d="M323.424 636.576h-251.424v-502.848h251.424v502.848zM260.56 196.592h-125.696v377.12h125.696v-377.12zM637.712 888h-251.424v-754.272h251.44v754.272h-0.016zM574.864 196.592h-125.712v628.544h125.712v-628.544zM700.576 762.288v-628.56h251.424v628.56h-251.424zM889.136 196.592h-125.712v502.832h125.712v-502.832zM72 70.88h880v-62.88h-880v62.88z" />
<glyph unicode="&#xb030;" glyph-name="adding-reports" d="M629.136 472.944c0-2.096-0.192-4.048-0.672-6l-0.16-0.16c-7.76-5.84-15.216-12.144-22.016-19.12-0.832-0.16-1.664-0.16-2.592-0.16h-354.784c-14.096 0-25.28 11.184-25.28 25.44s11.168 25.44 25.28 25.44h354.784c14.256 0 25.44-11.184 25.44-25.44zM570.64 194.144h-321.728c-14.096 0-25.28 11.168-25.28 25.44 0 14.256 11.168 25.408 25.28 25.408h301.328c4.544-17.984 11.488-34.96 20.4-50.848zM557.040 371.696c-6.16-16.048-10.208-33.056-12.16-50.88h-295.968c-14.096 0-25.28 11.152-25.28 25.408 0 14.288 11.168 25.456 25.28 25.456l308.128 0.016zM754.848 508.912c8.912 0 17.808-0.48 26.4-1.776v143.376c0 56.048-45.36 101.248-101.248 101.248h-75.824v50.864h-68.192c-21.888 30.128-62.544 51.024-109.36 51.024s-86.992-20.576-109.344-51.024h-68.352v-50.864h-75.664c-56.048 0-101.264-45.2-101.264-101.248v-506.752c0-55.888 45.2-101.408 101.264-101.408h506.736c34.832 0 65.456 17.504 83.6 44.384-2.928-0.336-5.84-0.336-8.752-0.336-20.896 0-40.992 3.056-60.096 8.736-4.864-1.632-9.888-2.4-15.232-2.4h-506.912c-27.872 0-50.72 23.008-50.72 51.008v506.768c0 28.016 22.848 50.864 50.72 50.864h75.984v-101.088h354.64v101.088h75.664c28.016 0 51.008-22.848 51.008-50.864v-143.056c8.096 0.976 16.528 1.456 24.944 1.456zM553.328 650.512h-253.392v101.248h56.384c0 28.016 31.6 50.864 70.304 50.864 38.72 0 70.144-23.008 70.144-50.864h56.56v-101.248zM831.312 321.472h-48.272v48.272c0 13.296-10.704 24.144-24.16 24.144-13.28 0-23.984-10.848-23.984-24.144v-48.272h-48.272c-13.44 0-24.144-10.864-24.144-24.128 0-13.296 10.704-24.144 24.144-24.144h48.272v-48.288c0-13.264 10.704-24.128 23.984-24.128 13.456 0 24.16 10.864 24.16 24.128v48.288h48.256c13.44 0 24.144 10.848 24.144 24.144 0.016 13.264-10.688 24.128-24.128 24.128zM831.312 321.472h-48.272v48.272c0 13.296-10.704 24.144-24.16 24.144-13.28 0-23.984-10.848-23.984-24.144v-48.272h-48.272c-13.44 0-24.144-10.864-24.144-24.128 0-13.296 10.704-24.144 24.144-24.144h48.272v-48.288c0-13.264 10.704-24.128 23.984-24.128 13.456 0 24.16 10.864 24.16 24.128v48.288h48.256c13.44 0 24.144 10.848 24.144 24.144 0.016 13.264-10.688 24.128-24.128 24.128zM831.312 321.472h-48.272v48.272c0 13.296-10.704 24.144-24.16 24.144-13.28 0-23.984-10.848-23.984-24.144v-48.272h-48.272c-13.44 0-24.144-10.864-24.144-24.128 0-13.296 10.704-24.144 24.144-24.144h48.272v-48.288c0-13.264 10.704-24.128 23.984-24.128 13.456 0 24.16 10.864 24.16 24.128v48.288h48.256c13.44 0 24.144 10.848 24.144 24.144 0.016 13.264-10.688 24.128-24.128 24.128zM758.896 490.448c-106.592 0-192.944-86.528-192.944-193.104 0-106.608 86.336-193.104 192.944-193.104s193.104 86.496 193.104 193.104c0 106.576-86.496 193.104-193.104 193.104zM758.896 152.496c-79.856 0-144.656 64.8-144.656 144.848 0 79.856 64.8 144.816 144.656 144.816 80.032 0 144.832-64.976 144.832-144.816-0.016-80.048-64.8-144.848-144.832-144.848z" />
<glyph unicode="&#xb031;" glyph-name="add-tablefooter" d="M918.16 8h-812.32c-18.688 0-33.84 15.104-33.84 33.792v0 811.344c0 18.672 15.152 33.808 33.84 33.808h401.824c18.704 0 33.84-15.136 33.84-33.808s-15.12-33.792-33.84-33.792h-367.984v-743.728h744.64v369.68c0.032 18.688 15.152 33.808 33.84 33.792 18.72 0 33.84-15.12 33.84-33.792v-403.504c0-18.688-15.12-33.792-33.84-33.792v0zM782.768 336.24h-541.536c-18.688 0-33.84-15.136-33.84-33.808s15.152-33.792 33.84-33.792h541.536c18.704 0 33.84 15.136 33.824 33.792 0 18.656-15.136 33.792-33.824 33.808zM782.768 200.992h-541.536c-18.688 0-33.84-15.136-33.824-33.792 0.016-18.672 15.152-33.776 33.824-33.808h541.536c18.704 0.032 33.84 15.168 33.824 33.84 0 18.64-15.136 33.76-33.824 33.76zM745.344 507.12c-105.312 0-190.672 85.28-190.672 190.448s85.36 190.432 190.672 190.432c105.28 0 190.656-85.264 190.656-190.432s-85.376-190.448-190.656-190.448zM745.344 840.384c-78.976 0-143.008-63.952-143.008-142.816 0-78.88 64.032-142.832 143.008-142.832s143.008 63.952 143.008 142.832c-0.016 78.848-64.032 142.816-143.008 142.816zM816.848 673.76h-47.664v-47.6c0-13.168-10.656-23.824-23.824-23.824-13.136 0-23.824 10.656-23.824 23.824v47.6h-47.664c-13.152 0-23.84 10.656-23.84 23.808 0 13.12 10.688 23.792 23.84 23.792h47.664v47.616c0 13.136 10.688 23.808 23.824 23.808 13.168 0 23.824-10.656 23.824-23.808v-47.616h47.664c13.168 0 23.824-10.672 23.824-23.792 0-13.168-10.656-23.808-23.824-23.808z" />
<glyph unicode="&#xb032;" glyph-name="add-tableheader" d="M918.16 8h-812.32c-18.688 0-33.84 15.104-33.84 33.792v0 811.344c0 18.672 15.152 33.808 33.84 33.808h401.824c18.704 0 33.84-15.136 33.84-33.808s-15.12-33.792-33.84-33.792h-367.984v-743.728h744.64v369.68c0.032 18.688 15.152 33.808 33.84 33.792 18.72 0 33.84-15.12 33.84-33.792v-403.504c0-18.688-15.12-33.792-33.84-33.792v0zM493.12 751.728h-268.928c-9.28 0-16.8-15.136-16.8-33.792 0-18.672 7.52-33.808 16.8-33.808h268.928c9.296 0 16.8 15.136 16.8 33.808 0 18.64-7.52 33.776-16.8 33.792zM493.12 616.496h-268.928c-9.28 0-16.8-15.152-16.8-33.824s7.52-33.776 16.8-33.792h268.928c9.296 0 16.8 15.136 16.8 33.808s-7.52 33.808-16.8 33.808zM745.344 507.12c-105.312 0-190.672 85.28-190.672 190.448s85.36 190.432 190.672 190.432c105.28 0 190.656-85.264 190.656-190.432s-85.376-190.448-190.656-190.448zM745.344 840.384c-78.976 0-143.008-63.952-143.008-142.816 0-78.88 64.032-142.832 143.008-142.832s143.008 63.952 143.008 142.832c-0.016 78.848-64.032 142.816-143.008 142.816zM816.848 673.76h-47.664v-47.6c0-13.168-10.656-23.824-23.824-23.824-13.136 0-23.824 10.656-23.824 23.824v47.6h-47.664c-13.152 0-23.84 10.656-23.84 23.808 0 13.12 10.688 23.792 23.84 23.792h47.664v47.616c0 13.136 10.688 23.808 23.824 23.808 13.168 0 23.824-10.656 23.824-23.808v-47.616h47.664c13.168 0 23.824-10.672 23.824-23.792 0-13.168-10.656-23.808-23.824-23.808z" />
<glyph unicode="&#xb033;" glyph-name="adding-method" d="M96.72 143.44h488.432c30.672-25.392 67.664-42.96 108.064-49.76h-596.464c-13.632-0.032-24.752 11.12-24.752 24.832s11.104 24.928 24.72 24.928v0 0zM283.856 505.728c8.208 0 14.88-6.688 14.88-14.928v-293.136c0-8.24-6.672-14.912-14.88-14.912h-98.048c-8.208 0-14.88 6.672-14.88 14.912v293.184c0 8.224 6.688 14.928 14.88 14.928l98.048-0.048zM472.336 802.336c8.224 0 14.896-6.704 14.896-14.928v-589.728c0-8.24-6.672-14.912-14.896-14.912h-97.968c-8.208 0-14.864 6.672-14.864 14.912v589.728c0 8.288 6.672 14.928 14.864 14.928h97.968zM547.92 481.568v139.040c0 8.24 6.672 14.944 14.896 14.944h98c8.208 0 14.864-6.704 14.864-14.944v-54.352c-51.28-12.864-95.984-43.296-127.76-84.688v0 0zM738 115.392c-118.208 0-214.016 95.824-214.016 214.032 0 118.176 95.808 214 214.016 214 118.176 0 214-95.808 214-214 0-118.24-95.824-214.032-214-214.032zM738 489.92c-88.64 0-160.512-71.872-160.512-160.496 0-88.672 71.872-160.528 160.512-160.528s160.512 71.872 160.512 160.528c0 88.592-71.872 160.496-160.512 160.496zM818.256 302.64h-53.488v-53.504c0-14.816-11.968-26.768-26.752-26.768-14.752 0-26.752 11.952-26.752 26.768v53.504h-53.488c-14.768 0-26.768 11.952-26.768 26.752 0 14.736 12 26.72 26.768 26.72h53.488v53.504c0 14.768 12 26.768 26.752 26.768 14.784 0 26.752-11.968 26.752-26.768v-53.504h53.488c14.784 0 26.752-11.984 26.752-26.72 0-14.8-11.984-26.752-26.752-26.752z" />
<glyph unicode="&#xb034;" glyph-name="add-packet" d="M635.936 635.504h-494.816c-33.648-1.056-59.824-29.216-58.752-62.848v-470.16c-1.072-33.648 25.264-61.648 58.752-62.864h494.976c33.472 1.216 59.664 29.36 58.608 62.864v12.32c-3.504 1.536-6.848 3.024-10.208 4.576-6.4 2.896-12.48 6.256-18.4 10.048-3.52 2.128-7.008 4.256-10.368 6.544v-35.472c0.448-11.408-8.512-20.848-19.776-21.136h-496.208c-8.672 0-16.288 5.92-18.416 14.288v478.384c-0.304 11.264 8.512 20.848 19.776 21.152h494.816c11.088-0.304 19.776-9.44 19.776-20.544v-111.104c3.36 2.432 6.848 4.72 10.368 6.848 5.92 3.664 12 7.008 18.4 10.048 3.36 1.52 6.688 3.040 10.208 4.416v89.808c0 0.16 0 0.16 0 0.16 1.088 33.456-25.248 61.616-58.736 62.672zM734.256 746.32h-439.568c-11.264 0-20.384-9.136-20.384-20.544 0-11.264 9.136-20.4 20.384-20.56h440.944c11.264-0.304 20.096-9.744 19.792-21.152v-187.2c3.2 0.144 6.384 0.304 9.6 0.304v186.896c0.32 17.040-13.088 31.056-30.144 31.52h-440.192c-5.328 0.304-9.28 5.024-8.832 10.192 0 5.024 3.808 9.28 8.832 9.584l439.568-0.752c27.568-1.072 49.168-24.208 48.432-51.904v-185.84c3.344-0.304 6.528-0.608 9.856-1.056h0.464v187.648c1.056 33.648-25.264 61.808-58.752 62.864zM840.656 856.352h-440.192c-11.264 0-20.384-9.296-20.384-20.544s9.12-20.544 20.384-20.544h440.944c11.264-0.304 20.256-9.888 19.776-21.152v-319.328c3.216-1.664 6.384-3.488 9.616-5.328v328.768c0.304 17.040-13.088 31.040-30.144 31.504h-442.16c-5.024 0.304-8.992 4.416-8.992 9.44s3.968 9.28 8.992 9.584l442.16-3.344c26.624-2.592 46.576-25.264 45.792-51.888v-334.56c4.416-3.2 8.832-6.688 12.976-10.192v344.736c1.184 33.632-25.136 61.632-58.768 62.848zM886.448 793.504v-334.56c-5.008 3.808-10.192 7.312-15.664 10.512v328.768c0.304 17.040-13.088 31.040-30.144 31.504h-442.144c-5.024 0.304-8.992 4.416-8.992 9.44s3.968 9.28 8.992 9.584l442.16-3.344c26.624-2.592 46.576-25.264 45.792-51.904zM782.656 682.688v-185.84c-4.4 0.304-8.832 0.464-13.408 0.464-1.376 0-2.88 0-4.256-0.16v186.912c0.32 17.040-13.088 31.056-30.144 31.52h-440.16c-5.328 0.304-9.28 5.024-8.832 10.192 0 5.024 3.808 9.28 8.832 9.584l439.568-0.752c27.552-1.072 49.168-24.208 48.4-51.92zM909.136 798.368c0-1.664 0-3.344-0.144-4.864v-353.728c-3.056 3.040-6.256 6.080-9.616 8.976-4.128 3.504-8.528 7.008-12.96 10.192v334.56c0.768 26.64-19.168 49.312-45.792 51.888l-442.128 3.36c-5.024-0.304-8.992-4.56-8.992-9.584s3.968-9.136 8.992-9.44h442.16c17.040-0.464 30.432-14.464 30.144-31.504v-328.752c-3.216 1.824-6.416 3.648-9.616 5.328-1.056 0.464-1.984 1.072-2.88 1.52-3.040 1.52-6.256 2.896-9.44 4.272v313.52c0.448 5.168-3.040 9.888-8.224 10.96h-440.176c-16.592 0.304-29.68 14.16-29.376 30.736v0.608c0 16.288 12.944 29.84 29.376 30.144h440.192c37.744 0.144 68.352-30.448 68.48-68.192zM802.592 689.088c0-1.664 0-3.344-0.144-5.024v-189.648c-2.768 0.464-5.648 0.912-8.384 1.216-0.32 0-0.768 0.16-1.040 0.16h-0.464c-3.344 0.448-6.528 0.752-9.856 1.056v185.84c0.752 27.696-20.88 50.832-48.432 51.904l-439.584 0.768c-5.024-0.304-8.832-4.56-8.832-9.584-0.448-5.168 3.504-9.888 8.832-10.192h440.176c17.040-0.464 30.448-14.464 30.144-31.52v-186.896c-3.184 0-6.384-0.16-9.584-0.304-3.040-0.304-5.952-0.608-8.832-0.912v188.112c0.304 5.632-3.984 10.656-9.616 10.96h-442.288c-17.2 0-31.056 14-31.056 31.056 0 17.2 13.856 31.2 31.056 31.2h439.568c37.76 0 68.336-30.448 68.336-68.192zM704.416 577.68c0-1.664-0.144-3.344-0.144-5.024v-86.304c-3.2-1.056-6.384-2.288-9.6-3.504-3.504-1.36-6.848-2.896-10.192-4.416v94.224c0.752 27.696-20.864 50.832-48.56 52.048h-495.408c-28 0-50.528-22.672-50.528-50.672v-471.536c-0.768-27.552 20.848-50.848 48.4-51.888h497.568c27.696 1.040 49.312 24.352 48.56 51.888v16.896c3.344-1.552 6.688-3.040 10.192-4.576l9.6-3.648v-8.672c2.576-37.6-25.728-70.336-63.328-72.912-1.664-0.16-3.344-0.16-5.008-0.16h-494.848c-37.744-0.448-68.656 29.68-69.104 67.424 0 2 0 3.808 0.144 5.648v470.16c-2.592 37.744 25.728 70.32 63.328 73.056 1.664 0.144 3.344 0.144 5.024 0.144h495.424c37.728 0.016 68.352-30.432 68.48-68.176zM666.064 468.384v104.272c0.32 17.040-13.072 31.040-30.128 31.504h-494.816c-16.896-0.448-30.448-14.448-30-31.504v-487.792h5.488c5.328-8.528 14.448-13.696 24.496-13.696h494.816c17.040 0.432 30.432 14.464 30.128 31.36v26.912c5.936-3.792 12.032-7.152 18.432-10.048v-16.896c0.752-27.552-20.864-50.848-48.56-51.888h-497.552c-27.552 1.040-49.168 24.352-48.4 51.888v471.536c0 28 22.528 50.672 50.528 50.672h495.424c27.696-1.216 49.312-24.352 48.56-52.048v-94.224c-6.384-3.040-12.48-6.384-18.416-10.048zM645.52 453.776v118.88c0 5.472-4.096 9.888-9.584 10.352h-495.424c-5.632-0.464-10.048-5.328-9.584-10.96v-473.504c1.216-3.952 4.72-6.864 8.832-6.864h496.192c5.632 0.336 10.048 5.168 9.584 10.816v41.088c3.36-2.592 6.704-5.168 10.208-7.616 3.36-2.304 6.848-4.416 10.368-6.544v-26.944c0.304-16.88-13.088-30.912-30.144-31.36h-494.848c-10.048 0-19.184 5.184-24.496 13.68h-5.504v487.856c-0.448 17.040 13.104 31.040 30 31.504h494.816c17.040-0.448 30.432-14.448 30.128-31.504v-104.272c-3.504-2.128-6.992-4.416-10.336-6.848-1.664-1.072-3.504-2.288-5.184-3.664l-0.16-0.144c-1.648-1.2-3.184-2.416-4.864-3.952zM838.592 321.52h-45.328v45.344c0 12.48-10.048 22.688-22.688 22.688-12.48 0-22.528-10.208-22.528-22.688v-45.344h-45.328c-12.64 0-22.688-10.208-22.688-22.672 0-12.48 10.048-22.688 22.688-22.688h45.328v-45.344c0-12.464 10.048-22.672 22.528-22.672 12.64 0 22.688 10.208 22.688 22.672v45.344h45.328c12.64 0 22.688 10.208 22.688 22.688 0 12.464-10.048 22.672-22.688 22.672zM838.592 321.52h-45.328v45.344c0 12.48-10.048 22.688-22.688 22.688-12.48 0-22.528-10.208-22.528-22.688v-45.344h-45.328c-12.64 0-22.688-10.208-22.688-22.672 0-12.48 10.048-22.688 22.688-22.688h45.328v-45.344c0-12.464 10.048-22.672 22.528-22.672 12.64 0 22.688 10.208 22.688 22.672v45.344h45.328c12.64 0 22.688 10.208 22.688 22.688 0 12.464-10.048 22.672-22.688 22.672zM838.592 321.52h-45.328v45.344c0 12.48-10.048 22.688-22.688 22.688-12.48 0-22.528-10.208-22.528-22.688v-45.344h-45.328c-12.64 0-22.688-10.208-22.688-22.672 0-12.48 10.048-22.688 22.688-22.688h45.328v-45.344c0-12.464 10.048-22.672 22.528-22.672 12.64 0 22.688 10.208 22.688 22.672v45.344h45.328c12.64 0 22.688 10.208 22.688 22.688 0 12.464-10.048 22.672-22.688 22.672zM770.576 480.272c-100.144 0-181.264-81.28-181.264-181.424 0-100.16 81.12-181.424 181.264-181.424 100.16 0 181.424 81.264 181.424 181.424-0.016 100.144-81.264 181.424-181.424 181.424zM770.576 162.768c-75.040 0-135.92 60.896-135.92 136.080 0 75.024 60.88 136.048 135.92 136.048 75.168 0 136.048-61.024 136.048-136.048 0-75.184-60.88-136.080-136.048-136.080z" />
<glyph unicode="&#xb035;" glyph-name="add-directory" d="M907.712 448c0-2.128 0-4.4-0.16-6.544-16.56 15.504-35.856 28.272-56.976 37.392-15.632 185.216-171.392 331.248-360.72 331.248-199.648 0-362.096-162.432-362.096-362.096s162.432-362.096 362.096-362.096c63.216 0 122.624 16.272 174.432 44.832 15.632-10.176 32.656-18.080 50.912-23.392 3.936-1.216 8.032-2.304 12.16-3.040-67.488-46.8-149.2-74.16-237.504-74.16-230.816 0-417.856 187.056-417.856 417.856s187.040 417.856 417.856 417.856c230.8 0 417.856-187.056 417.856-417.856zM684.88 642.992h-222.88c-15.392 0-27.856-12.464-27.856-27.856s12.464-27.856 27.856-27.856h222.88c15.376 0 27.824 12.464 27.824 27.856s-12.448 27.856-27.824 27.856zM685.248 475.808c-11.392-5.616-22.16-12.144-32.192-19.744l-0.16-0.16c-7.296-5.472-14.288-11.392-20.672-17.936-5.632-5.632-11.072-11.552-15.952-17.776h-154.24c-15.504 0-27.952 12.464-27.952 27.808s12.448 27.808 27.952 27.808h223.216zM578.448 253.040h-116.4c-15.504 0-27.952 12.464-27.952 27.808s12.448 27.808 27.952 27.808h111.68c-0.16-3.792-0.304-7.616-0.304-11.408 0.016-15.168 1.664-30.080 5.024-44.208zM350.56 642.992h-55.696c-15.392 0-27.856-12.464-27.856-27.856s12.464-27.856 27.856-27.856h55.696c15.408 0 27.872 12.464 27.872 27.856s-12.464 27.856-27.872 27.856zM350.56 475.856h-55.696c-15.392 0-27.856-12.496-27.856-27.856 0-15.376 12.464-27.856 27.856-27.856h55.696c15.408 0 27.872 12.48 27.872 27.856 0 15.36-12.464 27.856-27.872 27.856zM350.56 308.72h-55.696c-15.392 0-27.856-12.48-27.856-27.856s12.464-27.872 27.856-27.872h55.696c15.408 0 27.872 12.496 27.872 27.872s-12.464 27.856-27.872 27.856zM838.8 318.688h-45.248v45.264c0 12.464-10.032 22.64-22.64 22.64-12.464 0-22.496-10.176-22.496-22.64v-45.264h-45.248c-12.624 0-22.656-10.208-22.656-22.64 0-12.448 10.032-22.64 22.656-22.64h45.248v-45.264c0-12.448 10.032-22.624 22.496-22.624 12.608 0 22.64 10.176 22.64 22.624v45.264h45.248c12.624 0 22.656 10.192 22.656 22.64 0 12.432-10.032 22.64-22.656 22.64zM838.8 318.688h-45.248v45.264c0 12.464-10.032 22.64-22.64 22.64-12.464 0-22.496-10.176-22.496-22.64v-45.264h-45.248c-12.624 0-22.656-10.208-22.656-22.64 0-12.448 10.032-22.64 22.656-22.64h45.248v-45.264c0-12.448 10.032-22.624 22.496-22.624 12.608 0 22.64 10.176 22.64 22.624v45.264h45.248c12.624 0 22.656 10.192 22.656 22.64 0 12.432-10.032 22.64-22.656 22.64zM838.8 318.688h-45.248v45.264c0 12.464-10.032 22.64-22.64 22.64-12.464 0-22.496-10.176-22.496-22.64v-45.264h-45.248c-12.624 0-22.656-10.208-22.656-22.64 0-12.448 10.032-22.64 22.656-22.64h45.248v-45.264c0-12.448 10.032-22.624 22.496-22.624 12.608 0 22.64 10.176 22.64 22.624v45.264h45.248c12.624 0 22.656 10.192 22.656 22.64 0 12.432-10.032 22.64-22.656 22.64zM770.896 477.168c-99.984 0-180.976-81.152-180.976-181.12s80.992-181.104 180.976-181.104 181.104 81.136 181.104 181.104-81.12 181.12-181.104 181.12zM770.896 160.224c-74.928 0-135.696 60.784-135.696 135.824 0 74.912 60.784 135.84 135.696 135.84 75.024 0 135.808-60.944 135.808-135.84 0.032-75.056-60.752-135.824-135.808-135.824z" />
<glyph unicode="&#xb036;" glyph-name="add-sleevetable" d="M595.216 179.536h-415.28v-53.712h469.632c-21.408 14.352-39.84 32.608-54.352 53.712zM179.936 286.976v-53.712h378.096v53.712h-378.096zM595.216 179.536h-415.28v-53.712h469.632c-21.408 14.352-39.84 32.608-54.352 53.712zM179.936 286.976v-53.712h378.096v53.712h-378.096zM179.936 286.976v-53.712h378.096v53.712h-378.096zM595.216 179.536h-415.28v-53.712h469.632c-21.408 14.352-39.84 32.608-54.352 53.712zM179.936 286.976v-53.712h378.096v53.712h-378.096zM595.216 179.536h-415.28v-53.712h469.632c-21.408 14.352-39.84 32.608-54.352 53.712zM595.216 179.536h-415.28v-53.712h469.632c-21.408 14.352-39.84 32.608-54.352 53.712zM179.936 286.976v-53.712h378.096v53.712h-378.096zM827.92 487.984v282.064h-701.888v-697.824h701.888v29.68c19.536 6.544 37.648 15.952 54.032 27.792v-57.152c0-29.84-24.208-54.048-54.032-54.048h-701.888c-29.824 0-54.032 24.208-54.032 54.048v750.912c0 29.824 24.224 54.032 54.032 54.032h701.888c29.824 0 54.032-24.208 54.032-54.032v-363.28c-16.384 11.872-34.496 21.248-54.032 27.808zM179.936 716.464v-375.92h384.512c2.048 8.896 4.704 17.504 7.808 25.76 10.32 27.936 26.72 52.8 47.488 73.232 6.56 6.72 13.728 12.8 21.232 18.432l0.16 0.144c27.792 20.944 61.408 34.832 97.76 39.040 7.808 0.944 15.952 1.408 24.064 1.408 3.728 0 7.488-0.16 11.072-0.32v218.224h-594.096zM495.248 457.216c-10-10.144-26.544-10.144-36.544 0l-90.592 89.968-90.576-89.968c-10-10.144-26.384-10.144-36.544 0-10.144 10-10.144 26.24 0 36.384l106.048 105.424c0.944 1.248 0.624 2.816 1.568 3.904 5.456 5.312 12.496 7.488 19.52 7.024 7.024 0.464 14.064-1.728 19.52-7.024 0.944-1.088 0.784-2.656 1.568-3.904l106.048-105.424c10.144-10.144 10.144-26.384-0.016-36.384zM720 635.728v-106.992c0-14.992-12.176-27.008-27.008-27.008-14.848 0-27.008 12.016-27.008 27.008v46.080l-118.384-117.616c-10-10.144-26.368-10.144-36.544 0-10.144 10-10.144 26.24 0 36.384l116.048 115.424h-15.152c-39.376 1.712-53.872 12.016-53.872 26.864 0 14.832 12.016 26.864 27.008 26.864h104.8c0.624 0.144 1.248-0.32 1.872-0.32 0.448 0.16 0.768 0.32 1.248 0.32 2.496 0 4.848-0.784 7.168-1.408 0 0 0 0 0.16 0 2.032-0.624 3.904-1.408 5.776-2.496 1.712-1.088 4.064-0.624 5.472-2.192 0.784-0.784 0.464-1.872 1.088-2.656 0.464-0.464 0.624-0.944 0.944-1.408 1.712-2.032 3.296-4.208 4.368-6.704 1.248-3.136 2.032-6.4 2.032-10-0.016-0.144-0.016-0.144-0.016-0.144zM835.648 315.072h-46.528v46.528c0 12.816-10.32 23.28-23.264 23.28-12.816 0-23.12-10.464-23.12-23.28v-46.528h-46.512c-12.976 0-23.28-10.48-23.28-23.264 0-12.8 10.32-23.264 23.28-23.264h46.512v-46.528c0-12.8 10.32-23.264 23.12-23.264 12.96 0 23.264 10.464 23.264 23.264v46.528h46.512c12.976 0 23.28 10.464 23.28 23.264 0.016 12.784-10.304 23.264-23.264 23.264zM835.648 315.072h-46.528v46.528c0 12.816-10.32 23.28-23.264 23.28-12.816 0-23.12-10.464-23.12-23.28v-46.528h-46.512c-12.976 0-23.28-10.48-23.28-23.264 0-12.8 10.32-23.264 23.28-23.264h46.512v-46.528c0-12.8 10.32-23.264 23.12-23.264 12.96 0 23.264 10.464 23.264 23.264v46.528h46.512c12.976 0 23.28 10.464 23.28 23.264 0.016 12.784-10.304 23.264-23.264 23.264zM835.648 315.072h-46.528v46.528c0 12.816-10.32 23.28-23.264 23.28-12.816 0-23.12-10.464-23.12-23.28v-46.528h-46.512c-12.976 0-23.28-10.48-23.28-23.264 0-12.8 10.32-23.264 23.28-23.264h46.512v-46.528c0-12.8 10.32-23.264 23.12-23.264 12.96 0 23.264 10.464 23.264 23.264v46.528h46.512c12.976 0 23.28 10.464 23.28 23.264 0.016 12.784-10.304 23.264-23.264 23.264zM765.84 477.984c-102.768 0-186.016-83.408-186.016-186.176s83.248-186.16 186.016-186.16 186.16 83.392 186.16 186.16-83.392 186.176-186.16 186.176zM765.84 152.208c-77.008 0-139.488 62.464-139.488 139.616 0 77.008 62.464 139.632 139.488 139.632 77.12 0 139.6-62.624 139.6-139.632 0.032-77.152-62.432-139.616-139.6-139.616z" />
<glyph unicode="&#xb037;" glyph-name="add-index" d="M72 581.328v-533.328h239.104v533.328h-239.104zM251.456 114.656h-119.648v400h119.648v-400zM909.136 714.672v-321.2c-17.040 17.2-37.44 31.328-59.808 41.152v213.376h-119.648v-200.304c-21.312-4.304-41.408-12.128-59.664-22.72v289.696h239.12zM909.136 109.136v-61.136h-239.12v29.952c13.392-7.824 27.712-14.144 42.768-18.576 17.968-5.392 36.848-8.304 56.464-8.304 2.752 0 5.488 0 8.224 0.304 51.296 2.16 97.568 23.808 131.664 57.76zM583.408 321.568c6.56 18 15.68 34.56 26.8 49.488v476.944h-239.264v-800h239.264v83.712c-5.184 6.912-9.888 13.968-14 21.504-8.368 15.056-14.928 31.184-19.184 48.24-4.112 15.968-6.256 32.72-6.256 49.92 0 7.36 0.464 14.752 1.216 21.968 1.824 16.912 5.648 33.024 11.424 48.224zM550.368 114.656h-119.632v666.688h119.632v-666.688zM838.592 272.72h-45.344v45.76c0 12.608-10.064 22.912-22.688 22.912-12.48 0-22.528-10.304-22.528-22.912v-45.76h-45.36c-12.624 0-22.672-10.304-22.672-22.896s10.048-22.88 22.672-22.88h45.36v-45.792c0-12.576 10.048-22.88 22.528-22.88 12.624 0 22.688 10.304 22.688 22.88v45.792h45.344c12.64 0 22.688 10.288 22.688 22.88s-10.048 22.896-22.688 22.896zM838.592 272.72h-45.344v45.76c0 12.608-10.064 22.912-22.688 22.912-12.48 0-22.528-10.304-22.528-22.912v-45.76h-45.36c-12.624 0-22.672-10.304-22.672-22.896s10.048-22.88 22.672-22.88h45.36v-45.792c0-12.576 10.048-22.88 22.528-22.88 12.624 0 22.688 10.304 22.688 22.88v45.792h45.344c12.64 0 22.688 10.288 22.688 22.88s-10.048 22.896-22.688 22.896zM838.592 272.72h-45.344v45.76c0 12.608-10.064 22.912-22.688 22.912-12.48 0-22.528-10.304-22.528-22.912v-45.76h-45.36c-12.624 0-22.672-10.304-22.672-22.896s10.048-22.88 22.672-22.88h45.36v-45.792c0-12.576 10.048-22.88 22.528-22.88 12.624 0 22.688 10.304 22.688 22.88v45.792h45.344c12.64 0 22.688 10.288 22.688 22.88s-10.048 22.896-22.688 22.896zM770.56 432.944c-100.16 0-181.28-82.048-181.28-183.104 0-101.072 81.12-183.088 181.28-183.088s181.44 82 181.44 183.072c0 101.072-81.28 183.12-181.44 183.12zM770.56 112.496c-75.024 0-135.92 61.456-135.92 137.328 0 75.712 60.896 137.328 135.92 137.328 75.184 0 136.064-61.616 136.064-137.328 0-75.872-60.88-137.328-136.064-137.328z" />
<glyph unicode="&#xb038;" glyph-name="add-system" d="M253.312 562.4c-21.904 0-39.52-18.4-39.52-40.8-0.16-22.56 17.616-40.96 39.52-40.96 21.76 0 39.536 18.4 39.536 40.96 0 22.4-17.776 40.8-39.536 40.8zM253.312 400c-21.904 0-39.52-18.256-39.52-40.8-0.16-22.56 17.616-40.8 39.52-40.8 21.76 0 39.536 18.24 39.536 40.8 0 22.544-17.776 40.8-39.536 40.8zM832.224 793.6h-633.136c-13.12 0-23.84-10.56-23.84-23.68 0-12.96 10.56-23.68 23.84-23.68h633.136c13.072 0 24 10.72 24 23.68-0.176 13.12-10.912 23.68-24 23.68zM253.312 230.4c-21.904 0-39.52-18.4-39.52-40.816 0-22.56 17.616-40.832 39.52-40.832 21.76 0 39.536 18.272 39.536 40.832 0 22.416-17.776 40.816-39.536 40.816zM700.224 544.8h-339.68c-13.104 0-23.84-9.76-23.84-21.92 0.176-12.16 10.896-22.080 23.84-22.080h339.68c13.232 0 23.792 9.92 23.792 22.080 0.032 12.16-10.528 21.92-23.792 21.92zM700.224 544.8h-339.68c-13.104 0-23.84-9.76-23.84-21.92 0.176-12.16 10.896-22.080 23.84-22.080h339.68c13.232 0 23.792 9.92 23.792 22.080 0.032 12.16-10.528 21.92-23.792 21.92zM253.312 562.4c-21.904 0-39.52-18.4-39.52-40.8-0.16-22.56 17.616-40.96 39.52-40.96 21.76 0 39.536 18.4 39.536 40.96 0 22.4-17.776 40.8-39.536 40.8zM253.312 400c-21.904 0-39.52-18.256-39.52-40.8-0.16-22.56 17.616-40.8 39.52-40.8 21.76 0 39.536 18.24 39.536 40.8 0 22.544-17.776 40.8-39.536 40.8zM253.312 230.4c-21.904 0-39.52-18.4-39.52-40.816 0-22.56 17.616-40.832 39.52-40.832 21.76 0 39.536 18.272 39.536 40.832 0 22.416-17.776 40.816-39.536 40.816zM700.224 544.8h-339.68c-13.104 0-23.84-9.76-23.84-21.92 0.176-12.16 10.896-22.080 23.84-22.080h339.68c13.232 0 23.792 9.92 23.792 22.080 0.032 12.16-10.528 21.92-23.792 21.92zM253.312 562.4c-21.904 0-39.52-18.4-39.52-40.8-0.16-22.56 17.616-40.96 39.52-40.96 21.76 0 39.536 18.4 39.536 40.96 0 22.4-17.776 40.8-39.536 40.8zM253.312 400c-21.904 0-39.52-18.256-39.52-40.8-0.16-22.56 17.616-40.8 39.52-40.8 21.76 0 39.536 18.24 39.536 40.8 0 22.544-17.776 40.8-39.536 40.8zM253.312 230.4c-21.904 0-39.52-18.4-39.52-40.816 0-22.56 17.616-40.832 39.52-40.832 21.76 0 39.536 18.272 39.536 40.832 0 22.416-17.776 40.816-39.536 40.816zM584.224 175.2h-223.68c-12.96 0-23.664 9.92-23.84 22.080 0 12.16 10.736 21.92 23.84 21.92h201.28c3.664-10.56 8.32-20.64 13.744-30.272 2.72-4.608 5.44-9.248 8.656-13.728zM571.872 386.4c-3.664-7.040-6.912-14.4-9.76-22.096-2.72-7.184-5.072-14.56-6.88-22.096h-194.72c-12.96 0-23.664 9.904-23.84 22.096 0 12.176 10.736 22.096 23.84 22.096h211.36zM808.336 493.44v155.2h-614.56c-27.36 0-52.8 8.96-73.12 24.32v-545.28c0-40 32.816-72.48 73.12-72.48h614.56v33.76c16.816 4.16 32.816 10.368 47.84 18.368v-99.36h-662.4c-66.72 0-120.96 53.616-120.96 119.664v640.688c0 65.92 54.24 119.68 120.96 119.68h638.4c13.088 0 23.808-10.56 23.808-23.68s-10.704-23.68-23.808-23.68h-638.4c-40.32 0-73.12-32.48-73.12-72.48 0-39.84 32.816-72.32 73.12-72.32h662.4v-220.8c-14.864 8-30.864 14.24-47.84 18.4zM831.952 311.824h-47.664v47.664c0 13.12-10.56 23.84-23.84 23.84-13.104 0-23.664-10.72-23.664-23.84v-47.664h-47.664c-13.28 0-23.824-10.736-23.824-23.824 0-13.12 10.544-23.84 23.824-23.84h47.664v-47.664c0-13.104 10.56-23.824 23.664-23.824 13.28 0 23.84 10.72 23.84 23.824v47.664h47.664c13.28 0 23.824 10.72 23.824 23.84 0 13.088-10.544 23.824-23.824 23.824zM831.952 311.824h-47.664v47.664c0 13.12-10.56 23.84-23.84 23.84-13.104 0-23.664-10.72-23.664-23.84v-47.664h-47.664c-13.28 0-23.824-10.736-23.824-23.824 0-13.12 10.544-23.84 23.824-23.84h47.664v-47.664c0-13.104 10.56-23.824 23.664-23.824 13.28 0 23.84 10.72 23.84 23.824v47.664h47.664c13.28 0 23.824 10.72 23.824 23.84 0 13.088-10.544 23.824-23.824 23.824zM831.952 311.824h-47.664v47.664c0 13.12-10.56 23.84-23.84 23.84-13.104 0-23.664-10.72-23.664-23.84v-47.664h-47.664c-13.28 0-23.824-10.736-23.824-23.824 0-13.12 10.544-23.84 23.824-23.84h47.664v-47.664c0-13.104 10.56-23.824 23.664-23.824 13.28 0 23.84 10.72 23.84 23.824v47.664h47.664c13.28 0 23.824 10.72 23.824 23.84 0 13.088-10.544 23.824-23.824 23.824zM760.432 478.72c-105.28 0-190.56-85.456-190.56-190.72 0-105.28 85.28-190.72 190.56-190.72s190.72 85.44 190.72 190.72c0 105.264-85.44 190.72-190.72 190.72zM760.432 144.976c-78.912 0-142.912 64-142.912 143.024 0 78.88 64 143.024 142.912 143.024 79.008 0 143.008-64.16 143.008-143.024 0.048-79.024-63.952-143.024-143.008-143.024z" />
<glyph unicode="&#xb039;" glyph-name="copy-report" d="M744.192 424.528h-324c-13.008 0-23.248-10.256-23.248-23.248s10.24-23.232 23.248-23.232h324c13.024 0 23.248 10.24 23.248 23.232s-10.224 23.248-23.248 23.248zM744.192 193.024h-324c-13.008 0-23.248-10.256-23.248-23.248 0-13.008 10.24-23.232 23.248-23.232h324c13.024 0 23.248 10.224 23.248 23.232s-10.224 23.248-23.248 23.248zM813.92 656.032h-69.264v46.496h-62.32c-19.968 27.44-57.152 46.48-99.936 46.48-42.752 0-79.488-18.592-99.936-46.48h-62.304v-46.496h-69.264c-51.136 0-92.528-41.376-92.528-92.496v-463.008c0-51.136 41.376-92.528 92.528-92.528h463.024c51.136 0 92.512 41.392 92.512 92.528v463.008c0 51.12-41.376 92.496-92.512 92.496zM466.672 656.032h51.6c0 25.584 28.816 46.496 64.16 46.496 35.312 0 64.16-20.928 64.16-46.496h51.6v-92.496h-231.52v92.496zM859.952 100.512c0-25.584-20.928-46.48-46.496-46.48h-463.008c-25.568 0-46.48 20.944-46.48 46.48v463.024c0 25.568 20.928 46.48 46.48 46.48h69.264v-92.512h324v92.512h69.28c25.568 0 46.464-20.928 46.464-46.48v-463.008l0.496-0.016zM744.192 308.784h-324c-13.008 0-23.248-10.24-23.248-23.248s10.24-23.216 23.248-23.216h324c13.024 0 23.248 10.224 23.248 23.216 0 13.008-10.224 23.248-23.248 23.248zM256.544 193.024h-46.48c-25.568 0-46.48 20.912-46.48 46.464v463.040c0 25.584 20.928 46.48 46.48 46.48h69.264v-92.496h138.544v46.48h-92.496v92.512h51.6c0 25.568 28.832 46.48 64.16 46.48s64.144-20.928 64.144-46.48h51.616v-48.352c7.44 1.408 15.344 1.856 23.232 1.856 7.904 0 15.808-0.448 23.248-1.856v1.856h69.264c25.568 0 46.464-20.912 46.464-46.48h23.248v-46.496h23.248v46.496c0 51.136-41.376 92.512-92.528 92.512h-69.248v46.48h-62.288c-20 27.44-57.2 46.48-99.952 46.48-42.784 0-79.504-18.592-99.952-46.48h-62.32v-46.48h-69.264c-51.12 0-92.496-41.376-92.496-92.512v-463.008c0-51.136 41.376-92.512 92.496-92.512h46.48v46.016z" />
</font>
</defs>
</svg>
