<?xml version="1.0" standalone="no"?>
<!DOCTYPE svg PUBLIC "-//W3C//DTD SVG 1.1//EN" "http://www.w3.org/Graphics/SVG/1.1/DTD/svg11.dtd" >
<!--
2013-9-30: Created.
-->
<svg>
<metadata>
Created by iconfont
</metadata>
<defs>

<font id="iconfont" horiz-adv-x="1024" >
  <font-face
    font-family="iconfont"
    font-weight="500"
    font-stretch="normal"
    units-per-em="1024"
    ascent="896"
    descent="-128"
  />
    <missing-glyph />
    
    <glyph glyph-name="disable" unicode="&#58889;" d="M682.112 218.88a17.28 17.28 0 0 0-17.376-17.312h-313.216a17.344 17.344 0 0 0-17.408 17.312v311.68c0 9.6 7.776 17.312 17.408 17.312h313.216c9.664 0 17.408-7.744 17.408-17.312v-311.68z m251.232 335.488c-23.264 54.944-56.544 104.32-98.912 146.688a459.968 459.968 0 0 1-326.336 135.2A460.096 460.096 0 0 1 181.76 701.056 459.968 459.968 0 0 1 46.592 374.72 459.968 459.968 0 0 1 181.76 48.384000000000015a460.864 460.864 0 0 1 146.688-98.912 458.656 458.656 0 0 1 179.648-36.256 458.56 458.56 0 0 1 179.648 36.256c54.944 23.264 104.288 56.544 146.688 98.912A459.968 459.968 0 0 1 969.6 374.72c0 62.304-12.192 122.72-36.256 179.648z m-270.592-545.696c-48.992-20.736-101.024-31.232-154.656-31.232s-105.664 10.496-154.624 31.232a395.584 395.584 0 0 0-126.304 85.152 396.256 396.256 0 0 0-116.352 280.928A396.448 396.448 0 0 0 227.168 655.6800000000001a395.136 395.136 0 0 0 126.304 85.12 394.88 394.88 0 0 0 154.624 31.232c53.664 0 105.664-10.496 154.624-31.232 47.296-20 89.792-48.672 126.304-85.12s65.12-79.008 85.12-126.304c20.736-48.96 31.232-100.992 31.232-154.624a396 396 0 0 0-116.352-280.928 395.424 395.424 0 0 0-126.272-85.152z"  horiz-adv-x="1024" />

    
    <glyph glyph-name="park" unicode="&#59741;" d="M72-26.687999999999988c0-16.192 13.12-29.312 29.344-29.312h381.344c16.192 0 29.312 13.12 29.312 29.312V794.656a29.344 29.344 0 0 1-29.312 29.344H101.344a29.344 29.344 0 0 1-29.344-29.344v-821.344zM336 662.656c0 16.192 13.152 29.344 29.312 29.344h29.344c16.192 0 29.312-13.12 29.312-29.344v-29.344a29.344 29.344 0 0 0-29.312-29.312h-29.344a29.344 29.344 0 0 0-29.312 29.312v29.344z m0-197.984c0 16.192 13.152 29.312 29.312 29.312h29.344c16.192 0 29.312-13.152 29.312-29.312v-31.776a29.312 29.312 0 0 0-29.312-29.312h-29.344a29.344 29.344 0 0 0-29.312 29.312v31.776z m0-197.984c0 16.192 13.152 29.312 29.312 29.312h29.344c16.192 0 29.312-13.12 29.312-29.312v-29.312a29.344 29.344 0 0 0-29.312-29.344h-29.344a29.312 29.312 0 0 0-29.312 29.344v29.312zM160 662.656c0 16.192 13.12 29.344 29.344 29.344h29.344c16.192 0 29.344-13.12 29.344-29.344v-29.344c0-16.192-13.12-29.312-29.344-29.312h-29.344A29.344 29.344 0 0 0 160 633.312v29.344z m0-197.984c0 16.192 13.12 29.312 29.344 29.312h29.344c16.192 0 29.344-13.152 29.344-29.312v-31.776c0-16.224-13.12-29.312-29.344-29.312h-29.344A29.344 29.344 0 0 0 160 432.896v31.776z m0-197.984c0 16.192 13.12 29.312 29.344 29.312h29.344c16.192 0 29.344-13.12 29.344-29.312v-29.312c0-16.192-13.12-29.344-29.344-29.344h-29.344A29.344 29.344 0 0 0 160 237.37599999999998v29.312zM585.312 405.984a29.344 29.344 0 0 1-29.312-29.312v-403.328c0-16.192 13.12-29.312 29.312-29.312h51.328c16.192 0 29.312 13.12 29.312 29.312v154.496c0 16.192 13.12 29.312 29.312 29.312h117.344c16.192 0 29.344-13.12 29.344-29.312v-154.496c0-16.192 13.12-29.312 29.312-29.312h51.328c16.192 0 29.344 13.12 29.344 29.312V376.672a29.312 29.312 0 0 1-29.344 29.312H585.28z"  horiz-adv-x="1024" />

    
    <glyph glyph-name="product-technology1" unicode="&#59707;" d="M122.272 151.32799999999997l359.264-207.328V358.688L122.272 566.0160000000001v-414.688zM542.464 358.688V-56l359.264 207.328V566.0160000000001l-359.264-207.328zM510.176 824L152.928 613.376l360.928-204.032 357.28 210.656-360.96 204z"  horiz-adv-x="1024" />

    
    <glyph glyph-name="dakaiwenjianjia" unicode="&#59017;" d="M912 4.8c0-35.2-28.8-64-64-64H48l112 526.4c0 35.2 28.8 64 64 64h736c35.2 0 64-28.8 64-64l-112-462.4zM176 579.2h720v62.4c0 35.2-28.8 64-64 64H448V763.2c0 35.2-28.8 64-64 64H64c-35.2 0-64-28.8-64-64v-758.4l112 510.4c0 35.2 28.8 64 64 64z"  horiz-adv-x="1024" />

    
    <glyph glyph-name="gengduo" unicode="&#59018;" d="M416 640c-14.4-14.4-14.4-38.4 0-54.4L617.6 384 416 182.4c-14.4-14.4-14.4-38.4 0-54.4 14.4-14.4 38.4-14.4 54.4 0l228.8 228.8c14.4 14.4 14.4 38.4 0 54.4L470.4 640c-14.4 14.4-38.4 14.4-54.4 0z m96 256C228.8 896 0 667.2 0 384s228.8-512 512-512 512 228.8 512 512S795.2 896 512 896z m4.8-966.4C265.6-70.4 62.4 132.8 62.4 384S265.6 838.4 516.8 838.4 971.2 635.2 971.2 384 768-70.4 516.8-70.4z"  horiz-adv-x="1024" />

    
    <glyph glyph-name="fangdajing" unicode="&#59019;" d="M1011.2-52.8l-224 224c62.4 76.8 100.8 174.4 100.8 280C888 697.6 688 896 443.2 896S0 697.6 0 452.8s198.4-443.2 443.2-443.2c105.6 0 204.8 38.4 280 100.8l224-224c8-8 20.8-12.8 32-12.8s22.4 4.8 32 12.8c17.6 16 17.6 44.8 0 60.8zM88 452.8c0 195.2 160 355.2 355.2 355.2s355.2-160 355.2-355.2S640 97.6 443.2 97.6 88 256 88 452.8z"  horiz-adv-x="1024" />

    
    <glyph glyph-name="keshihua" unicode="&#59020;" d="M768-89.6c-123.2 0-208 73.6-256 219.2 48 145.6 132.8 219.2 256 219.2s208-73.6 256-219.2c-48-145.6-132.8-219.2-256-219.2z m0 73.6c80 0 145.6 65.6 145.6 145.6S848 276.8 768 276.8s-145.6-65.6-145.6-145.6S688-16 768-16zM156.8 683.2V160h273.6v-176H0V857.6h1024v-291.2h-156.8v116.8H156.8zM768 57.6c-40 0-73.6 32-73.6 73.6 0 40 32 73.6 73.6 73.6s73.6-32 73.6-73.6c0-41.6-33.6-73.6-73.6-73.6zM312 353.6l-73.6 70.4 184 193.6 156.8-156.8 134.4 134.4 72-72-208-206.4-153.6 155.2-112-118.4z"  horiz-adv-x="1024" />

    
    <glyph glyph-name="pifu" unicode="&#59021;" d="M780.8 811.2h-59.2c-16 0-30.4-6.4-40-19.2-30.4-35.2-116.8-59.2-169.6-59.2s-140.8 24-169.6 59.2c-9.6 12.8-25.6 19.2-40 19.2h-59.2c-14.4 0-27.2-6.4-38.4-16L9.6 596.8c-12.8-12.8-12.8-33.6 0-46.4L128 428.8c12.8-12.8 33.6-12.8 44.8 0l3.2 3.2c4.8 4.8 11.2 1.6 11.2-4.8v-422.4c0-27.2 22.4-49.6 48-49.6H784c27.2 0 48 22.4 48 49.6V428.8c0 6.4 8 9.6 11.2 4.8l3.2-3.2c12.8-12.8 33.6-12.8 44.8 0l118.4 121.6c12.8 12.8 12.8 33.6 0 46.4L819.2 795.2c-9.6 9.6-24 16-38.4 16z"  horiz-adv-x="1024" />

    
    <glyph glyph-name="meiritianbaojiankong" unicode="&#59022;" d="M934.4 862.4H89.6C40 862.4 0 822.4 0 772.8v-624c0-49.6 40-89.6 89.6-89.6h379.2v-67.2h-176c-22.4 0-41.6-16-46.4-38.4-4.8-28.8 17.6-51.2 44.8-51.2h443.2c22.4 0 41.6 16 46.4 38.4 4.8 28.8-17.6 51.2-44.8 51.2H556.8v67.2h379.2c49.6 0 89.6 40 89.6 89.6v624c-1.6 49.6-41.6 89.6-91.2 89.6z m-132.8-444.8h-147.2l-51.2-152c-4.8-12.8-22.4-16-30.4-4.8l-160 222.4-20.8-51.2c-1.6-9.6-11.2-12.8-20.8-12.8H203.2c-22.4 0-41.6 16-46.4 38.4-4.8 28.8 17.6 51.2 44.8 51.2h124.8l51.2 129.6c4.8 12.8 22.4 16 30.4 4.8l155.2-214.4 22.4 67.2c3.2 9.6 11.2 16 20.8 16h192c22.4 0 41.6-16 46.4-38.4 6.4-33.6-14.4-56-43.2-56z"  horiz-adv-x="1025" />

    
    <glyph glyph-name="pingjunzhi" unicode="&#59023;" d="M840 158.4H1024v-96H840v96z m-836.8 0h184v-96H3.2v96zM185.6 270.4h654.4v-320H185.6v320zM0 638.4h121.6v-96H0v96z m902.4 0H1024v-96h-121.6v96zM814.4 716.8V464H211.2V716.8h603.2m88 100.8H123.2v-456h779.2V817.6z"  horiz-adv-x="1024" />

    
    <glyph glyph-name="renwuxiangqing" unicode="&#59025;" d="M867.2 896H156.8C70.4 896 0 825.6 0 739.2v-708.8C0-57.6 70.4-128 156.8-128h708.8c86.4 0 156.8 70.4 156.8 156.8V739.2C1024 825.6 953.6 896 867.2 896z m-592-787.2c-22.4 0-40 17.6-40 40s17.6 40 40 40 40-17.6 40-40-17.6-40-40-40z m0 235.2c-22.4 0-40 17.6-40 40s17.6 40 40 40 40-17.6 40-40-17.6-40-40-40z m0 236.8c-22.4 0-40 17.6-40 40s17.6 40 40 40 40-17.6 40-40-17.6-40-40-40z m473.6-472H433.6c-22.4 0-40 17.6-40 40s17.6 40 40 40h315.2c22.4 0 40-17.6 40-40s-19.2-40-40-40z m0 235.2H433.6c-22.4 0-40 17.6-40 40s17.6 40 40 40h315.2c22.4 0 40-17.6 40-40-1.6-22.4-19.2-40-40-40z m0 236.8H433.6c-22.4 0-40 17.6-40 40s17.6 40 40 40h315.2c22.4 0 40-17.6 40-40-1.6-22.4-19.2-40-40-40z"  horiz-adv-x="1024" />

    
    <glyph glyph-name="shangjiantou" unicode="&#59026;" d="M0 171.2l512 512 84.8-84.8-512-512L0 171.2z m939.2-86.4l-512 512 84.8 84.8 512-512-84.8-84.8z"  horiz-adv-x="1024" />

    
    <glyph glyph-name="shangjiantou1" unicode="&#59027;" d="M0 128l512 512 512-512H0z"  horiz-adv-x="1024" />

    
    <glyph glyph-name="gongzuoku" unicode="&#59028;" d="M993.6 556.8L830.4 393.6c-40-40-105.6-40-145.6 0L521.6 556.8c-40 40-40 105.6 0 145.6L684.8 865.6c40 40 105.6 40 145.6 0l163.2-163.2c40-40 40-105.6 0-145.6zM334.4-128H102.4C46.4-128 0-81.6 0-25.6V206.4c0 56 46.4 102.4 102.4 102.4h230.4c56 0 102.4-46.4 102.4-102.4v-230.4c1.6-57.6-44.8-104-100.8-104z m0 539.2H102.4c-56 0-102.4 46.4-102.4 102.4V745.6C0 801.6 46.4 848 102.4 848h230.4c56 0 102.4-46.4 102.4-102.4v-230.4c1.6-57.6-44.8-104-100.8-104z m307.2-102.4h230.4c56 0 102.4-46.4 102.4-102.4v-230.4c0-56-46.4-102.4-102.4-102.4H641.6c-56 0-102.4 46.4-102.4 102.4V206.4c0 56 46.4 102.4 102.4 102.4z"  horiz-adv-x="1024" />

    
    <glyph glyph-name="jishuzhi" unicode="&#59029;" d="M205.1168-76.8v110.4c80 28.8 121.6 115.2 94.4 195.2-16 43.2-49.6 78.4-94.4 94.4V843.2c0 28.8-22.4 51.2-51.2 51.2C126.7168 896 102.7168 873.6 102.7168 844.8v-520C22.7168 296-18.8832 208 8.3168 128c16-43.2 49.6-78.4 94.4-94.4v-110.4c0-28.8 22.4-51.2 51.2-51.2s51.2 22.4 51.2 51.2z m-102.4 256c0 28.8 22.4 51.2 51.2 51.2s51.2-22.4 51.2-51.2S182.7168 128 153.9168 128c-27.2 0-51.2 22.4-51.2 51.2zM461.1168 844.8v-112c-80-28.8-121.6-116.8-91.2-196.8 16-43.2 49.6-76.8 91.2-91.2v-521.6c0-28.8 22.4-51.2 51.2-51.2 28.8 0 51.2 22.4 51.2 51.2V444.8c80 28.8 121.6 116.8 91.2 196.8-16 43.2-49.6 76.8-91.2 91.2v112C563.5168 873.6 541.1168 896 512.3168 896s-51.2-22.4-51.2-51.2z m102.4-256c0-28.8-22.4-51.2-51.2-51.2s-51.2 22.4-51.2 51.2c0 28.8 22.4 51.2 51.2 51.2 28.8 0 51.2-22.4 51.2-51.2z m256 256v-521.6c-80-28.8-121.6-116.8-92.8-196.8 16-43.2 49.6-76.8 92.8-92.8v-110.4c0-28.8 22.4-51.2 51.2-51.2s51.2 22.4 51.2 51.2v110.4c80 28.8 121.6 116.8 92.8 196.8-16 43.2-49.6 76.8-92.8 92.8V844.8c0 28.8-22.4 51.2-51.2 51.2-27.2 0-51.2-22.4-51.2-51.2z m102.4-665.6c0-28.8-22.4-51.2-51.2-51.2s-51.2 22.4-51.2 51.2 22.4 51.2 51.2 51.2 51.2-22.4 51.2-51.2z"  horiz-adv-x="1024" />

    
    <glyph glyph-name="shouqi" unicode="&#59030;" d="M971.2712 198.4H377.6712c-28.8 0-52.8 25.6-52.8 56s24 56 52.8 56h593.6c28.8 0 52.8-25.6 52.8-56 0-32-24-56-52.8-56z m0 260.8H377.6712c-28.8 0-52.8 25.6-52.8 56s24 56 52.8 56h593.6c28.8 0 52.8-25.6 52.8-56s-24-56-52.8-56z m-3.2 251.2H59.2712C28.8712 710.4 1.6712 734.4 0.0712 764.8c-1.6 32 24 57.6 56 57.6h908.8c30.4 0 57.6-24 59.2-54.4 1.6-32-24-57.6-56-57.6z m-708.8-512V569.6L0.0712 384l259.2-185.6zM56.0712 57.6h908.8c30.4 0 57.6-24 59.2-54.4 1.6-32-24-57.6-56-57.6H59.2712C28.8712-54.4 1.6712-30.4 0.0712 0c-1.6 32 24 57.6 56 57.6z"  horiz-adv-x="1024" />

    
    <glyph glyph-name="shujucuibaotongji" unicode="&#59031;" d="M878.4 896H145.6C65.6 896 0 830.4 0 750.4v-731.2c0-80 65.6-145.6 145.6-145.6h731.2c80 0 145.6 65.6 145.6 145.6V750.4c1.6 80-64 145.6-144 145.6zM292.8 54.4c0-20.8-16-36.8-36.8-36.8h-73.6c-20.8 0-36.8 16-36.8 36.8V420.8c0 20.8 16 36.8 36.8 36.8H256c20.8 0 36.8-16 36.8-36.8v-366.4z m292.8 0c0-20.8-16-36.8-36.8-36.8h-73.6c-20.8 0-36.8 16-36.8 36.8v512c0 20.8 16 36.8 36.8 36.8h73.6c20.8 0 36.8-16 36.8-36.8v-512z m292.8 0c0-20.8-16-36.8-36.8-36.8H768c-20.8 0-36.8 16-36.8 36.8V494.4c0 20.8 16 36.8 36.8 36.8h73.6c20.8 0 36.8-16 36.8-36.8v-440z"  horiz-adv-x="1024" />

    
    <glyph glyph-name="tianbaoqingkuangtongji" unicode="&#59032;" d="M440 312h438.4c-3.2-123.2-46.4-225.6-129.6-308.8s-187.2-128-308.8-131.2c-123.2 3.2-225.6 46.4-308.8 129.6S3.2 188.8 0 312c3.2 123.2 46.4 225.6 129.6 308.8s185.6 126.4 308.8 129.6c1.6-1.6 1.6-438.4 1.6-438.4zM894.4 766.4c83.2-83.2 126.4-185.6 129.6-308.8H584V896c123.2-3.2 227.2-46.4 310.4-129.6z"  horiz-adv-x="1024" />

    
    <glyph glyph-name="shujushenhetongji" unicode="&#59033;" d="M128 254.4c-17.6 0-33.6 3.2-49.6 9.6s-28.8 16-41.6 27.2C25.6 304 16 316.8 9.6 332.8c-6.4 16-9.6 32-9.6 49.6S3.2 416 9.6 432c6.4 16 16 28.8 27.2 40s25.6 20.8 41.6 27.2c19.2 8 40 11.2 60.8 9.6h9.6l177.6 214.4c-3.2 6.4-4.8 12.8-6.4 19.2-1.6 8-1.6 14.4-1.6 22.4-1.6 19.2 1.6 35.2 8 51.2s16 28.8 27.2 41.6c11.2 11.2 25.6 20.8 41.6 27.2s32 9.6 49.6 9.6 33.6-3.2 49.6-9.6c16-6.4 28.8-16 41.6-27.2S556.8 832 563.2 816c6.4-16 9.6-32 9.6-49.6 0-14.4-1.6-28.8-6.4-41.6-4.8-12.8-11.2-25.6-19.2-36.8l153.6-344 88 156.8c-6.4 9.6-12.8 22.4-16 33.6s-6.4 25.6-6.4 40c0 17.6 3.2 33.6 9.6 49.6 6.4 16 16 28.8 27.2 41.6 11.2 11.2 25.6 20.8 41.6 27.2 16 6.4 32 9.6 49.6 9.6s33.6-3.2 49.6-9.6c16-6.4 28.8-16 41.6-27.2 24-24 38.4-56 38.4-91.2 0-17.6-3.2-35.2-9.6-51.2-6.4-16-16-28.8-27.2-41.6-11.2-11.2-25.6-20.8-41.6-27.2-16-6.4-32-9.6-49.6-9.6h-22.4L787.2 288c12.8-12.8 24-25.6 32-43.2 8-16 11.2-33.6 11.2-52.8 0-17.6-3.2-33.6-9.6-49.6-6.4-16-16-28.8-27.2-41.6-11.2-11.2-25.6-20.8-41.6-27.2-16-6.4-32-9.6-51.2-9.6-17.6 0-35.2 3.2-51.2 9.6-16 6.4-28.8 16-40 27.2s-20.8 25.6-27.2 41.6-9.6 32-9.6 49.6c0 19.2 3.2 36.8 11.2 52.8s17.6 30.4 32 43.2l-156.8 350.4c-4.8-1.6-9.6-1.6-14.4-1.6-9.6 0-19.2 1.6-27.2 3.2s-17.6 4.8-25.6 9.6l-155.2-196.8c6.4-9.6 11.2-20.8 14.4-33.6 3.2-11.2 4.8-24 4.8-36.8 0-33.6-12.8-67.2-38.4-91.2-11.2-11.2-25.6-20.8-41.6-27.2s-30.4-9.6-48-9.6zM0-3.2h1024v-123.2H0v123.2z"  horiz-adv-x="1024" />

    
    <glyph glyph-name="tishi" unicode="&#59034;" d="M512-128C228.8-128 0 100.8 0 384S228.8 896 512 896s512-228.8 512-512-228.8-512-512-512z m-54.4 537.6c-3.2-12.8-6.4-24-12.8-49.6s-11.2-46.4-14.4-62.4c-8-32-14.4-60.8-19.2-86.4-3.2-14.4 1.6-30.4 11.2-41.6 8-9.6 19.2-16 32-16 4.8 0 11.2 1.6 16 3.2 24 9.6 46.4 22.4 68.8 36.8l9.6 6.4 19.2 14.4 4.8 3.2h4.8l8 4.8 4.8 3.2v4.8l-9.6 12.8v4.8l-4.8 9.6-3.2 6.4h-6.4l-9.6-4.8-9.6-6.4-8-4.8-16-11.2-11.2-3.2c4.8 24 8 33.6 11.2 46.4 3.2 12.8 4.8 19.2 6.4 28.8V320c4.8 22.4 11.2 43.2 17.6 64l8 28.8v9.6l4.8 17.6c3.2 12.8 3.2 25.6 0 38.4-1.6 12.8-9.6 22.4-20.8 27.2-9.6 4.8-20.8 4.8-30.4 0-11.2-4.8-22.4-11.2-32-17.6-14.4-9.6-25.6-17.6-54.4-40l-22.4-12.8-12.8-9.6-8-6.4-4.8-6.4 3.2-6.4 4.8-8v-4.8l6.4-9.6 4.8-6.4 11.2 6.4 9.6 6.4 14.4 9.6 25.6 12.8v4.8-9.6c1.6 0 3.2 1.6 3.2 1.6zM454.4 624c-1.6-12.8 3.2-25.6 12.8-35.2 12.8-12.8 30.4-19.2 48-17.6 14.4 0 28.8 6.4 41.6 14.4 20.8 14.4 28.8 41.6 19.2 64-8 16-22.4 25.6-38.4 28.8h-16c-6.4 1.6-14.4 1.6-20.8 0-24-8-41.6-28.8-43.2-54.4h-3.2z"  horiz-adv-x="1024" />

    
    <glyph glyph-name="wenjianjia" unicode="&#59035;" d="M931.2 686.4H544l-32 46.4c-33.6 60.8-41.6 92.8-92.8 92.8H92.8C41.6 827.2 0 785.6 0 734.4v-699.2c0-51.2 41.6-92.8 92.8-92.8h838.4c51.2 0 92.8 41.6 92.8 92.8v560c0 49.6-41.6 91.2-92.8 91.2z"  horiz-adv-x="1024" />

    
    <glyph glyph-name="xiajiantou" unicode="&#59036;" d="M84.8 683.2l512-512-84.8-86.4-512 512 84.8 86.4zM1024 596.8l-512-512-84.8 84.8 512 512 84.8-84.8z"  horiz-adv-x="1024" />

    
    <glyph glyph-name="tianbao" unicode="&#59037;" d="M920 736L612.8 436.8h-6.4l-104 104v6.4L835.2 881.6c6.4 6.4 0 14.4-6.4 14.4H201.6C145.6 896 97.6 848 97.6 792v-814.4c0-56 48-104 104-104h619.2c56 0 104 48 104 104v752c1.6 6.4-4.8 12.8-4.8 6.4zM467.2 499.2c0 6.4 6.4 6.4 14.4 6.4l91.2-91.2c6.4-6.4 0-14.4-6.4-14.4l-104-14.4c-6.4 0-6.4 0-6.4 6.4-3.2 3.2 11.2 107.2 11.2 107.2zM508.8 32H230.4c-20.8 0-35.2 14.4-35.2 35.2 0 20.8 14.4 35.2 35.2 35.2h278.4c20.8 0 35.2-14.4 35.2-35.2 0-14.4-20.8-35.2-35.2-35.2zM752 200H222.4c-20.8 0-35.2 14.4-35.2 35.2 0 20.8 14.4 35.2 35.2 35.2H752c20.8 0 35.2-14.4 35.2-35.2 0-22.4-14.4-35.2-35.2-35.2z"  horiz-adv-x="1024" />

    
    <glyph glyph-name="yonghuming" unicode="&#59038;" d="M939.2 48c0-48-14.4-89.6-41.6-124.8S835.2-128 796.8-128H227.2c-38.4 0-72 17.6-100.8 51.2C99.2-41.6 84.8 0 84.8 48c0 38.4 1.6 73.6 6.4 107.2 3.2 33.6 11.2 67.2 20.8 100.8 9.6 33.6 24 62.4 38.4 88s36.8 44.8 62.4 59.2 56 22.4 89.6 22.4c57.6-57.6 128-84.8 208-84.8s150.4 28.8 208 84.8c33.6 0 64-8 89.6-22.4 25.6-16 46.4-35.2 62.4-59.2s28.8-52.8 38.4-88c9.6-33.6 17.6-67.2 20.8-100.8 8-33.6 9.6-68.8 9.6-107.2zM692.8 820.8C742.4 771.2 768 710.4 768 640s-25.6-131.2-75.2-180.8C643.2 409.6 582.4 384 512 384s-131.2 25.6-180.8 75.2S256 569.6 256 640s25.6 131.2 75.2 180.8S441.6 896 512 896s131.2-25.6 180.8-75.2z"  horiz-adv-x="1024" />

    
    <glyph glyph-name="zhankai" unicode="&#59039;" d="M971.2712 198.4H377.6712c-28.8 0-52.8 25.6-52.8 56s24 56 52.8 56h593.6c28.8 0 52.8-25.6 52.8-56 0-32-24-56-52.8-56z m0 260.8H377.6712c-28.8 0-52.8 25.6-52.8 56s24 56 52.8 56h593.6c28.8 0 52.8-25.6 52.8-56s-24-56-52.8-56z m-3.2 251.2H59.2712C28.8712 710.4 1.6712 734.4 0.0712 764.8c-1.6 32 24 57.6 56 57.6h908.8c30.4 0 57.6-24 59.2-54.4 1.6-32-24-57.6-56-57.6zM0.0712 198.4V569.6L259.2712 384 0.0712 198.4z m56-140.8h908.8c30.4 0 57.6-24 59.2-54.4 1.6-32-24-57.6-56-57.6H59.2712C28.8712-54.4 1.6712-30.4 0.0712 0c-1.6 32 24 57.6 56 57.6z"  horiz-adv-x="1024" />

    
    <glyph glyph-name="xitong" unicode="&#59040;" d="M555.2 896h-86.4c-17.6 0-32-12.8-35.2-28.8l-22.4-112c-3.2-12.8-11.2-22.4-24-27.2-9.6-3.2-20.8-8-30.4-12.8-4.8-1.6-9.6-3.2-16-3.2-8 0-14.4 1.6-20.8 6.4l-94.4 62.4c-14.4 9.6-33.6 8-46.4-4.8l-60.8-60.8c-12.8-12.8-14.4-32-4.8-46.4l62.4-94.4c6.4-11.2 8-24 3.2-35.2-4.8-9.6-8-19.2-12.8-30.4-4.8-12.8-14.4-20.8-27.2-24l-112-22.4c-14.4-3.2-27.2-17.6-27.2-35.2v-86.4c0-17.6 12.8-32 28.8-35.2l112-22.4c12.8-3.2 22.4-11.2 27.2-24 3.2-9.6 8-20.8 12.8-30.4 4.8-11.2 4.8-25.6-3.2-35.2l-62.4-94.4c-9.6-14.4-8-33.6 4.8-46.4l60.8-60.8c12.8-12.8 32-14.4 46.4-4.8l94.4 62.4c6.4 3.2 12.8 6.4 20.8 6.4 4.8 0 11.2-1.6 16-3.2 9.6-4.8 19.2-8 30.4-12.8 12.8-4.8 20.8-14.4 24-27.2l22.4-112c3.2-17.6 19.2-28.8 35.2-28.8h86.4c17.6 0 32 12.8 35.2 28.8l22.4 112c3.2 12.8 11.2 22.4 24 27.2 9.6 3.2 20.8 8 30.4 12.8 4.8 1.6 9.6 3.2 16 3.2 8 0 14.4-1.6 20.8-6.4l94.4-62.4c14.4-9.6 33.6-8 46.4 4.8l60.8 60.8c12.8 12.8 14.4 32 4.8 46.4l-62.4 94.4c-6.4 11.2-8 24-3.2 35.2 4.8 9.6 8 19.2 12.8 30.4 4.8 12.8 14.4 20.8 27.2 24l112 22.4c17.6 3.2 28.8 19.2 28.8 35.2v86.4c0 17.6-12.8 32-28.8 35.2l-112 22.4c-12.8 3.2-22.4 11.2-27.2 24-3.2 9.6-8 20.8-12.8 30.4-4.8 11.2-4.8 25.6 3.2 35.2l62.4 94.4c9.6 14.4 8 33.6-4.8 46.4l-60.8 60.8c-12.8 12.8-32 14.4-46.4 4.8l-94.4-62.4c-6.4-3.2-12.8-6.4-20.8-6.4-4.8 0-11.2 1.6-16 3.2-9.6 4.8-19.2 8-30.4 12.8-12.8 4.8-20.8 14.4-24 27.2l-22.4 112C587.2 883.2 572.8 896 555.2 896zM512 164.8c-121.6 0-219.2 97.6-219.2 219.2S390.4 603.2 512 603.2 731.2 505.6 731.2 384c0-57.6-22.4-113.6-64-155.2-41.6-41.6-97.6-64-155.2-64z"  horiz-adv-x="1027" />

    
    <glyph glyph-name="tuichu" unicode="&#59041;" d="M584 225.6H281.6c-14.4 0-24 6.4-25.6 19.2v8 260.8c0 16 9.6 25.6 25.6 25.6h304v8V779.2c0 11.2 4.8 19.2 14.4 22.4 9.6 3.2 19.2 1.6 25.6-6.4 4.8-4.8 9.6-8 12.8-12.8 56-54.4 110.4-110.4 166.4-164.8l212.8-212.8c11.2-11.2 11.2-24 0-35.2l-304-304-86.4-86.4c-8-8-16-11.2-25.6-6.4-9.6 3.2-14.4 11.2-14.4 24v224c-3.2-1.6-3.2 1.6-3.2 4.8zM401.6 796.8v-88H171.2c-46.4 0-81.6-35.2-81.6-81.6v-489.6c0-43.2 32-73.6 62.4-80 6.4-1.6 14.4-1.6 20.8-1.6h228.8v-86.4H163.2c-76.8 1.6-144 59.2-158.4 134.4-3.2 8-4.8 19.2-4.8 30.4V628.8c0 68.8 35.2 118.4 94.4 150.4 20.8 11.2 44.8 16 68.8 16h233.6c0 1.6 1.6 1.6 4.8 1.6z"  horiz-adv-x="1027" />

    
    <glyph glyph-name="xiajiantou1" unicode="&#59042;" d="M1024 640L512 128 0 640h1024z"  horiz-adv-x="1024" />

    
    <glyph glyph-name="zuixiaozhi" unicode="&#59043;" d="M937.6 132.8c12.8-24 19.2-52.8 19.2-81.6 0-99.2-80-179.2-179.2-179.2s-179.2 80-179.2 179.2c0 64 33.6 120 84.8 152L568 544h-9.6c-36.8 0-72 11.2-100.8 32l-128-115.2c6.4-16 9.6-32 9.6-49.6 0-75.2-60.8-136-136-136S67.2 336 67.2 409.6s60.8 136 136 136c24 0 46.4-6.4 65.6-16l129.6 116.8c-11.2 22.4-16 48-16 73.6 0 97.6 78.4 176 176 176s176-78.4 176-176c0-60.8-32-115.2-78.4-147.2l115.2-342.4h8c36.8 0 62.4-12.8 76.8-20.8 33.6-16 54.4-38.4 67.2-52.8l14.4-24z m-161.6 3.2c-48 0-88-40-88-88s40-88 88-88S864 0 864 48s-38.4 88-88 88z"  horiz-adv-x="1024" />

    
    <glyph glyph-name="zuidazhi" unicode="&#59044;" d="M937.6 635.2c12.8 24 19.2 52.8 19.2 81.6C956.8 816 876.8 896 777.6 896S598.4 816 598.4 716.8c0-64 33.6-120 84.8-152L568 224h-9.6c-36.8 0-72-11.2-100.8-32l-128 115.2c6.4 16 9.6 32 9.6 49.6 0 75.2-60.8 136-136 136S67.2 432 67.2 358.4s60.8-136 136-136c24 0 46.4 6.4 65.6 16l129.6-116.8c-11.2-22.4-16-48-16-73.6 0-97.6 78.4-176 176-176s176 78.4 176 176c0 60.8-32 115.2-78.4 147.2l115.2 342.4h8c36.8 0 62.4 12.8 76.8 20.8 33.6 16 54.4 38.4 67.2 52.8l14.4 24z m-161.6-3.2c-48 0-88 40-88 88s40 88 88 88S864 768 864 720s-38.4-88-88-88z"  horiz-adv-x="1024" />

    
    <glyph glyph-name="zhongzhi" unicode="&#59045;" d="M985.6 571.2c-24 57.6-59.2 108.8-102.4 152-44.8 44.8-96 78.4-152 102.4C672 851.2 609.6 864 544 864v-92.8c212.8 0 387.2-172.8 387.2-387.2S756.8-3.2 544-3.2 156.8 171.2 156.8 384c0 40 6.4 80 19.2 118.4l88-48-3.2 150.4-3.2 150.4L128 676.8l-128-76.8 92.8-51.2C73.6 496 64 440 64 384c0-64 12.8-128 38.4-187.2 24-57.6 59.2-108.8 102.4-152 44.8-44.8 96-78.4 152-102.4C416-83.2 480-96 544-96s128 12.8 187.2 38.4c57.6 24 108.8 59.2 152 102.4 44.8 44.8 78.4 96 102.4 152C1011.2 256 1024 320 1024 384s-12.8 128-38.4 187.2z"  horiz-adv-x="1024" />

    
    <glyph glyph-name="zhidubiaozhun" unicode="&#59046;" d="M358.4 820.8c-28.8 0-56-6.4-78.4-19.2-11.2-6.4-20.8-14.4-27.2-25.6-8-9.6-12.8-22.4-12.8-36.8v-328c-132.8 0-240-107.2-240-240 0-118.4 86.4-217.6 198.4-236.8L152 281.6c-1.6 8 4.8 14.4 11.2 16 8 1.6 14.4-4.8 16-11.2l48-355.2h14.4c49.6 0 94.4 14.4 132.8 40l540.8-40v99.2l110.4 4.8V838.4L358.4 820.8zM224 137.6l-19.2 147.2c64 0 126.4-36.8 192 11.2-16-52.8-25.6-62.4-44.8-99.2 27.2-28.8 40-36.8 64-49.6-65.6-44.8-128-9.6-192-9.6z m464 163.2l-230.4 17.6 4.8 64 230.4-17.6-4.8-64z m102.4 153.6l-398.4 30.4 4.8 64 398.4-30.4-4.8-64z m172.8-366.4l-49.6-1.6V673.6l-553.6 41.6h-1.6c-19.2 0-36.8 4.8-46.4 11.2-4.8 3.2-8 6.4-9.6 8-1.6 3.2-1.6 3.2-1.6 4.8 0 1.6 0 1.6 1.6 4.8 1.6 3.2 8 9.6 19.2 12.8 9.6 4.8 22.4 6.4 36.8 6.4l604.8 16v-691.2z"  horiz-adv-x="1025" />

    
    <glyph glyph-name="quxiaoguanlian" unicode="&#59048;" d="M57.6 896L1024-70.4 966.4-128 0 838.4 57.6 896z m88-659.2H72V651.2l73.6-73.6v-340.8zM145.6 310.4h73.6v-73.6H145.6v73.6z m219.2-366.4h-73.6V432l73.6-73.6v-414.4zM779.2-56H364.8v73.6h340.8l73.6-73.6z m-48 804.8H316.8l-73.6 73.6h488v-73.6z m0-414.4l-73.6 73.6V748.8h73.6v-414.4z m72 195.2h147.2v-73.6h-147.2v73.6z m147.2-414.4l-73.6 73.6V456h73.6v-340.8z"  horiz-adv-x="1024" />

    
    <glyph glyph-name="relation-grouping" unicode="&#59049;" d="M827.2 668.8v-169.6l-12.8-11.2-12.8-11.2-35.2-28.8-12.8-11.2V668.8c0 6.4-6.4 12.8-12.8 12.8H195.2c-19.2 0-36.8 17.6-36.8 38.4 0 20.8 16 38.4 36.8 38.4h545.6c48 1.6 86.4-40 86.4-89.6z m-25.6 0v-190.4l-22.4-19.2V668.8c0 20.8-16 40-36.8 40H195.2c-6.4 0-11.2 6.4-11.2 12.8s4.8 12.8 11.2 12.8h545.6c33.6-1.6 60.8-30.4 60.8-65.6z m155.2 136v-193.6l-72-62.4V806.4c0 6.4-6.4 12.8-12.8 12.8H324.8C304 819.2 288 836.8 288 857.6 288 878.4 304 896 324.8 896h545.6c48 0 86.4-40 86.4-91.2z m-25.6 0v-216l-22.4-19.2V806.4c0 20.8-16 40-36.8 40H324.8c-6.4 0-11.2 6.4-11.2 12.8s4.8 12.8 11.2 12.8h545.6c33.6-1.6 60.8-30.4 60.8-67.2z m11.2-432c-8 8-14.4 14.4-22.4 20.8-38.4 32-75.2 46.4-113.6 8L723.2 320c-11.2-11.2-20.8-24-25.6-40-9.6-25.6-9.6-52.8-1.6-80l163.2 163.2 73.6-73.6-11.2-11.2-150.4-150.4c41.6-14.4 88-3.2 120 27.2l83.2 81.6c16 16 22.4 32 22.4 48-3.2 28.8-25.6 59.2-54.4 88zM736 92.8L577.6-64l-28.8 28.8-44.8 43.2 155.2 155.2c-12.8 3.2-25.6 4.8-36.8 4.8-27.2-1.6-54.4-11.2-73.6-30.4-1.6 0-1.6-1.6-1.6-1.6l-81.6-80c-33.6-32-25.6-65.6-3.2-97.6 8-11.2 19.2-24 32-35.2 28.8-28.8 57.6-51.2 86.4-51.2 14.4 0 28.8 4.8 43.2 17.6l4.8 4.8 81.6 80c28.8 32 40 78.4 25.6 118.4z m76.8 131.2c-12.8 12.8-28.8 19.2-41.6 16l-9.6-4.8-115.2-115.2c-11.2-11.2-1.6-27.2 16-44.8 17.6-16 9.6-6.4 20.8 4.8l14.4 14.4 89.6 89.6c11.2 9.6 43.2 24 25.6 40z m-121.6 364.8V384l-4.8-4.8-60.8-52.8V520c0 20.8-14.4 38.4-32 38.4H128c-17.6 0-32-17.6-32-38.4v-454.4c0-20.8 14.4-38.4 32-38.4h152l-76.8-65.6H64c-19.2 0-33.6 16-33.6 36.8V588.8C30.4 608 44.8 624 64 624h593.6c19.2 0 33.6-16 33.6-35.2z"  horiz-adv-x="1024" />

    
    <glyph glyph-name="quote" unicode="&#59050;" d="M780.711703 127.915908h-511.831815c-17.594219 0-31.989488-14.39527-31.989489-31.989489s14.39527-31.989488 31.989489-31.989488h511.831815c17.594219 0 31.989488 14.39527 31.989488 31.989488s-14.39527 31.989488-31.989488 31.989489z m0 191.93693h-351.884373c-17.594219 0-31.989488-14.39527-31.989488-31.989488s14.39527-31.989488 31.989488-31.989489h351.884373c17.594219 1.599474 31.989488 15.994744 30.390014 33.588963-1.599474 15.994744-14.39527 30.390014-30.390014 30.390014z m0 191.936931h-159.947442c-17.594219 0-31.989488-12.795795-33.588963-30.390014 0-17.594219 12.795795-31.989488 30.390014-33.588963h161.546917c17.594219 0 31.989488 14.39527 31.989488 31.989489 1.599474 17.594219-12.795795 31.989488-30.390014 31.989488z m71.976349 241.520638h-51.183181c-17.594219-1.599474-31.989488-15.994744-30.390015-33.588963 0-15.994744 14.39527-30.390014 30.390015-30.390014h51.183181c7.997372 0 12.795795-6.397898 12.795795-15.994744V-48.026279c0-7.997372-6.397898-15.994744-12.795795-15.994744H174.510897c-7.997372 0-12.795795 6.397898-12.795796 15.994744V193.494359c0 17.594219-15.994744 31.989488-33.588962 30.390014-17.594219 0-30.390014-14.39527-30.390014-30.390014V-48.026279c0-44.785284 35.188437-79.973721 76.774772-79.973721h678.177155c43.185809 0 76.774772 35.188437 76.774772 79.973721V674.93616c0 43.185809-35.188437 78.374247-76.774772 78.374247zM353.652032 518.187667c14.39527-11.196321 33.588963-9.596847 44.785284 4.798423 11.196321 14.39527 9.596847 33.588963-4.798423 44.785284-41.586335 33.588963-28.79054 75.175298-22.392642 89.570568L551.986861 823.687282c46.384758 20.793167 70.376875-4.798423 76.774772-11.196321 41.586335-46.384758 17.594219-83.17267 9.596846-91.170043l-94.368991-79.973721c-14.39527-11.196321-15.994744-31.989488-4.798423-44.785284 11.196321-14.39527 31.989488-15.994744 44.785284-4.798423 0 0 1.599474 0 1.599474 1.599475l95.968466 83.17267c1.599474 0 1.599474 1.599474 3.198949 3.198948 27.191065 28.79054 59.180554 102.366363-6.397898 177.541661-20.793167 22.392642-79.973721 60.780028-158.347968 22.392642-3.198949-1.599474-4.798423-3.198949-7.997372-4.798423L323.262018 700.527751c-3.198949-1.599474-4.798423-4.798423-6.397898-7.997372-19.193693-33.588963-36.787912-115.162158 36.787912-174.342712z m-127.957954-230.324317c19.193693 0 41.586335 4.798423 65.578452 15.994744 3.198949 1.599474 4.798423 3.198949 7.997372 4.798423l188.737982 174.342712c3.198949 1.599474 4.798423 4.798423 6.397897 7.997373 19.193693 35.188437 36.787912 115.162158-36.787911 174.342712-14.39527 11.196321-33.588963 7.997372-44.785284-6.397898-9.596847-12.795795-7.997372-31.989488 4.798423-43.185809 41.586335-33.588963 28.79054-75.175298 22.392642-89.570568L259.283041 359.839699c-46.384758-20.793167-70.376875 4.798423-76.774772 11.196321-41.586335 46.384758-17.594219 83.17267-9.596847 91.170042l94.368991 81.573196c12.795795 12.795795 14.39527 31.989488 1.599475 44.785283-11.196321 12.795795-30.390014 14.39527-43.18581 3.198949l-95.968465-83.17267c-1.599474 0-1.599474-1.599474-3.198949-3.198949-27.191065-28.79054-59.180554-102.366363 6.397898-177.541661 14.39527-15.994744 47.984233-39.986861 92.769516-39.98686z"  horiz-adv-x="1024" />

    
    <glyph glyph-name="qinglihuancun" unicode="&#59051;" d="M825.6 150.4c-6.4 0-11.2 1.6-17.6 4.8l-544 316.8c-16 9.6-22.4 30.4-12.8 46.4 9.6 16 30.4 22.4 46.4 12.8l544-316.8c16-9.6 22.4-30.4 12.8-46.4-4.8-11.2-16-17.6-28.8-17.6zM646.4-128c-17.6 0-33.6 4.8-48 12.8L139.2 152c-46.4 27.2-60.8 86.4-35.2 131.2l190.4 332.8c17.6 30.4 49.6 48 83.2 48 17.6 0 33.6-4.8 48-12.8l129.6-75.2 147.2 257.6c22.4 38.4 64 62.4 107.2 62.4 20.8 0 43.2-6.4 60.8-16 59.2-33.6 78.4-110.4 44.8-168L768 452.8l116.8-67.2c46.4-27.2 60.8-86.4 35.2-131.2L729.6-80c-17.6-28.8-49.6-48-83.2-48zM377.6 596.8c-9.6 0-19.2-4.8-24-14.4L163.2 249.6c-8-12.8-3.2-30.4 9.6-38.4l459.2-267.2c4.8-3.2 9.6-3.2 14.4-3.2 9.6 0 19.2 4.8 24 14.4L860.8 288c8 12.8 3.2 30.4-9.6 38.4L704 411.2c-16 9.6-22.4 30.4-12.8 46.4l164.8 288c14.4 25.6 6.4 60.8-19.2 75.2-8 4.8-17.6 8-27.2 8-19.2 0-36.8-11.2-46.4-27.2L598.4 512c-4.8-8-12.8-14.4-20.8-16-9.6-3.2-17.6-1.6-25.6 3.2l-160 92.8c-4.8 3.2-9.6 4.8-14.4 4.8z"  horiz-adv-x="1024" />

    
    <glyph glyph-name="excel-import" unicode="&#59052;" d="M0 91.2h584V676.8H0v-585.6z m420.8 147.2h-108.8l-32 65.6-40-65.6h-73.6l81.6 129.6-81.6 163.2h108.8l32-65.6 40 65.6h73.6L339.2 400l81.6-161.6zM1024 822.4V-128H147.2V54.4h73.6v-110.4h731.2V822.4H219.2v-110.4H147.2V896H1024v-73.6zM620.8 384h256v73.6h-256V384z m0 147.2h256v73.6h-256v-73.6z m0-292.8h256v73.6h-256v-73.6z"  horiz-adv-x="1024" />

    
    <glyph glyph-name="data-publishing" unicode="&#59053;" d="M940.8 419.2c-20.8 0-38.4-16-38.4-36.8V32c0-40-24-83.2-65.6-83.2H168c-43.2 0-89.6 41.6-89.6 83.2V710.4c0 40 46.4 65.6 89.6 65.6h342.4c20.8 0 38.4 17.6 38.4 38.4 0 20.8-17.6 38.4-38.4 38.4H168c-40 0-80-12.8-112-36.8C20.8 788.8 0 752 0 710.4v-680c0-40 19.2-80 51.2-110.4 32-30.4 75.2-48 116.8-48h667.2c41.6 0 80 17.6 107.2 51.2 24 30.4 36.8 67.2 36.8 107.2v352c0 20.8-17.6 36.8-38.4 36.8zM753.6 822.4h145.6L440 368c-14.4-14.4-14.4-36.8 0-51.2 14.4-14.4 38.4-14.4 52.8 0L950.4 769.6v-140.8c0-20.8 16-36.8 36.8-36.8s36.8 16 36.8 36.8V854.4c0 11.2-4.8 20.8-14.4 27.2C1003.2 891.2 992 896 982.4 896H753.6c-20.8 0-36.8-16-36.8-36.8 0-20.8 16-36.8 36.8-36.8z"  horiz-adv-x="1024" />

    
    <glyph glyph-name="batch-upload" unicode="&#59054;" d="M950.4-128H249.6c-40 0-73.6 32-73.6 73.6V646.4c0 40 32 73.6 73.6 73.6h700.8c40 0 73.6-32 73.6-73.6v-700.8c0-41.6-32-73.6-73.6-73.6z m3.2 715.2c0 33.6-27.2 60.8-60.8 60.8H308.8c-33.6 0-60.8-27.2-60.8-60.8v-584c0-33.6 27.2-60.8 60.8-60.8h584c33.6 0 60.8 27.2 60.8 60.8V587.2zM752 270.4l-99.2 99.2v-268.8c-1.6-19.2-17.6-35.2-36.8-33.6-17.6 1.6-33.6 16-33.6 33.6V366.4v4.8l-100.8-100.8c-14.4-12.8-35.2-12.8-49.6 0-14.4 12.8-14.4 35.2 0 49.6l156.8 156.8c1.6 1.6 1.6 3.2 3.2 4.8 6.4 6.4 16 9.6 25.6 9.6 9.6 0 19.2-3.2 25.6-9.6 1.6-1.6 1.6-3.2 3.2-4.8l156.8-156.8c14.4-12.8 14.4-35.2 0-49.6-14.4-12.8-36.8-14.4-51.2 0 1.6 0 1.6 0 0 0zM705.6 825.6H131.2c-33.6 0-60.8-27.2-60.8-60.8V208c0-19.2-16-35.2-35.2-35.2S0 187.2 0 208V822.4C0 864 32 896 73.6 896h633.6c19.2 0 35.2-16 35.2-35.2s-16-35.2-36.8-35.2z"  horiz-adv-x="1024" />

    
    <glyph glyph-name="batch-publishing" unicode="&#59055;" d="M657.6 529.6s12.8 230.4 219.2 276.8V896L1024 748.8l-145.6-145.6v89.6c0-1.6-132.8 16-220.8-163.2z m-364.8 73.6h292.8v-73.6H292.8v73.6z m0-294.4h440v-73.6H292.8v73.6z m656 222.4h-73.6v-440h-656V748.8h440V822.4H145.6v-145.6H0V-128h803.2v145.6h145.6V531.2zM729.6-54.4h-656V603.2h72v-585.6h584v-72z"  horiz-adv-x="1024" />

    
    <glyph glyph-name="batch-download" unicode="&#59056;" d="M947.2-128H217.6c-41.6 0-76.8 33.6-76.8 76.8V678.4c0 41.6 33.6 76.8 76.8 76.8h729.6c41.6 0 76.8-33.6 76.8-76.8v-729.6c0-43.2-33.6-76.8-76.8-76.8z m3.2 745.6c0 35.2-28.8 64-64 64h-608c-35.2 0-64-28.8-64-64v-608c0-35.2 28.8-64 64-64h608c35.2 0 64 28.8 64 64v608zM736 822.4H137.6c-35.2 0-64-28.8-64-64v-579.2c0-20.8-16-36.8-36.8-36.8S0 158.4 0 179.2v640C0 862.4 35.2 896 76.8 896H736c20.8 0 36.8-16 36.8-36.8 0-20.8-17.6-36.8-36.8-36.8z m36.8-528l-4.8 3.2c-8 6.4-17.6 8-27.2 4.8-4.8-1.6-9.6-4.8-14.4-8l-112-112V521.6c0 16-11.2 30.4-27.2 32-9.6 1.6-19.2-1.6-27.2-6.4-8-6.4-11.2-14.4-11.2-24v-340.8l-112 112c-6.4 6.4-14.4 9.6-22.4 9.6-8 0-17.6-3.2-22.4-9.6-6.4-6.4-8-14.4-8-24 0-8 3.2-17.6 9.6-22.4L560 80c6.4-6.4 14.4-9.6 22.4-9.6 8 0 17.6 3.2 22.4 9.6l168 168c6.4 6.4 9.6 14.4 9.6 22.4 0 9.6-3.2 17.6-9.6 24z"  horiz-adv-x="1024" />

    
    <glyph glyph-name="xiazai" unicode="&#59057;" d="M512 894.4C228.8 894.4 0 665.6 0 384s228.8-510.4 512-510.4S1024 102.4 1024 384 795.2 894.4 512 894.4z m0-939.2c-236.8 0-428.8 192-428.8 427.2S275.2 809.6 512 809.6s428.8-192 428.8-427.2-192-427.2-428.8-427.2zM272 329.6l236.8-236.8 241.6 240-51.2 51.2-153.6-153.6V675.2h-73.6v-444.8l-148.8 148.8-51.2-49.6z"  horiz-adv-x="1024" />

    
    <glyph glyph-name="gengxin" unicode="&#59058;" d="M512 894.4C228.8 894.4 0 665.6 0 384s228.8-510.4 512-510.4S1024 102.4 1024 384 795.2 894.4 512 894.4z m0-939.2c-236.8 0-428.8 192-428.8 427.2S275.2 809.6 512 809.6s428.8-192 428.8-427.2-192-427.2-428.8-427.2zM750.4 440L513.6 676.8 272 435.2l51.2-51.2 153.6 153.6v-444.8h73.6V537.6l148.8-148.8 51.2 51.2z"  horiz-adv-x="1024" />

    
    <glyph glyph-name="addfrom-report" unicode="&#59059;" d="M985.6 113.6H820.8v-176c0-14.4-11.2-25.6-25.6-25.6h-35.2c-14.4 0-25.6 11.2-25.6 25.6v176H568c-14.4 0-25.6 11.2-25.6 25.6V176c0 14.4 11.2 25.6 25.6 25.6h166.4v176c0 14.4 11.2 25.6 25.6 25.6h35.2c14.4 0 25.6-11.2 25.6-25.6v-176h166.4c14.4 0 25.6-11.2 25.6-25.6v-36.8c0-14.4-12.8-25.6-27.2-25.6zM307.2 856h512C932.8 856 1024 761.6 1024 646.4v-284.8c0-25.6-24-28.8-24-28.8h-20.8c-20.8 0-24 30.4-24 30.4v89.6H68.8v-329.6s35.2-134.4 136-134.4h384s25.6-1.6 25.6-24v-25.6c0-25.6-25.6-27.2-25.6-27.2h-384C91.2-89.6 0 4.8 0 121.6v736l307.2-1.6z m-240-67.2v-270.4H960v129.6c0 124.8-121.6 140.8-121.6 140.8H67.2z"  horiz-adv-x="1024" />

    
    <glyph glyph-name="add-tableheader" unicode="&#59060;" d="M984-128h-944C17.6-128 0-110.4 0-88v944C0 878.4 17.6 896 40 896h467.2c22.4 0 40-17.6 40-40S528 816 507.2 816H78.4v-865.6h867.2V380.8c0 22.4 17.6 40 40 40s40-17.6 40-40v-468.8c-1.6-22.4-19.2-40-41.6-40zM489.6 737.6H177.6c-11.2 0-19.2-17.6-19.2-40s8-40 19.2-40h313.6c11.2 0 19.2 17.6 19.2 40s-9.6 40-20.8 40z m0-156.8H177.6c-11.2 0-19.2-17.6-19.2-40s8-40 19.2-40h313.6c11.2 0 19.2 17.6 19.2 40-1.6 20.8-9.6 40-20.8 40z m294.4-128c-123.2 0-222.4 99.2-222.4 220.8S660.8 896 784 896s222.4-99.2 222.4-220.8S905.6 452.8 784 452.8z m0 387.2c-91.2 0-166.4-73.6-166.4-166.4S691.2 508.8 784 508.8s166.4 73.6 166.4 166.4c0 91.2-75.2 164.8-166.4 164.8z m83.2-193.6h-56V592c0-16-12.8-27.2-27.2-27.2-16 0-27.2 12.8-27.2 27.2v56h-56c-16 0-28.8 11.2-28.8 25.6 0 16 11.2 28.8 25.6 28.8h59.2V756.8c0 16 14.4 27.2 28.8 25.6 14.4 0 25.6-12.8 25.6-25.6v-56h56c16 0 27.2-12.8 27.2-27.2 0-14.4-12.8-27.2-27.2-27.2z"  horiz-adv-x="1025" />

    
    <glyph glyph-name="adding-reports" unicode="&#59061;" d="M648 412.8v-6.4c-9.6-6.4-17.6-14.4-25.6-22.4h-416c-16 0-28.8 12.8-28.8 30.4s12.8 30.4 28.8 30.4h412.8c16-1.6 28.8-16 28.8-32z m-67.2-324.8H206.4c-16 0-28.8 12.8-28.8 30.4 0 16 12.8 28.8 28.8 28.8h350.4c4.8-20.8 12.8-40 24-59.2z m-16 208c-8-19.2-11.2-38.4-14.4-59.2H206.4c-16 0-28.8 12.8-28.8 28.8s12.8 30.4 28.8 30.4h358.4z m230.4 158.4c9.6 0 20.8 0 30.4-1.6V619.2c0 65.6-52.8 118.4-118.4 118.4h-88V796.8h-80c-25.6 35.2-72 59.2-128 59.2s-100.8-24-128-59.2h-80v-59.2H118.4C52.8 737.6 0 684.8 0 620.8v-590.4c0-65.6 52.8-118.4 118.4-118.4h590.4c38.4 0 75.2 19.2 97.6 51.2h-9.6c-24 0-48 3.2-70.4 9.6-6.4-1.6-11.2-3.2-17.6-3.2h-592c-32 0-59.2 27.2-59.2 59.2V619.2c0 32 27.2 59.2 59.2 59.2h88V560h412.8v118.4h88c32 0 59.2-27.2 59.2-59.2v-166.4c9.6 1.6 19.2 1.6 30.4 1.6zM560 619.2H265.6V737.6h65.6c0 32 36.8 59.2 81.6 59.2s81.6-27.2 81.6-59.2H560v-118.4z m323.2-382.4h-56v56c0 16-11.2 28.8-27.2 28.8s-28.8-11.2-28.8-27.2v-57.6h-56c-16 0-28.8-12.8-28.8-28.8s12.8-28.8 28.8-28.8h56v-56c0-16 12.8-28.8 28.8-28.8s28.8 12.8 28.8 28.8v56h56c16 0 28.8 12.8 28.8 28.8-1.6 16-14.4 28.8-30.4 28.8z m0 0h-56v56c0 16-11.2 28.8-27.2 28.8s-28.8-11.2-28.8-27.2v-57.6h-56c-16 0-28.8-12.8-28.8-28.8s12.8-28.8 28.8-28.8h56v-56c0-16 12.8-28.8 28.8-28.8s28.8 12.8 28.8 28.8v56h56c16 0 28.8 12.8 28.8 28.8-1.6 16-14.4 28.8-30.4 28.8z m0 0h-56v56c0 16-11.2 28.8-27.2 28.8s-28.8-11.2-28.8-27.2v-57.6h-56c-16 0-28.8-12.8-28.8-28.8s12.8-28.8 28.8-28.8h56v-56c0-16 12.8-28.8 28.8-28.8s28.8 12.8 28.8 28.8v56h56c16 0 28.8 12.8 28.8 28.8-1.6 16-14.4 28.8-30.4 28.8zM800 433.6c-124.8 0-224-100.8-224-224 0-124.8 100.8-224 224-224s224 100.8 224 224-100.8 224-224 224z m0-393.6c-92.8 1.6-168 78.4-166.4 171.2 1.6 91.2 75.2 164.8 166.4 166.4 92.8 0 168-75.2 168-168 0-94.4-75.2-169.6-168-169.6z"  horiz-adv-x="1024" />

    
    <glyph glyph-name="fanhui" unicode="&#59062;" d="M681.6 596.8H337.6V769.6L0 553.6l337.6-212.8V510.4h342.4c126.4 0 257.6-88 257.6-217.6 0-124.8-132.8-211.2-257.6-211.2l-515.2 1.6v-86.4l515.2-1.6C848-1.6 1024 83.2 1024 291.2 1024 512 852.8 596.8 681.6 596.8z"  horiz-adv-x="1024" />

    
    <glyph glyph-name="add-system" unicode="&#59063;" d="M211.193796 516.811139c-25.599248 0-46.398637-20.799389-46.398637-47.99859 0-25.599248 20.799389-47.99859 46.398637-47.99859 25.599248 0 46.398637 20.799389 46.398637 47.99859-1.599953 27.199201-22.399342 47.99859-46.398637 47.99859z m0-188.794454c-25.599248 0-46.398637-20.799389-46.398637-47.998591 0-25.599248 20.799389-47.99859 46.398637-47.99859 25.599248 0 46.398637 20.799389 46.398637 47.99859-1.599953 27.199201-22.399342 47.99859-46.398637 47.998591zM884.77401 787.203196H147.195676c-15.99953 0-27.199201-12.799624-27.199201-27.199201 0-14.399577 12.799624-27.199201 27.199201-27.199201h737.578334c15.99953 0 27.199201 12.799624 27.199201 27.199201 1.599953 14.399577-11.199671 27.199201-27.199201 27.199201zM211.193796 129.622512c-25.599248 0-46.398637-20.799389-46.398637-47.99859 0-25.599248 20.799389-47.99859 46.398637-47.99859 25.599248 0 46.398637 20.799389 46.398637 47.99859-1.599953 27.199201-22.399342 47.99859-46.398637 47.99859z m519.984726 367.989191H335.99013c-15.99953 0-27.199201-11.199671-27.199201-25.599248 0-14.399577 12.799624-25.599248 27.199201-25.599248h396.788345c15.99953 0 27.199201 11.199671 27.199201 25.599248 0 12.799624-12.799624 25.599248-28.799154 25.599248z m0 0H335.99013c-15.99953 0-27.199201-11.199671-27.199201-25.599248 0-14.399577 12.799624-25.599248 27.199201-25.599248h396.788345c15.99953 0 27.199201 11.199671 27.199201 25.599248 0 12.799624-12.799624 25.599248-28.799154 25.599248z m-519.984726 19.199436c-25.599248 0-46.398637-20.799389-46.398637-47.99859 0-25.599248 20.799389-47.99859 46.398637-47.99859 25.599248 0 46.398637 20.799389 46.398637 47.99859-1.599953 27.199201-22.399342 47.99859-46.398637 47.99859z m0-188.794454c-25.599248 0-46.398637-20.799389-46.398637-47.998591 0-25.599248 20.799389-47.99859 46.398637-47.99859 25.599248 0 46.398637 20.799389 46.398637 47.99859-1.599953 27.199201-22.399342 47.99859-46.398637 47.998591z m0-198.394173c-25.599248 0-46.398637-20.799389-46.398637-47.99859 0-25.599248 20.799389-47.99859 46.398637-47.99859 25.599248 0 46.398637 20.799389 46.398637 47.99859-1.599953 27.199201-22.399342 47.99859-46.398637 47.99859z m519.984726 367.989191H335.99013c-15.99953 0-27.199201-11.199671-27.199201-25.599248 0-14.399577 12.799624-25.599248 27.199201-25.599248h396.788345c15.99953 0 27.199201 11.199671 27.199201 25.599248 0 12.799624-12.799624 25.599248-28.799154 25.599248z m-519.984726 19.199436c-25.599248 0-46.398637-20.799389-46.398637-47.99859 0-25.599248 20.799389-47.99859 46.398637-47.99859 25.599248 0 46.398637 20.799389 46.398637 47.99859-1.599953 27.199201-22.399342 47.99859-46.398637 47.99859z m0-188.794454c-25.599248 0-46.398637-20.799389-46.398637-47.998591 0-25.599248 20.799389-47.99859 46.398637-47.99859 25.599248 0 46.398637 20.799389 46.398637 47.99859-1.599953 27.199201-22.399342 47.99859-46.398637 47.998591z m0-198.394173c-25.599248 0-46.398637-20.799389-46.398637-47.99859 0-25.599248 20.799389-47.99859 46.398637-47.99859 25.599248 0 46.398637 20.799389 46.398637 47.99859-1.599953 27.199201-22.399342 47.99859-46.398637 47.99859z m385.588674-63.99812H335.99013c-14.399577 0-27.199201 11.199671-27.199201 25.599248 0 14.399577 12.799624 25.599248 27.199201 25.599248h235.193091c4.799859-12.799624 9.599718-23.999295 15.999531-35.198966 1.599953-4.799859 4.799859-11.199671 9.599718-15.99953z m-14.399577 246.392762c-4.799859-7.999765-7.999765-15.99953-11.199672-25.599248-3.199906-7.999765-6.399812-17.599483-7.999765-25.599248H335.99013c-14.399577 0-27.199201 11.199671-27.199201 25.599248 0 14.399577 12.799624 25.599248 27.199201 25.599248h246.392763z m275.191916 124.796335V617.608178H140.795864c-30.399107 0-60.798214 9.599718-84.797509 28.799154v-635.181342c0-46.398637 38.398872-84.797509 84.797509-84.797509h716.778945v39.998825c19.199436 4.799859 38.398872 11.199671 55.998355 20.799389V-127.969921H140.795864C63.99812-129.569874 0-67.171707 0 11.22599V756.804089C0 833.601833 63.99812 896 140.795864 896h743.978146c15.99953 0 27.199201-12.799624 27.199201-27.199201s-12.799624-27.199201-27.199201-27.199201H140.795864c-46.398637 0-84.797509-38.398872-84.797509-84.797509S94.397227 672.00658 140.795864 672.00658h772.7773v-255.99248c-17.599483 9.599718-36.798919 15.99953-55.998355 20.799389z m27.199201-211.193797h-55.998355v55.998355c0 15.99953-12.799624 27.199201-27.199201 27.199201-15.99953 0-27.199201-12.799624-27.199201-27.199201v-55.998355h-55.998355c-15.99953 0-27.199201-12.799624-27.199201-27.199201 0-15.99953 12.799624-27.199201 27.199201-27.199201h55.998355v-55.998355c0-15.99953 12.799624-27.199201 27.199201-27.199201 15.99953 0 27.199201 12.799624 27.199201 27.199201v55.998355h55.998355c15.99953 0 27.199201 12.799624 27.199201 27.199201 0 14.399577-11.199671 27.199201-27.199201 27.199201z m0 0h-55.998355v55.998355c0 15.99953-12.799624 27.199201-27.199201 27.199201-15.99953 0-27.199201-12.799624-27.199201-27.199201v-55.998355h-55.998355c-15.99953 0-27.199201-12.799624-27.199201-27.199201 0-15.99953 12.799624-27.199201 27.199201-27.199201h55.998355v-55.998355c0-15.99953 12.799624-27.199201 27.199201-27.199201 15.99953 0 27.199201 12.799624 27.199201 27.199201v55.998355h55.998355c15.99953 0 27.199201 12.799624 27.199201 27.199201 0 14.399577-11.199671 27.199201-27.199201 27.199201z m0 0h-55.998355v55.998355c0 15.99953-12.799624 27.199201-27.199201 27.199201-15.99953 0-27.199201-12.799624-27.199201-27.199201v-55.998355h-55.998355c-15.99953 0-27.199201-12.799624-27.199201-27.199201 0-15.99953 12.799624-27.199201 27.199201-27.199201h55.998355v-55.998355c0-15.99953 12.799624-27.199201 27.199201-27.199201 15.99953 0 27.199201 12.799624 27.199201 27.199201v55.998355h55.998355c15.99953 0 27.199201 12.799624 27.199201 27.199201 0 14.399577-11.199671 27.199201-27.199201 27.199201z m-83.197556 193.594314c-123.196381 0-222.393467-99.197086-222.393468-222.393468s99.197086-222.393467 222.393468-222.393467S1023.969921 75.22411 1023.969921 196.820538s-99.197086 222.393467-222.393467 222.393468z m0-388.78858c-92.797274 0-166.395112 75.197791-166.395112 166.395112s75.197791 166.395112 166.395112 166.395113c92.797274 0 166.395112-75.197791 166.395112-166.395113s-73.597838-166.395112-166.395112-166.395112z"  horiz-adv-x="1024" />

    
    <glyph glyph-name="add-sleevetable" unicode="&#59064;" d="M609.6 72H126.4v-62.4H672c-24 16-46.4 36.8-62.4 62.4zM124.8 196.8v-62.4h440v62.4H124.8z m484.8-124.8H126.4v-62.4H672c-24 16-46.4 36.8-62.4 62.4zM124.8 196.8v-62.4h440v62.4H124.8z m0 0v-62.4h440v62.4H124.8z m484.8-124.8H126.4v-62.4H672c-24 16-46.4 36.8-62.4 62.4zM124.8 196.8v-62.4h440v62.4H124.8z m484.8-124.8H126.4v-62.4H672c-24 16-46.4 36.8-62.4 62.4z m0 0H126.4v-62.4H672c-24 16-46.4 36.8-62.4 62.4zM124.8 196.8v-62.4h440v62.4H124.8zM880 430.4V758.4H64v-812.8h816v35.2c22.4 8 43.2 19.2 62.4 32v-67.2c0-35.2-28.8-62.4-62.4-62.4H64c-35.2 0-62.4 28.8-62.4 62.4V820.8C1.6 856 30.4 883.2 64 883.2h816c35.2 0 62.4-28.8 62.4-62.4v-422.4c-19.2 14.4-40 24-62.4 32zM124.8 696v-436.8h448c1.6 9.6 4.8 20.8 9.6 30.4 11.2 32 30.4 60.8 56 84.8 8 8 16 14.4 24 20.8 33.6 25.6 72 40 113.6 44.8 12.8 1.6 27.2 1.6 41.6 1.6V696H124.8z m368-300.8c-11.2-11.2-30.4-11.2-41.6 0l-105.6 104-105.6-104c-11.2-11.2-30.4-11.2-41.6 0-11.2 11.2-11.2 30.4 0 41.6L320 560c1.6 1.6 0 3.2 1.6 4.8 6.4 6.4 14.4 9.6 22.4 8 8 0 16-1.6 22.4-8 1.6-1.6 1.6-3.2 1.6-4.8l123.2-123.2c12.8-11.2 12.8-30.4 1.6-41.6z m260.8 208v-124.8c0-17.6-14.4-32-32-32s-32 14.4-32 32v54.4l-137.6-137.6c-11.2-11.2-30.4-11.2-41.6 0-11.2 11.2-11.2 30.4 0 41.6l134.4 134.4h-17.6c-46.4 1.6-62.4 14.4-62.4 32s14.4 32 32 32H721.6c3.2 0 6.4-1.6 8-1.6 1.6 0 4.8-1.6 6.4-3.2 1.6-1.6 4.8 0 6.4-3.2 1.6-1.6 0-1.6 1.6-3.2 0 0 0-1.6 1.6-1.6 1.6-1.6 3.2-4.8 4.8-8 3.2-3.2 3.2-8 3.2-11.2z m134.4-374.4h-54.4v54.4c0 14.4-11.2 27.2-25.6 28.8-14.4 0-27.2-11.2-28.8-25.6v-57.6h-54.4c-14.4 0-27.2-12.8-27.2-27.2 0-14.4 12.8-27.2 27.2-27.2h54.4v-54.4c0-14.4 11.2-27.2 25.6-28.8 14.4 0 27.2 11.2 28.8 25.6v57.6h54.4c14.4 0 27.2 12.8 27.2 27.2s-11.2 27.2-27.2 27.2z m0 0h-54.4v54.4c0 14.4-11.2 27.2-25.6 28.8-14.4 0-27.2-11.2-28.8-25.6v-57.6h-54.4c-14.4 0-27.2-12.8-27.2-27.2 0-14.4 12.8-27.2 27.2-27.2h54.4v-54.4c0-14.4 11.2-27.2 25.6-28.8 14.4 0 27.2 11.2 28.8 25.6v57.6h54.4c14.4 0 27.2 12.8 27.2 27.2s-11.2 27.2-27.2 27.2z m0 0h-54.4v54.4c0 14.4-11.2 27.2-25.6 28.8-14.4 0-27.2-11.2-28.8-25.6v-57.6h-54.4c-14.4 0-27.2-12.8-27.2-27.2 0-14.4 12.8-27.2 27.2-27.2h54.4v-54.4c0-14.4 11.2-27.2 25.6-28.8 14.4 0 27.2 11.2 28.8 25.6v57.6h54.4c14.4 0 27.2 12.8 27.2 27.2s-11.2 27.2-27.2 27.2z m-80 190.4C688 419.2 592 321.6 592 203.2c0-120 97.6-216 216-216S1024 83.2 1024 201.6c0 120-97.6 217.6-216 217.6z m0-379.2c-89.6 0-163.2 72-163.2 163.2 0 89.6 72 163.2 163.2 163.2 89.6 0 163.2-72 163.2-163.2-1.6-91.2-73.6-163.2-163.2-163.2z"  horiz-adv-x="1024" />

    
    <glyph glyph-name="adding-method" unicode="&#59047;" d="M27.33536 28.8h568c36.8-30.4 80-49.6 126.4-57.6H27.33536c-16 0-28.8 14.4-27.2 30.4 0 14.4 12.8 27.2 27.2 27.2z m219.2 422.4c9.6 0 17.6-8 17.6-17.6v-340.8c0-9.6-8-17.6-17.6-17.6H131.33536c-9.6 0-17.6 8-17.6 17.6V433.6c0 9.6 8 17.6 17.6 17.6h115.2zM465.73536 796.8c9.6 0 17.6-8 17.6-17.6v-686.4c0-9.6-8-17.6-17.6-17.6H352.13536c-9.6 0-17.6 8-17.6 17.6V779.2c0 9.6 8 17.6 17.6 17.6h113.6z m88-374.4V585.6c0 9.6 8 17.6 17.6 17.6h113.6c9.6 0 17.6-8 17.6-17.6v-64c-59.2-14.4-112-49.6-148.8-99.2z m220.8-425.6c-137.6 0-249.6 112-249.6 249.6S636.93536 496 774.53536 496 1024.13536 384 1024.13536 246.4s-112-249.6-249.6-249.6z m0 436.8c-104 1.6-188.8-80-190.4-182.4s80-188.8 182.4-190.4h8c104 3.2 185.6 88 182.4 192-1.6 97.6-83.2 177.6-182.4 180.8z m94.4-219.2h-62.4v-62.4c0-17.6-14.4-30.4-30.4-30.4s-30.4 14.4-30.4 30.4v62.4h-62.4c-17.6 0-32 12.8-32 30.4 0 17.6 12.8 32 30.4 32h64v62.4c1.6 17.6 16 30.4 32 30.4s28.8-14.4 30.4-30.4v-62.4h62.4c17.6 0 30.4-14.4 30.4-32-3.2-16-16-28.8-32-30.4z"  horiz-adv-x="1024" />

    
    <glyph glyph-name="add-folder" unicode="&#59065;" d="M916.8 736H531.2c-24 0-35.2 12.8-35.2 12.8s-16 27.2-44.8 70.4c-30.4 44.8-65.6 38.4-65.6 38.4H84.8C1.6 857.6 0 779.2 0 779.2v-712c0-88 67.2-76.8 67.2-76.8h372.8c-12.8 19.2-25.6 38.4-33.6 59.2L112 51.2c-27.2 0-49.6 22.4-49.6 49.6V606.4C60.8 633.6 83.2 656 112 656h763.2c27.2 0 49.6-22.4 49.6-49.6v-112c22.4-12.8 43.2-28.8 60.8-46.4V670.4c0 73.6-68.8 65.6-68.8 65.6z m84.8-433.6c-14.4 33.6-35.2 64-62.4 89.6-25.6 25.6-56 46.4-91.2 60.8-35.2 14.4-72 22.4-112 22.4s-76.8-8-112-22.4c-35.2-14.4-65.6-35.2-91.2-60.8-25.6-25.6-46.4-56-62.4-89.6-14.4-33.6-22.4-70.4-22.4-110.4s8-75.2 22.4-110.4c14.4-33.6 35.2-64 62.4-89.6 25.6-25.6 56-46.4 91.2-60.8 35.2-14.4 72-22.4 112-22.4s76.8 8 112 22.4c33.6 14.4 65.6 35.2 91.2 60.8 25.6 25.6 46.4 56 62.4 89.6 14.4 33.6 22.4 70.4 22.4 110.4s-8 76.8-22.4 110.4z m-68.8-134.4c-8-8-17.6-11.2-28.8-11.2h-124.8v-123.2c0-11.2-3.2-20.8-11.2-28.8s-17.6-11.2-28.8-11.2c-12.8 0-22.4 3.2-30.4 11.2s-11.2 17.6-11.2 28.8v123.2h-123.2c-12.8 0-22.4 3.2-30.4 11.2s-11.2 17.6-11.2 28.8 3.2 20.8 11.2 28.8 17.6 11.2 30.4 11.2h123.2v123.2c0 11.2 3.2 20.8 11.2 28.8 8 8 17.6 11.2 30.4 11.2 11.2 0 20.8-3.2 28.8-11.2 8-8 11.2-17.6 11.2-28.8v-123.2h124.8c11.2 0 20.8-3.2 28.8-11.2s11.2-17.6 11.2-28.8c1.6-11.2-3.2-20.8-11.2-28.8z"  horiz-adv-x="1024" />

    
    <glyph glyph-name="add-index" unicode="&#59066;" d="M0 539.2v-620.8h278.4V539.2H0z m209.6-542.4H68.8v464H208v-464z m764.8 697.6V320c-19.2 20.8-43.2 36.8-68.8 48V616h-139.2V384c-24-4.8-48-14.4-68.8-27.2V694.4h276.8z m0-704V-80H696v35.2c16-9.6 32-16 49.6-22.4 20.8-6.4 43.2-9.6 65.6-9.6h9.6c57.6 1.6 112 25.6 153.6 67.2zM595.2 236.8c8 20.8 17.6 40 30.4 57.6V849.6H347.2v-931.2h278.4V16c-17.6 24-32 51.2-38.4 81.6-6.4 27.2-9.6 56-6.4 83.2 3.2 19.2 8 38.4 14.4 56z m-38.4-240h-139.2V771.2h139.2v-774.4z m336 184h-52.8v52.8c0 14.4-11.2 27.2-25.6 27.2-14.4 0-25.6-12.8-25.6-27.2v-52.8H736c-14.4 0-27.2-11.2-27.2-27.2 0-14.4 11.2-27.2 27.2-27.2h52.8v-52.8c0-14.4 11.2-27.2 25.6-27.2 14.4 0 27.2 11.2 27.2 27.2v52.8h52.8c14.4 0 27.2 11.2 27.2 27.2-3.2 14.4-14.4 27.2-28.8 27.2z m0 0h-52.8v52.8c0 14.4-11.2 27.2-25.6 27.2-14.4 0-25.6-12.8-25.6-27.2v-52.8H736c-14.4 0-27.2-11.2-27.2-27.2 0-14.4 11.2-27.2 27.2-27.2h52.8v-52.8c0-14.4 11.2-27.2 25.6-27.2 14.4 0 27.2 11.2 27.2 27.2v52.8h52.8c14.4 0 27.2 11.2 27.2 27.2-3.2 14.4-14.4 27.2-28.8 27.2z m0 0h-52.8v52.8c0 14.4-11.2 27.2-25.6 27.2-14.4 0-25.6-12.8-25.6-27.2v-52.8H736c-14.4 0-27.2-11.2-27.2-27.2 0-14.4 11.2-27.2 27.2-27.2h52.8v-52.8c0-14.4 11.2-27.2 25.6-27.2 14.4 0 27.2 11.2 27.2 27.2v52.8h52.8c14.4 0 27.2 11.2 27.2 27.2-3.2 14.4-14.4 27.2-28.8 27.2z m-80 185.6c-116.8 0-211.2-96-211.2-212.8s94.4-212.8 211.2-212.8S1024 35.2 1024 153.6c0 116.8-94.4 212.8-211.2 212.8z m0-372.8c-88 0-158.4 72-158.4 160s70.4 160 158.4 160 158.4-72 158.4-160-70.4-160-158.4-160z"  horiz-adv-x="1024" />

    
    <glyph glyph-name="add-from-report" unicode="&#59067;" d="M0 763.2h54.4v-416H0v416z m854.4 0h54.4v-124.8h-54.4V763.2zM0 718.4V772.8h910.4v-54.4H0z m0-371.2v54.4h118.4v-54.4H0z m94.4-96v54.4h313.6v-54.4H94.4z m-1.6 363.2v54.4h910.4v-54.4H92.8z m0 54.4h54.4v-416H92.8v416z m856-6.4h54.4v-251.2h-54.4V662.4z m-233.6-156.8h110.4v-510.4h-110.4V505.6zM1024 300.8v-110.4H513.6v110.4H1024z"  horiz-adv-x="1024" />

    
    <glyph glyph-name="add-tablefooter" unicode="&#59068;" d="M984-128h-944C17.6-128 0-110.4 0-88v944C0 878.4 17.6 896 40 896h467.2c22.4 0 40-17.6 40-40S528 816 507.2 816H78.4v-865.6h867.2V380.8c0 22.4 17.6 40 40 40s40-17.6 40-40v-468.8c-1.6-22.4-19.2-40-41.6-40z m-156.8 382.4H196.8c-22.4-1.6-38.4-19.2-38.4-41.6C160 192 176 176 196.8 176h630.4c22.4 0 40 17.6 40 40 0 20.8-17.6 38.4-40 38.4z m0-158.4H196.8c-22.4 0-40-17.6-40-40s17.6-40 40-40h630.4c22.4 1.6 38.4 19.2 36.8 41.6 0 22.4-17.6 38.4-36.8 38.4zM784 452.8c-123.2 0-222.4 99.2-222.4 220.8S660.8 896 784 896s222.4-99.2 222.4-220.8S905.6 452.8 784 452.8z m0 387.2c-91.2 0-166.4-73.6-166.4-166.4S691.2 508.8 784 508.8s166.4 73.6 166.4 166.4c0 91.2-75.2 164.8-166.4 164.8z m83.2-193.6h-56V592c0-16-12.8-27.2-27.2-27.2-16 0-27.2 12.8-27.2 27.2v56h-56c-16 0-28.8 11.2-28.8 25.6 0 16 11.2 28.8 25.6 28.8h59.2V756.8c0 16 14.4 27.2 28.8 25.6 14.4 0 25.6-12.8 25.6-25.6v-56h56c16 0 27.2-12.8 27.2-27.2 0-14.4-12.8-27.2-27.2-27.2z"  horiz-adv-x="1025" />

    
    <glyph glyph-name="add-new-version" unicode="&#59069;" d="M729.6 134.4v224c0 16 14.4 30.4 30.4 30.4s30.4-12.8 30.4-30.4v-224H992c17.6 0 30.4-12.8 30.4-30.4 0-16-14.4-30.4-30.4-30.4H792v-145.6c0-16-14.4-30.4-30.4-30.4s-30.4 12.8-30.4 30.4v145.6H552c-17.6 0-30.4 12.8-30.4 30.4 0 16 14.4 30.4 30.4 30.4h177.6zM480-67.2c17.6 0 30.4-12.8 30.4-30.4 0-17.6-14.4-30.4-30.4-30.4H83.2C36.8-128 0-91.2 0-48V816c0 44.8 36.8 80 83.2 80h729.6C857.6 896 896 859.2 896 814.4v-284.8c0-16-14.4-30.4-30.4-30.4-17.6 0-30.4 12.8-30.4 30.4V814.4c0 11.2-9.6 20.8-20.8 20.8H83.2c-11.2 1.6-20.8-8-20.8-19.2v-864c0-11.2 9.6-20.8 20.8-20.8l396.8 1.6z"  horiz-adv-x="1024" />

    
    <glyph glyph-name="qingkong" unicode="&#59070;" d="M1024 392L633.6 780.8 0 147.2l161.6-161.6h473.6v16L1024 392zM195.2 49.6l-97.6 97.6 292.8 292.8 292.8-292.8-97.6-97.6H195.2z"  horiz-adv-x="1024" />

    
    <glyph glyph-name="time-architecture" unicode="&#59071;" d="M897.6 132.8h-96c-4.8 0-9.6 4.8-9.6 9.6V208c0 11.2-9.6 20.8-20.8 20.8-11.2 0-20.8-8-20.8-19.2v-105.6c0-6.4 4.8-9.6 11.2-11.2h137.6c9.6 1.6 17.6 9.6 17.6 19.2 0 11.2-8 20.8-19.2 20.8z m-126.4 220.8c-134.4 0-243.2-107.2-243.2-240s108.8-240 243.2-240c134.4 0 243.2 107.2 243.2 240s-108.8 240-243.2 240z m0-419.2C672-65.6 592 14.4 592 112c0 99.2 80 177.6 180.8 177.6s180.8-80 180.8-177.6c-1.6-97.6-81.6-177.6-182.4-177.6zM521.6 320l51.2 64h-48v128h182.4c33.6 0 60.8 28.8 60.8 64V832c0 35.2-27.2 64-60.8 64H281.6c-33.6 0-60.8-28.8-60.8-64v-256c0-35.2 27.2-64 60.8-64H464v-128H192v-160H70.4C36.8 224 9.6 195.2 9.6 160v-224c0-35.2 27.2-64 60.8-64h302.4c33.6 0 60.8 28.8 60.8 64V160c0 35.2-27.2 64-60.8 64h-121.6v96h270.4z m-240 256V832h424v-256H281.6z m91.2-416v-224H70.4V160h302.4z"  horiz-adv-x="1024" />

    
    <glyph glyph-name="zhreport" unicode="&#59072;" d="M832 768h-96V832h-86.4c-27.2 38.4-78.4 64-137.6 64s-110.4-25.6-137.6-64H288v-64h-96c-70.4 0-128-57.6-128-128v-640c0-70.4 57.6-128 128-128h640c70.4 0 128 57.6 128 128V640c0 70.4-57.6 128-128 128zM352 768h72c0 35.2 40 64 88 64s88-28.8 88-64H672v-128H352V768z m544-768c0-35.2-28.8-64-64-64H192c-35.2 0-64 28.8-64 64V640c0 35.2 28.8 64 64 64h96v-128h448v128h96c35.2 0 64-28.8 64-64v-640zM249.6 337.6h115.2v-296h-115.2V337.6z m203.2 131.2h115.2v-428.8h-115.2V468.8zM656 238.4h115.2v-198.4H656V238.4z"  horiz-adv-x="1024" />

    
    <glyph glyph-name="summary" unicode="&#59073;" d="M84.8 620.8c83.2-60.8 152-115.2 204.8-158.4l-96-107.2c-62.4 56-128 110.4-193.6 163.2l84.8 102.4z m46.4-291.2c48-19.2 94.4-35.2 139.2-46.4-35.2-150.4-72-281.6-110.4-393.6-48 16-94.4 28.8-142.4 41.6 41.6 120 80 252.8 113.6 398.4zM123.2 878.4c51.2-38.4 112-88 180.8-145.6l-96-102.4C153.6 684.8 96 736 36.8 787.2l86.4 91.2z m211.2-49.6H1008v-129.6H480v-659.2h544v-128H334.4V828.8z"  horiz-adv-x="1024" />

    
    <glyph glyph-name="add-module" unicode="&#59074;" d="M964.8 742.4H456c9.6-25.6 16-51.2 16-76.8 0-128-102.4-232-232-232-20.8 0-36.8 0-51.2 4.8v-515.2c0-25.6 20.8-51.2 51.2-51.2h731.2c30.4 0 51.2 20.8 51.2 51.2V689.6c-6.4 25.6-32 52.8-57.6 52.8z m-385.6-752c0-16-9.6-25.6-25.6-25.6H296c-16 0-25.6 9.6-25.6 25.6v288c0 16 9.6 25.6 25.6 25.6h252.8c16 0 25.6-9.6 25.6-25.6v-288h4.8z m350.4 385.6c0-16-9.6-25.6-25.6-25.6H692.8c-16 0-25.6 9.6-25.6 25.6V617.6c0 16 9.6 25.6 25.6 25.6h211.2c16 0 25.6-9.6 25.6-25.6v-241.6zM208 896C94.4 896 3.2 803.2 3.2 689.6S94.4 484.8 208 484.8s206.4 92.8 206.4 206.4C419.2 803.2 326.4 896 208 896z m129.6-241.6h-88v-92.8c0-16-16-30.4-30.4-30.4s-30.4 16-30.4 30.4v92.8H89.6c-16 0-30.4 16-30.4 30.4s16 30.4 30.4 30.4h97.6V808c0 16 16 30.4 30.4 30.4s30.4-16 30.4-30.4v-92.8H336c16 0 30.4-16 30.4-30.4s-14.4-30.4-28.8-30.4z"  horiz-adv-x="1088" />

    
    <glyph glyph-name="report-folder" unicode="&#59075;" d="M948.8-81.6H67.2C27.2-81.6 0-48 0-12.8V780.8c0 41.6 33.6 68.8 67.2 68.8h297.6c27.2 0 54.4-20.8 67.2-48l33.6-108.8s0-6.4 6.4-6.4h481.6c40 0 67.2-33.6 67.2-68.8v-630.4c-3.2-35.2-36.8-68.8-72-68.8zM67.2 787.2s-6.4-6.4 0 0l-6.4-800s0-6.4 6.4-6.4h881.6s6.4 0 6.4 6.4V624s0 6.4-6.4 6.4H467.2c-27.2 0-54.4 20.8-67.2 48l-27.2 102.4-305.6 6.4z m680-296H284.8c-19.2 0-33.6-14.4-33.6-33.6s14.4-33.6 33.6-33.6h462.4c19.2 0 33.6 14.4 33.6 33.6s-14.4 33.6-33.6 33.6z m0-329.6H284.8c-19.2 0-33.6-14.4-33.6-33.6 0-19.2 14.4-33.6 33.6-33.6h462.4c19.2 0 33.6 14.4 33.6 33.6 0 19.2-14.4 33.6-33.6 33.6z m0 164.8H284.8c-19.2 0-33.6-14.4-33.6-33.6s14.4-33.6 33.6-33.6h462.4c19.2 0 33.6 14.4 33.6 33.6 0 19.2-14.4 33.6-33.6 33.6z"  horiz-adv-x="1024" />

    
    <glyph glyph-name="method-public" unicode="&#59076;" d="M691.2 627.2c4.8 9.6 4.8 20.8 0 32-8 12.8-24 17.6-46.4 17.6H238.4c-35.2 0-49.6-17.6-49.6-33.6 0-11.2 6.4-20.8 17.6-27.2 8-4.8 19.2-11.2 32-11.2h406.4c22.4-1.6 38.4 9.6 46.4 22.4z m0-145.6c4.8 9.6 4.8 20.8 0 32-8 12.8-24 17.6-46.4 17.6H238.4c-35.2 0-49.6-17.6-49.6-33.6 0-11.2 6.4-20.8 17.6-27.2 8-4.8 19.2-11.2 32-11.2h406.4c22.4-1.6 38.4 9.6 46.4 22.4z m174.4 43.2c9.6-4.8 20.8-9.6 30.4-16l28.8-17.6V817.6c0 59.2-49.6 78.4-81.6 78.4H100.8C68.8 896 6.4 876.8 6.4 817.6v-867.2c0-59.2 62.4-78.4 94.4-78.4h740.8c57.6 0 81.6 46.4 81.6 78.4v78.4l-41.6 40-28.8-14.4v-104s0-1.6-3.2-4.8c-1.6-1.6-4.8 0-9.6 0H100.8c-3.2 0-24-8-24 4.8V817.6c0 3.2 11.2 4.8 24 4.8h740.8c4.8 0 11.2 6.4 11.2-4.8v-288c1.6 0 12.8-4.8 12.8-4.8z m-584-288c-3.2 8-3.2 16-1.6 22.4l1.6 1.6c22.4 22.4 46.4 38.4 72 46.4 52.8 20.8 115.2-20.8 115.2-20.8 120 126.4 260.8 116.8 312 115.2l16-1.6c113.6-12.8 203.2-64 204.8-64 9.6-4.8 14.4-16 14.4-27.2l-14.4-152c-1.6-14.4-14.4-25.6-28.8-25.6l-155.2 4.8c-17.6-9.6-145.6-78.4-278.4-65.6-32 4.8-89.6 25.6-148.8 67.2-22.4 16-43.2 32-64 49.6-25.6 24-40 40-44.8 49.6z m99.2 22.4c-12.8-1.6-24-4.8-35.2-11.2 40-36.8 161.6-112 200-118.4 116.8-11.2 248 60.8 248 62.4 4.8 3.2 11.2 4.8 16 4.8l137.6-4.8 11.2 107.2c-25.6 12.8-91.2 41.6-166.4 49.6h-3.2c-17.6 1.6-35.2 1.6-52.8 1.6-9.6-1.6-20.8-3.2-25.6-3.2-38.4-6.4-84.8-11.2-187.2-91.2 8-3.2 16-4.8 24-6.4 56-4.8 118.4 32 121.6 33.6 4.8 3.2 11.2 4.8 17.6 4.8 8-1.6 16-4.8 20.8-12.8 8-12.8 4.8-30.4-8-38.4-38.4-24-99.2-48-158.4-41.6h-1.6c-40 4.8-72 20.8-96 51.2-9.6 6.4-20.8 9.6-33.6 11.2-9.6 3.2-19.2 3.2-28.8 1.6z"  horiz-adv-x="1024" />

    
    <glyph glyph-name="investigation" unicode="&#59077;" d="M692.8 360c78.4 0 140.8 62.4 140.8 140.8s-62.4 140.8-140.8 140.8-140.8-62.4-140.8-140.8 62.4-140.8 140.8-140.8z m0-43.2c-110.4 0-200-89.6-200-200v-171.2h400V116.8c-1.6 110.4-89.6 200-200 200z m217.6-48c140.8 124.8 153.6 340.8 28.8 481.6S596.8 902.4 457.6 777.6c-134.4-120-152-321.6-43.2-462.4l-83.2-73.6-32 35.2L0 9.6 94.4-96l299.2 267.2-32 35.2 83.2 73.6c128-124.8 329.6-131.2 465.6-11.2z m-432 484.8c126.4 113.6 321.6 100.8 435.2-25.6 113.6-126.4 100.8-321.6-25.6-435.2-126.4-113.6-321.6-100.8-435.2 25.6S352 640 478.4 753.6z"  horiz-adv-x="1025" />

    
    <glyph glyph-name="biaoge" unicode="&#59078;" d="M1024 718.4V48c0-27.2-9.6-49.6-28.8-68.8-19.2-19.2-43.2-28.8-68.8-28.8H99.2c-27.2 0-49.6 9.6-68.8 28.8C9.6-1.6 0 22.4 0 49.6V718.4C0 745.6 9.6 768 28.8 787.2S72 816 97.6 816h827.2c27.2 0 49.6-9.6 68.8-28.8 20.8-17.6 30.4-41.6 30.4-68.8zM315.2 521.6V640c0 6.4-1.6 11.2-4.8 14.4-3.2 3.2-9.6 6.4-14.4 4.8H97.6c-6.4 0-11.2-1.6-14.4-4.8-3.2-3.2-4.8-9.6-4.8-14.4v-118.4c0-6.4 1.6-11.2 4.8-14.4 3.2-3.2 8-4.8 14.4-4.8h196.8c6.4 0 11.2 1.6 14.4 4.8 4.8 4.8 6.4 9.6 6.4 14.4z m0-236.8v118.4c0 6.4-1.6 11.2-4.8 14.4-3.2 3.2-8 4.8-14.4 4.8H97.6c-6.4 0-11.2-1.6-14.4-4.8-3.2-3.2-6.4-9.6-4.8-14.4v-118.4c0-6.4 1.6-11.2 4.8-14.4 3.2-3.2 8-4.8 14.4-4.8h196.8c6.4 0 11.2 1.6 14.4 4.8 4.8 4.8 6.4 9.6 6.4 14.4z m0-235.2v118.4c0 6.4-1.6 11.2-4.8 14.4-3.2 3.2-9.6 6.4-14.4 4.8H97.6c-6.4 0-11.2-1.6-14.4-4.8-3.2-3.2-6.4-9.6-4.8-14.4v-118.4c0-6.4 1.6-11.2 4.8-14.4 3.2-3.2 8-4.8 14.4-4.8h196.8c6.4 0 11.2 1.6 14.4 4.8 4.8 3.2 6.4 8 6.4 14.4z m315.2 472V640c0 6.4-1.6 11.2-4.8 14.4-3.2 3.2-9.6 6.4-14.4 4.8H412.8c-6.4 0-11.2-1.6-14.4-4.8-3.2-3.2-6.4-9.6-4.8-14.4v-118.4c0-6.4 1.6-11.2 4.8-14.4 3.2-3.2 8-4.8 14.4-4.8h196.8c6.4 0 11.2 1.6 14.4 4.8 4.8 4.8 6.4 9.6 6.4 14.4z m0-236.8v118.4c0 6.4-1.6 11.2-4.8 14.4-3.2 3.2-8 4.8-14.4 4.8H412.8c-6.4 0-11.2-1.6-14.4-4.8-3.2-3.2-6.4-9.6-4.8-14.4v-118.4c0-6.4 1.6-11.2 4.8-14.4 3.2-3.2 8-4.8 14.4-4.8h196.8c6.4 0 11.2 1.6 14.4 4.8 4.8 4.8 6.4 9.6 6.4 14.4z m0-235.2v118.4c0 6.4-1.6 11.2-4.8 14.4-3.2 3.2-9.6 6.4-14.4 4.8H412.8c-6.4 0-11.2-1.6-14.4-4.8-3.2-3.2-6.4-9.6-4.8-14.4v-118.4c0-6.4 1.6-11.2 4.8-14.4 3.2-3.2 8-4.8 14.4-4.8h196.8c6.4 0 11.2 1.6 14.4 4.8 4.8 3.2 6.4 8 6.4 14.4z m315.2 472V640c0 6.4-1.6 11.2-4.8 14.4-3.2 3.2-9.6 6.4-14.4 4.8H728c-6.4 0-11.2-1.6-14.4-4.8-3.2-3.2-6.4-9.6-4.8-14.4v-118.4c0-6.4 1.6-11.2 4.8-14.4 3.2-3.2 8-4.8 14.4-4.8h196.8c6.4 0 11.2 1.6 14.4 4.8 4.8 4.8 6.4 9.6 6.4 14.4z m0-236.8v118.4c0 6.4-1.6 11.2-4.8 14.4-3.2 3.2-8 4.8-14.4 4.8H728c-6.4 0-11.2-1.6-14.4-4.8-3.2-3.2-6.4-9.6-4.8-14.4v-118.4c0-6.4 1.6-11.2 4.8-14.4 3.2-3.2 8-4.8 14.4-4.8h196.8c6.4 0 11.2 1.6 14.4 4.8 4.8 4.8 6.4 9.6 6.4 14.4z m0-235.2v118.4c0 6.4-1.6 11.2-4.8 14.4-3.2 3.2-9.6 6.4-14.4 4.8H728c-6.4 0-11.2-1.6-14.4-4.8-3.2-3.2-6.4-9.6-4.8-14.4v-118.4c0-6.4 1.6-11.2 4.8-14.4 3.2-3.2 8-4.8 14.4-4.8h196.8c6.4 0 11.2 1.6 14.4 4.8 4.8 3.2 6.4 8 6.4 14.4z"  horiz-adv-x="1024" />

    
    <glyph glyph-name="method-general" unicode="&#59079;" d="M684.8 627.2c4.8 9.6 4.8 20.8 0 32-8 12.8-24 17.6-46.4 17.6H232c-35.2 0-49.6-17.6-49.6-33.6 0-11.2 6.4-20.8 17.6-27.2 8-4.8 19.2-11.2 32-11.2h406.4c22.4-1.6 38.4 9.6 46.4 22.4z m-504-132.8c0-11.2 6.4-22.4 17.6-28.8 8-4.8 19.2-8 32-8H544l4.8 8c9.6 11.2 19.2 22.4 30.4 30.4l40 35.2H232c-35.2-1.6-49.6-20.8-51.2-36.8z m678.4 30.4c9.6-4.8 20.8-9.6 30.4-16l28.8-17.6V817.6c0 59.2-49.6 78.4-81.6 78.4H94.4C62.4 896 0 876.8 0 817.6v-867.2C0-108.8 62.4-128 94.4-128h740.8c57.6 0 81.6 46.4 81.6 78.4v78.4l-41.6 40-27.2-16v-104s0-1.6-3.2-4.8c-1.6-1.6-4.8 0-9.6 0H94.4c-3.2 0-24-8-24 4.8V817.6c0 3.2 11.2 4.8 24 4.8h740.8c4.8 0 11.2 6.4 11.2-4.8v-288l12.8-4.8z m160-449.6l-124.8 126.4c19.2 32 30.4 68.8 30.4 107.2 0 112-89.6 203.2-201.6 203.2s-201.6-91.2-201.6-203.2 89.6-203.2 201.6-203.2c46.4 0 91.2 16 126.4 44.8l123.2-123.2c6.4-6.4 17.6-6.4 24 0l24 24c4.8 6.4 4.8 17.6-1.6 24zM576 307.2c0 81.6 65.6 147.2 145.6 147.2s145.6-65.6 145.6-147.2-65.6-147.2-145.6-147.2-145.6 67.2-145.6 147.2z"  horiz-adv-x="1024" />

    
    <glyph glyph-name="add-directory" unicode="&#59080;" d="M972.8 384v-8c-19.2 17.6-41.6 33.6-65.6 43.2C888 635.2 707.2 804.8 486.4 804.8 254.4 804.8 65.6 616 65.6 384s188.8-420.8 420.8-420.8c73.6 0 142.4 19.2 203.2 52.8 22.4-14.4 48-25.6 73.6-30.4-81.6-56-177.6-86.4-276.8-86.4C217.6-102.4 0 115.2 0 384S217.6 870.4 486.4 870.4c268.8 0 486.4-217.6 486.4-486.4zM713.6 611.2H454.4c-17.6 0-32-14.4-32-32s14.4-32 32-32h259.2c17.6 0 32 14.4 32 32s-14.4 32-32 32z m0-195.2c-12.8-6.4-25.6-14.4-36.8-22.4-8-6.4-16-12.8-24-20.8-6.4-6.4-12.8-12.8-19.2-20.8H454.4c-17.6-1.6-33.6 12.8-33.6 30.4-1.6 17.6 12.8 33.6 30.4 33.6h262.4z m-124.8-259.2h-136c-17.6-1.6-33.6 12.8-33.6 30.4-1.6 17.6 12.8 33.6 30.4 33.6H582.4v-12.8c1.6-17.6 3.2-35.2 6.4-51.2zM324.8 611.2h-64c-17.6 0-32-14.4-32-32s14.4-32 32-32h65.6c17.6 0 32 14.4 32 32-1.6 17.6-16 32-33.6 32z m0-195.2h-64c-17.6 0-32-14.4-32-32s14.4-32 32-32h65.6c17.6 0 32 14.4 32 32-1.6 17.6-16 32-33.6 32z m0-193.6h-64c-17.6 0-32-14.4-32-32s14.4-32 32-32h65.6c17.6 0 32 14.4 32 32-1.6 17.6-16 32-33.6 32z m568 11.2h-52.8v52.8c0 14.4-9.6 27.2-25.6 27.2s-27.2-9.6-27.2-25.6v-56h-52.8c-14.4 0-25.6-11.2-25.6-25.6 0-14.4 11.2-25.6 25.6-25.6h52.8V128c0-14.4 11.2-25.6 25.6-25.6 14.4 0 25.6 11.2 25.6 25.6v52.8h52.8c14.4 0 25.6 11.2 25.6 25.6 1.6 16-9.6 27.2-24 27.2z m0 0h-52.8v52.8c0 14.4-9.6 27.2-25.6 27.2s-27.2-9.6-27.2-25.6v-56h-52.8c-14.4 0-25.6-11.2-25.6-25.6 0-14.4 11.2-25.6 25.6-25.6h52.8V128c0-14.4 11.2-25.6 25.6-25.6 14.4 0 25.6 11.2 25.6 25.6v52.8h52.8c14.4 0 25.6 11.2 25.6 25.6 1.6 16-9.6 27.2-24 27.2z m0 0h-52.8v52.8c0 14.4-9.6 27.2-25.6 27.2s-27.2-9.6-27.2-25.6v-56h-52.8c-14.4 0-25.6-11.2-25.6-25.6 0-14.4 11.2-25.6 25.6-25.6h52.8V128c0-14.4 11.2-25.6 25.6-25.6 14.4 0 25.6 11.2 25.6 25.6v52.8h52.8c14.4 0 25.6 11.2 25.6 25.6 1.6 16-9.6 27.2-24 27.2z m-80 184c-116.8 0-211.2-94.4-211.2-211.2s94.4-211.2 211.2-211.2S1024 91.2 1024 208s-94.4 209.6-211.2 209.6z m0-368c-88 1.6-156.8 73.6-155.2 160 1.6 84.8 70.4 153.6 155.2 155.2 88-1.6 156.8-73.6 155.2-161.6-1.6-84.8-70.4-152-155.2-153.6z"  horiz-adv-x="1024" />

    
    <glyph glyph-name="header" unicode="&#59081;" d="M984-128h-944C17.6-128 0-110.4 0-88v944C0 878.4 17.6 896 40 896h467.2c22.4 0 40-17.6 40-40S529.6 816 507.2 816H78.4v-867.2h867.2v432c0 22.4 17.6 40 40 40s40-17.6 40-40v-470.4c-1.6-20.8-19.2-38.4-41.6-38.4zM827.2 739.2H196.8c-22.4 0-40-17.6-40-40s17.6-40 40-40h630.4c22.4 0 40 17.6 40 40 0 20.8-17.6 40-40 40z m0-158.4H196.8c-22.4 0-40-17.6-40-40s17.6-40 40-40h630.4c22.4 0 40 17.6 40 40s-17.6 40-40 40z"  horiz-adv-x="1025" />

    
    <glyph glyph-name="replication-method" unicode="&#59082;" d="M612.8 339.2c60.8 0 108.8 49.6 108.8 108.8 0 60.8-49.6 108.8-108.8 108.8-60.8 0-108.8-49.6-108.8-108.8 0-60.8 49.6-108.8 108.8-108.8zM768 150.4v-132.8H457.6v132.8c0 30.4 8 59.2 24 81.6 32 51.2 89.6 78.4 150.4 72 36.8-4.8 68.8-20.8 92.8-46.4 6.4-6.4 11.2-12.8 16-19.2 17.6-25.6 27.2-56 27.2-88zM937.6 748.8C812.8 889.6 596.8 902.4 456 777.6c-134.4-120-152-321.6-43.2-462.4l-83.2-73.6-32 35.2L0 9.6 94.4-96l299.2 267.2-32 35.2 83.2 73.6c22.4-22.4 49.6-41.6 78.4-57.6 48-25.6 100.8-40 153.6-40 11.2 0 24 0 35.2 1.6 51.2 4.8 100.8 19.2 144 46.4 36.8 22.4 68.8 49.6 94.4 83.2l1.6 1.6c100.8 131.2 94.4 312-14.4 433.6z m-4.8-406.4l-3.2-4.8c-25.6-33.6-57.6-62.4-94.4-83.2-38.4-22.4-80-35.2-123.2-38.4-97.6-9.6-195.2 28.8-259.2 102.4-112 126.4-100.8 321.6 25.6 435.2 126.4 113.6 321.6 102.4 435.2-25.6 97.6-110.4 102.4-270.4 19.2-385.6z m-94.4 70.4c49.6-1.6 89.6 36.8 91.2 84.8 1.6 49.6-36.8 89.6-84.8 91.2h-6.4c-49.6-1.6-86.4-43.2-84.8-91.2 1.6-44.8 38.4-83.2 84.8-84.8z m113.6-99.2c-25.6-33.6-59.2-62.4-94.4-83.2-43.2-25.6-92.8-41.6-144-46.4v76.8c0 24 6.4 48 19.2 67.2 25.6 41.6 73.6 64 121.6 57.6 30.4-3.2 56-17.6 75.2-38.4l4.8-4.8c3.2-3.2 6.4-8 8-11.2 3.2-4.8 6.4-11.2 9.6-17.6z"  horiz-adv-x="1024" />

    
    <glyph glyph-name="schedule" unicode="&#59083;" d="M307.588031 486.832874h408.823938c19.163622 1.596969 33.536339 17.566654 31.93937 35.133307-1.596969 17.566654-14.372717 31.93937-31.93937 31.93937H307.588031c-19.163622-1.596969-33.536339-17.566654-31.93937-35.133307 0-17.566654 14.372717-30.342402 31.93937-31.93937z m0-204.411968h408.823938c19.163622 0 35.133307 14.372717 35.133307 33.536338 0 19.163622-14.372717 35.133307-33.536339 35.133307H307.588031c-19.163622 0-33.536339-15.969685-33.536338-33.536338s14.372717-35.133307 33.536338-35.133307z m0-204.411969h408.823938c19.163622 0 35.133307 14.372717 35.133307 33.536339 0 19.163622-14.372717 35.133307-33.536339 35.133307H307.588031c-19.163622 0-33.536339-15.969685-33.536338-33.536339 0-19.163622 14.372717-35.133307 33.536338-35.133307zM852.154291 759.914489c-19.163622-1.596969-33.536339-17.566654-31.93937-35.133308 1.596969-17.566654 14.372717-31.93937 31.93937-31.93937 19.163622 0 33.536339-15.969685 33.536339-33.536338v-681.905552c0-19.163622-15.969685-33.536339-33.536339-33.536338H171.845709c-19.163622 0-33.536339 15.969685-33.536339 33.536338V657.708504c0 19.163622 15.969685 33.536339 33.536339 33.536339 19.163622 1.596969 33.536339 17.566654 31.93937 35.133307-1.596969 17.566654-14.372717 31.93937-31.93937 31.93937-55.893898 0-102.205984-46.312087-102.205985-102.205984v-681.905552c0-55.893898 46.312087-102.205984 102.205985-102.205984h681.905551c55.893898 0 102.205984 46.312087 102.205984 102.205984V657.708504c-1.596969 55.893898-46.312087 102.205984-103.802953 102.205985z m-544.56626-68.669646h408.823938c19.163622 1.596969 33.536339 17.566654 31.93937 35.133307-1.596969 17.566654-14.372717 31.93937-31.93937 31.93937h-38.327245C660.518071 850.941693 569.490866 911.626497 478.463661 892.462874c-67.072677-14.372717-119.772638-65.475709-132.548385-132.548385h-38.327245c-19.163622 0-33.536339-15.969685-33.536338-33.536339 0-19.163622 14.372717-35.133307 33.536338-35.133307zM512 826.987166c44.715118 0 81.445394-28.745433 95.81811-68.669646H416.18189c14.372717 39.924213 51.102992 68.669646 95.81811 68.669646z"  horiz-adv-x="1024" />

    
    <glyph glyph-name="index" unicode="&#59084;" d="M292.8 555.2H0V-128h292.8V555.2z m-73.6-598.4H73.6v512h145.6v-512zM657.6 896H366.4v-1024h292.8V896z m-72-939.2h-145.6V811.2h145.6v-854.4z m145.6 768V-128H1024V724.8H731.2z m219.2-768h-145.6V640h145.6v-683.2z"  horiz-adv-x="1024" />

    
    <glyph glyph-name="method-public1" unicode="&#59085;" d="M0-94.761857h116.654219v127.840239H0v-127.840239z m145.418273 0h116.654218V160.918622H145.418273v-255.680479z m858.127608 110.262206L821.37354 208.858712c-20.774039 22.372042-52.734099 25.568048-76.704144 9.588018l-97.478183 103.870195c51.136096 60.724114 83.096156 140.624264 83.096156 230.112431C730.287369 742.591712 586.467099 896 409.088767 896S87.890165 742.591712 87.890165 552.429356c0-158.202297 99.076186-290.836545 234.90644-330.78662V-94.761857h116.654219V210.456715c60.724114 6.392012 115.056216 30.362057 161.398302 65.518123l99.076186-105.468198c-14.382027-25.568048-12.784024-60.724114 9.588018-83.096156l182.172342-194.956365c22.372042-25.568048 62.322117-27.166051 86.292161-4.794009l4.794009 4.794009 22.372042 23.970045c23.970045 28.764054 23.970045 70.312132-1.598003 99.076185zM437.852821 298.34688V352.678981h-116.654219v-39.950074c-91.086171 36.754069-155.006291 131.036246-155.00629 241.298452 0 39.950075 9.588018 78.302147 23.970044 111.86021 17.578033-17.578033 44.744084-44.744084 44.744084-46.342087 0 30.362057 86.292162 121.448228 111.86021 121.448227-1.598003 0-27.166051 27.166051-43.146081 46.342087 31.96006 15.98003 65.518123 25.568048 103.870195 25.568048 132.634249 0 241.298452-115.056216 241.298452-257.278482 0-132.634249-91.086171-241.298452-210.936395-257.278482z"  horiz-adv-x="1024" />

    
    <glyph glyph-name="index-folder" unicode="&#59086;" d="M948.8-81.6H67.2C27.2-81.6 0-48 0-12.8V780.8c0 41.6 33.6 68.8 67.2 68.8h297.6c27.2 0 54.4-20.8 67.2-48l33.6-108.8s0-6.4 6.4-6.4h481.6c40 0 67.2-33.6 67.2-68.8v-630.4c-3.2-35.2-36.8-68.8-72-68.8zM67.2 787.2s-6.4-6.4 0 0l-6.4-800s0-6.4 6.4-6.4h881.6s6.4 0 6.4 6.4V624s0 6.4-6.4 6.4H467.2c-27.2 0-54.4 20.8-67.2 48l-27.2 102.4-305.6 6.4z m635.2-414.4v-353.6h70.4V372.8h-70.4z m-140.8-353.6h70.4V302.4h-70.4v-283.2z m-139.2 0h70.4V230.4h-70.4v-211.2z m-139.2 0H352V160h-70.4c1.6 0 1.6-140.8 1.6-140.8z m1.6 174.4l428.8 288v-73.6h59.2v176h-176v-59.2h80L251.2 240l33.6-46.4z"  horiz-adv-x="1024" />

    
    <glyph glyph-name="report-shortcut" unicode="&#59087;" d="M369.6 88l-20.8 16c3.2 6.4 4.8 14.4 6.4 20.8h12.8l1.6-36.8z m182.4 38.4v3.2c-1.6 32-9.6 64-24 92.8l-1.6 3.2c-11.2 22.4-25.6 43.2-43.2 62.4l-3.2 3.2c-46.4 46.4-107.2 72-172.8 70.4-68.8 0-132.8-28.8-179.2-78.4-48-52.8-70.4-123.2-62.4-193.6 6.4-60.8 36.8-116.8 83.2-156.8 52.8-46.4 124.8-67.2 193.6-56 49.6 6.4 96 28.8 131.2 64 35.2 33.6 60.8 76.8 70.4 124.8v3.2l1.6 6.4c6.4 14.4 8 33.6 6.4 51.2z m-67.2-60.8c0-1.6 0-1.6-1.6-3.2-22.4-70.4-83.2-120-155.2-128-20.8-1.6-41.6-1.6-60.8 3.2-99.2 24-160 121.6-136 220.8s121.6 160 220.8 136c8-1.6 16-4.8 24-8 33.6-12.8 62.4-35.2 81.6-64 19.2-27.2 30.4-59.2 33.6-92.8v-3.2c1.6-20.8-1.6-41.6-6.4-60.8z m-115.2 22.4l-44.8 36.8c-16-19.2-27.2-36.8-36.8-52.8-6.4-9.6-11.2-20.8-16-32-8-24-6.4-52.8 4.8-83.2-3.2 3.2-6.4 8-9.6 12.8-3.2 6.4-9.6 16-17.6 33.6-6.4 16-12.8 32-14.4 49.6-3.2 16-1.6 35.2 3.2 57.6 4.8 22.4 17.6 56 25.6 65.6L224 208l139.2 24v-8l1.6-86.4V128l4.8-40z m390.4 348.8c-6.4 8-16 11.2-25.6 11.2H289.6c-16 0-30.4-12.8-32-28.8 0-4.8 0-9.6 1.6-12.8 3.2-11.2 12.8-19.2 24-20.8H736c17.6 0 32 14.4 32 32 0 6.4-3.2 14.4-8 19.2zM832 768h-94.4H832c19.2 0 36.8-4.8 52.8-11.2-16 6.4-35.2 11.2-52.8 11.2zM651.2 832H736h-84.8zM672 768v-128H353.6V768v-128h320L672 768z m-86.4 35.2c9.6-9.6 14.4-22.4 14.4-35.2 1.6 12.8-4.8 25.6-14.4 35.2z m-192 49.6C420.8 876.8 459.2 892.8 500.8 896c-41.6-3.2-80-19.2-107.2-43.2zM424 768c0 3.2 0 6.4 1.6 9.6-1.6-3.2-1.6-6.4-1.6-9.6z m-134.4 64h84.8-84.8z m-1.6-128l1.6-126.4H288V704z m-94.4 64c-22.4 0-43.2-6.4-60.8-16 17.6 9.6 38.4 16 60.8 16H288h-94.4z m569.6-494.4c-6.4 9.6-16 16-27.2 16H368c35.2-12.8 65.6-35.2 86.4-64H736c17.6 0 32 14.4 32 32 0 4.8-1.6 11.2-4.8 16z m-396.8-43.2l-32-4.8h32v4.8zM884.8 756.8c-16 8-33.6 11.2-52.8 11.2h-96V832h-84.8C627.2 864 585.6 888 537.6 894.4h-33.6c-43.2-1.6-80-19.2-107.2-43.2l-3.2-3.2-1.6-1.6c-8-3.2-12.8-8-17.6-14.4h-84.8v-64h-96c-22.4 0-41.6-4.8-60.8-14.4-41.6-22.4-65.6-65.6-65.6-112v-182.4c20.8 3.2 41.6 3.2 62.4 0V640c0 35.2 28.8 64 64 64h97.6v-126.4H736v128h96c6.4 0 12.8-1.6 19.2-3.2 28.8-6.4 49.6-33.6 49.6-62.4v-640c0-35.2-28.8-64-64-64H470.4c-35.2-32-80-52.8-128-59.2H832c70.4 0 128 57.6 128 128V640c0 49.6-28.8 96-75.2 116.8zM673.6 640H352V768h70.4c0 3.2 0 6.4 1.6 9.6v1.6C432 808 468.8 832 513.6 832c28.8 0 54.4-9.6 72-25.6l1.6-1.6 1.6-1.6c9.6-9.6 16-22.4 16-35.2H672v-128h1.6z m-544-180.8v-177.6c-35.2-38.4-57.6-86.4-62.4-137.6V457.6c19.2 3.2 41.6 3.2 62.4 1.6z m240-332.8l1.6-38.4-44.8 36.8c-16-19.2-27.2-36.8-36.8-52.8H288c-16 3.2-27.2 16-25.6 32v3.2c1.6 16 16 28.8 32 28.8h76.8v-6.4c-1.6 0-1.6-3.2-1.6-3.2z m401.6-22.4c0-17.6-14.4-32-32-32H486.4c4.8 17.6 6.4 35.2 4.8 54.4v3.2 6.4h249.6c9.6 0 19.2-4.8 25.6-11.2 3.2-4.8 4.8-12.8 4.8-20.8z"  horiz-adv-x="1024" />

    
    <glyph glyph-name="project" unicode="&#59088;" d="M825.6 896H198.4C136 896 84.8 844.8 84.8 782.4v-796.8c0-62.4 51.2-113.6 113.6-113.6h625.6c62.4 0 113.6 51.2 113.6 113.6V782.4c1.6 62.4-49.6 113.6-112 113.6zM625.6 838.4h113.6v-227.2L705.6 656c-11.2 14.4-35.2 14.4-44.8 0l-33.6-44.8c-1.6 0-1.6 227.2-1.6 227.2zM142.4-14.4V782.4c0 32 25.6 57.6 57.6 57.6H256v-910.4h-57.6c-30.4 0-56 24-56 56z m739.2 0c0-32-25.6-57.6-57.6-57.6h-512V838.4h256v-313.6c0-16 12.8-28.8 28.8-28.8 9.6 0 17.6 4.8 22.4 11.2l62.4 83.2 62.4-83.2c9.6-12.8 27.2-14.4 40-6.4 8 4.8 11.2 14.4 11.2 22.4V838.4h28.8c32 0 57.6-25.6 57.6-57.6v-795.2z"  horiz-adv-x="1024" />

    
    <glyph glyph-name="information-item" unicode="&#59089;" d="M126.4-124.8c-33.6 0-64 9.6-88 28.8C14.4-76.8 0-46.4 0-16V780.8c0 30.4 14.4 60.8 41.6 84.8C57.6 880 83.2 889.6 115.2 892.8H896c9.6 0 19.2 0 25.6-1.6l12.8-3.2h1.6l8-1.6v-1.6l4.8-1.6 1.6-1.6 4.8-1.6 9.6-6.4 1.6-1.6 6.4-1.6 3.2-3.2 3.2 1.6 24-24 3.2-3.2v-8l3.2-6.4v-1.6l3.2-4.8 3.2-6.4 1.6-8 4.8-1.6c1.6-6.4 1.6-16 1.6-22.4v-758.4l-3.2-8v-32c0-27.2-14.4-57.6-41.6-80-20.8-19.2-52.8-28.8-88-28.8H126.4z m-60.8 112c0-24 28.8-44.8 64-44.8h764.8c35.2 0 64 19.2 64 44.8V566.4H65.6v-579.2z m64 838.4c-35.2 0-64-19.2-64-44.8v-150.4h892.8V780.8c0 24-28.8 44.8-64 44.8H129.6z m640-512H376c-17.6 0-32 16-32 33.6s14.4 32 32 32h393.6c17.6 0 33.6-14.4 33.6-33.6-1.6-17.6-16-32-33.6-32z m0-177.6H376c-17.6 0-33.6 14.4-33.6 33.6s14.4 33.6 33.6 33.6h393.6c17.6 0 33.6-14.4 33.6-33.6-1.6-19.2-16-33.6-33.6-33.6zM256 318.4h-1.6c-17.6 0-33.6 14.4-33.6 33.6 0 17.6 14.4 33.6 33.6 33.6h1.6c17.6-1.6 32-17.6 30.4-35.2 0-17.6-14.4-30.4-30.4-32z m0-179.2h-1.6c-17.6 0-33.6 14.4-33.6 33.6 0 17.6 14.4 33.6 33.6 33.6h1.6c17.6 0 33.6-14.4 33.6-33.6 0-19.2-14.4-33.6-33.6-33.6z"  horiz-adv-x="1024" />

    
    <glyph glyph-name="grouping-folder" unicode="&#59090;" d="M948.8-81.6H67.2C27.2-81.6 0-48 0-12.8V780.8c0 41.6 33.6 68.8 67.2 68.8h297.6c27.2 0 54.4-20.8 67.2-48l33.6-108.8s0-6.4 6.4-6.4h481.6c40 0 67.2-33.6 67.2-68.8v-630.4c-3.2-35.2-38.4-68.8-72-68.8zM67.2 787.2s-6.4-6.4 0 0l-6.4-800s0-6.4 6.4-6.4h881.6s6.4 0 6.4 6.4V624s0 6.4-6.4 6.4H467.2c-27.2 0-54.4 20.8-67.2 48l-27.2 102.4-305.6 6.4zM416 571.2h192v-153.6H416v153.6z m38.4-384h115.2v-153.6h-115.2v153.6z m-230.4 0h115.2v-153.6H224v153.6z m460.8 0H800v-153.6h-115.2v153.6z m-384 115.2h192v-76.8h38.4v76.8h192v-76.8h38.4v115.2H531.2v38.4h-38.4v-38.4H262.4v-115.2h38.4v76.8z"  horiz-adv-x="1024" />

    
    <glyph glyph-name="copy-report" unicode="&#59091;" d="M782.4 356.8H404.8c-14.4 0-27.2-11.2-27.2-27.2 0-14.4 11.2-27.2 27.2-27.2h377.6c14.4 0 27.2 11.2 27.2 27.2 0 14.4-12.8 27.2-27.2 27.2z m0-268.8H404.8c-14.4 0-27.2-11.2-27.2-27.2 0-14.4 11.2-27.2 27.2-27.2h377.6c14.4 0 27.2 11.2 27.2 27.2s-12.8 27.2-27.2 27.2zM864 625.6h-80v54.4h-72c-24 32-67.2 54.4-116.8 54.4-49.6 0-92.8-22.4-116.8-54.4h-72v-54.4h-80c-59.2 0-107.2-48-107.2-107.2v-539.2c0-59.2 48-107.2 107.2-107.2H864c59.2 0 107.2 48 107.2 107.2V518.4c0 59.2-48 107.2-107.2 107.2z m-404.8 0h60.8c0 30.4 33.6 54.4 75.2 54.4s75.2-24 75.2-54.4h60.8v-107.2h-272v107.2z m457.6-646.4c0-30.4-24-54.4-54.4-54.4H323.2c-30.4 0-54.4 24-54.4 54.4V518.4c0 30.4 24 54.4 54.4 54.4h80v-107.2h377.6v107.2h80c30.4 0 54.4-24 54.4-54.4l1.6-539.2z m-134.4 243.2H404.8c-14.4 0-27.2-11.2-27.2-27.2 0-14.4 11.2-27.2 27.2-27.2h377.6c14.4 0 27.2 11.2 27.2 27.2 0 14.4-12.8 27.2-27.2 27.2z m-568-134.4H160c-30.4 0-54.4 24-54.4 54.4V680c0 30.4 24 54.4 54.4 54.4h80v-107.2h161.6v54.4h-107.2V788.8h60.8c0 30.4 33.6 54.4 75.2 54.4s75.2-24 75.2-54.4h60.8v-56c8 1.6 17.6 1.6 27.2 1.6 9.6 0 17.6 0 27.2-1.6v1.6h80c30.4 0 54.4-24 54.4-54.4h27.2v-54.4h27.2v54.4c0 59.2-48 107.2-107.2 107.2h-80V841.6h-72C523.2 873.6 480 896 430.4 896s-92.8-22.4-116.8-54.4h-72v-54.4h-80c-59.2 0-107.2-48-107.2-107.2v-539.2c0-59.2 48-107.2 107.2-107.2h54.4l-1.6 54.4z"  horiz-adv-x="1024" />

    
    <glyph glyph-name="deletion-method" unicode="&#59092;" d="M28.8 30.4h568c36.8-30.4 80-49.6 126.4-57.6H28.8C12.8-28.8 0-16 0 0s12.8 30.4 28.8 30.4z m217.6 420.8c9.6 0 17.6-8 17.6-17.6v-340.8c0-9.6-8-17.6-17.6-17.6H132.8c-9.6 0-17.6 8-17.6 17.6V433.6c0 9.6 8 17.6 17.6 17.6h113.6zM465.6 796.8c9.6 0 17.6-8 17.6-17.6v-686.4c0-9.6-8-17.6-17.6-17.6H352c-9.6 0-17.6 8-17.6 17.6V779.2c0 9.6 8 17.6 17.6 17.6h113.6z m88-374.4V585.6c0 9.6 8 17.6 17.6 17.6h113.6c9.6 0 17.6-8 17.6-17.6v-64c-59.2-14.4-112-49.6-148.8-99.2z m220.8-425.6c-137.6 0-249.6 112-249.6 249.6S636.8 496 774.4 496C912 494.4 1024 384 1024 246.4s-112-249.6-249.6-249.6z m0 435.2c-102.4 1.6-188.8-80-190.4-182.4s80-188.8 182.4-190.4h8c102.4 3.2 184 88 182.4 192-1.6 99.2-81.6 179.2-182.4 180.8z m-1.6-219.2l73.6-73.6c8-8 22.4-8 32 0 8 8 8 22.4 0 32l-73.6 73.6 73.6 73.6c8 8 8 22.4 0 32-8 8-22.4 8-32 0l-73.6-73.6-73.6 73.6c-8 8-22.4 8-32 0-8-8-8-22.4 0-32l73.6-73.6-73.6-73.6c-8-8-8-22.4 0-32 8-8 22.4-8 32 0l73.6 73.6z"  horiz-adv-x="1024" />

    
    <glyph glyph-name="dataprimary-keys" unicode="&#59093;" d="M89.6 896h844.8C984 896 1024 856 1024 806.4v-844.8c0-49.6-40-89.6-89.6-89.6H89.6C40-128 0-88 0-38.4V806.4C0 856 40 896 89.6 896z m0-76.8c-6.4 0-12.8-6.4-12.8-12.8v-844.8c0-6.4 6.4-12.8 12.8-12.8h844.8c6.4 0 12.8 6.4 12.8 12.8V806.4c0 6.4-6.4 12.8-12.8 12.8H89.6zM208 228.8c-8 0-16 3.2-22.4 9.6-11.2 11.2-9.6 30.4 1.6 41.6l216 196.8c11.2 11.2 30.4 9.6 41.6 0l136-131.2 208 184c12.8 11.2 30.4 9.6 41.6-1.6 11.2-12.8 9.6-30.4-1.6-41.6L600 284.8c-11.2-9.6-28.8-9.6-40 0L424 416 227.2 236.8c-4.8-4.8-11.2-8-19.2-8z"  horiz-adv-x="1024" />

    
    <glyph glyph-name="grouping-item" unicode="&#59094;" d="M984 699.2H630.4c-22.4 0-38.4 19.2-38.4 40s17.6 36.8 38.4 38.4h355.2c22.4 0 40-17.6 40-40s-19.2-38.4-41.6-38.4z m0-196.8H630.4c-22.4 0-40 17.6-40 40s17.6 40 40 40h355.2c22.4 0 40-17.6 40-40-1.6-22.4-19.2-40-41.6-40z m0-315.2H630.4c-22.4 0-40 17.6-40 40s17.6 40 40 40h355.2c22.4 0 40-17.6 40-40s-19.2-40-41.6-40z m0-196.8H630.4c-22.4 0-40 17.6-40 40s17.6 40 40 40h355.2c22.4 0 40-17.6 40-40-1.6-22.4-19.2-40-41.6-40zM355.2 424H118.4c-65.6 0-118.4 52.8-118.4 118.4V777.6C0 843.2 52.8 896 118.4 896h236.8c65.6 0 118.4-52.8 118.4-118.4v-236.8c-1.6-64-54.4-116.8-118.4-116.8zM118.4 817.6C96 817.6 78.4 800 78.4 777.6v-236.8c0-22.4 17.6-40 40-40h236.8c22.4 0 40 17.6 40 40V777.6c0 22.4-17.6 40-40 40H118.4zM355.2-128H118.4C52.8-128 0-75.2 0-9.6V227.2c0 65.6 52.8 118.4 118.4 118.4h236.8c65.6 0 118.4-52.8 118.4-118.4v-236.8c-1.6-65.6-54.4-118.4-118.4-118.4zM118.4 265.6c-22.4 0-40-17.6-40-40v-236.8c0-22.4 17.6-40 40-40h236.8c22.4 0 40 17.6 40 40V227.2c0 22.4-17.6 40-40 40H118.4z"  horiz-adv-x="1025" />

    
    <glyph glyph-name="folder-deployment" unicode="&#59095;" d="M960 540.8h-14.4v102.4c0 35.2-28.8 64-64 64h-400V766.4c0 35.2-28.8 64-64 64H64c-35.2 0-64-28.8-64-64v-763.2c0-35.2 28.8-64 64-64h817.6c35.2 0 64 28.8 64 64L1024 476.8c0 35.2-28.8 64-64 64zM48 734.4c0 35.2 12.8 48 48 48h288c35.2 0 48-12.8 48-48v-73.6h417.6c35.2 0 48-12.8 48-48v-70.4H142.4c-35.2 0-64-28.8-64-64L48 281.6V734.4z m849.6-700.8c0-35.2-12.8-48-48-48H96c-35.2 0-48 12.8-48 48l78.4 411.2c0 35.2 12.8 48 48 48H928c35.2 0 48-12.8 48-48l-78.4-411.2zM246.4 265.6c-8 0-16-3.2-22.4-9.6-12.8-11.2-12.8-30.4-1.6-43.2l1.6-1.6c6.4-6.4 14.4-9.6 22.4-9.6 8 0 17.6 3.2 22.4 9.6 12.8 11.2 12.8 30.4 1.6 43.2l-1.6 1.6c-4.8 6.4-12.8 9.6-22.4 9.6z m531.2-9.6h-400c-12.8 0-24-9.6-24-22.4 0-12.8 11.2-24 24-24h401.6c12.8 0 24 9.6 24 24-1.6 12.8-12.8 22.4-25.6 22.4z m-531.2 152c-8 0-16-3.2-22.4-9.6-12.8-11.2-12.8-30.4-1.6-43.2l1.6-1.6c12.8-12.8 32-12.8 44.8 0 12.8 11.2 12.8 30.4 1.6 43.2l-1.6 1.6c-4.8 6.4-12.8 9.6-22.4 9.6z m531.2-8h-400c-12.8 0-24-9.6-24-22.4 0-12.8 11.2-24 24-24h401.6c12.8 0 24 9.6 24 22.4-1.6 12.8-12.8 24-25.6 24zM246.4 123.2c-8 0-16-3.2-22.4-9.6-12.8-11.2-12.8-30.4-1.6-43.2l1.6-1.6c12.8-12.8 32-12.8 44.8 0 12.8 11.2 12.8 30.4 1.6 43.2l-1.6 1.6c-4.8 6.4-12.8 9.6-22.4 9.6z m531.2-9.6h-400c-12.8 0-24-9.6-24-22.4 0-12.8 11.2-22.4 24-22.4h401.6c12.8 0 24 9.6 24 22.4-1.6 12.8-12.8 22.4-25.6 22.4z"  horiz-adv-x="1024" />

    
    <glyph glyph-name="quote1" unicode="&#59096;" d="M780.711703 127.915908h-511.831815c-17.594219 0-31.989488-14.39527-31.989489-31.989489s14.39527-31.989488 31.989489-31.989488h511.831815c17.594219 0 31.989488 14.39527 31.989488 31.989488s-14.39527 31.989488-31.989488 31.989489z m0 191.93693h-351.884373c-17.594219 0-31.989488-14.39527-31.989488-31.989488s14.39527-31.989488 31.989488-31.989489h351.884373c17.594219 1.599474 31.989488 15.994744 30.390014 33.588963-1.599474 15.994744-14.39527 30.390014-30.390014 30.390014z m0 191.936931h-159.947442c-17.594219 0-31.989488-12.795795-33.588963-30.390014 0-17.594219 12.795795-31.989488 30.390014-33.588963h161.546917c17.594219 0 31.989488 14.39527 31.989488 31.989489 1.599474 17.594219-12.795795 31.989488-30.390014 31.989488z m71.976349 241.520638h-51.183181c-17.594219-1.599474-31.989488-15.994744-30.390015-33.588963 0-15.994744 14.39527-30.390014 30.390015-30.390014h51.183181c7.997372 0 12.795795-6.397898 12.795795-15.994744V-48.026279c0-7.997372-6.397898-15.994744-12.795795-15.994744H174.510897c-7.997372 0-12.795795 6.397898-12.795796 15.994744V193.494359c0 17.594219-15.994744 31.989488-33.588962 30.390014-17.594219 0-30.390014-14.39527-30.390014-30.390014V-48.026279c0-44.785284 35.188437-79.973721 76.774772-79.973721h678.177155c43.185809 0 76.774772 35.188437 76.774772 79.973721V674.93616c0 43.185809-35.188437 78.374247-76.774772 78.374247zM353.652032 518.187667c14.39527-11.196321 33.588963-9.596847 44.785284 4.798423 11.196321 14.39527 9.596847 33.588963-4.798423 44.785284-41.586335 33.588963-28.79054 75.175298-22.392642 89.570568L551.986861 823.687282c46.384758 20.793167 70.376875-4.798423 76.774772-11.196321 41.586335-46.384758 17.594219-83.17267 9.596846-91.170043l-94.368991-79.973721c-14.39527-11.196321-15.994744-31.989488-4.798423-44.785284 11.196321-14.39527 31.989488-15.994744 44.785284-4.798423 0 0 1.599474 0 1.599474 1.599475l95.968466 83.17267c1.599474 0 1.599474 1.599474 3.198949 3.198948 27.191065 28.79054 59.180554 102.366363-6.397898 177.541661-20.793167 22.392642-79.973721 60.780028-158.347968 22.392642-3.198949-1.599474-4.798423-3.198949-7.997372-4.798423L323.262018 700.527751c-3.198949-1.599474-4.798423-4.798423-6.397898-7.997372-19.193693-33.588963-36.787912-115.162158 36.787912-174.342712z m-127.957954-230.324317c19.193693 0 41.586335 4.798423 65.578452 15.994744 3.198949 1.599474 4.798423 3.198949 7.997372 4.798423l188.737982 174.342712c3.198949 1.599474 4.798423 4.798423 6.397897 7.997373 19.193693 35.188437 36.787912 115.162158-36.787911 174.342712-14.39527 11.196321-33.588963 7.997372-44.785284-6.397898-9.596847-12.795795-7.997372-31.989488 4.798423-43.185809 41.586335-33.588963 28.79054-75.175298 22.392642-89.570568L259.283041 359.839699c-46.384758-20.793167-70.376875 4.798423-76.774772 11.196321-41.586335 46.384758-17.594219 83.17267-9.596847 91.170042l94.368991 81.573196c12.795795 12.795795 14.39527 31.989488 1.599475 44.785283-11.196321 12.795795-30.390014 14.39527-43.18581 3.198949l-95.968465-83.17267c-1.599474 0-1.599474-1.599474-3.198949-3.198949-27.191065-28.79054-59.180554-102.366363 6.397898-177.541661 14.39527-15.994744 47.984233-39.986861 92.769516-39.98686z"  horiz-adv-x="1024" />

    
    <glyph glyph-name="directory-entry" unicode="&#59097;" d="M0 384.783792v70.288122c0 46.326262 31.949146 76.67795 76.67795 76.67795h140.576242c41.53389 0 73.483036-28.754231 75.080493-71.885579 1.597457-49.521176 1.597457-99.042352 0-148.563528-1.597457-41.53389-33.546603-71.885578-75.080493-71.885579H75.080493C31.949146 239.415178 0 269.766867 0 312.898214V384.783792z m73.483036 73.483036v-145.368614h145.368614v145.368614H73.483036zM0 18.966071v70.288121c0 44.728804 31.949146 75.080493 76.67795 75.080493h138.978785c44.728804 0 75.080493-30.351689 76.67795-75.080493v-142.173699c0-44.728804-31.949146-75.080493-76.67795-75.080493H75.080493C31.949146-126.402543 0-96.050854 0-52.919507v71.885578z m218.85165-71.885578v145.368614H73.483036v-145.368614h145.368614z m493.614305 400.961782H442.495671c-19.169488 0-31.949146 7.987286-36.741517 22.364402-7.987286 19.169488 1.597457 39.936432 19.169487 47.923719 3.194915 1.597457 4.792372 1.597457 7.987287 1.597457s7.987286 1.597457 11.182201 0h538.343109c22.364402 0 36.741518-11.182201 39.936432-30.351689 3.194915-19.169488-9.584744-38.338975-28.754231-41.533889-4.792372-1.597457-9.584744-1.597457-14.377116-1.597458l-266.775368 1.597458z m0-292.334686h269.970283c19.169488 0 33.546603-9.584744 38.338975-25.559317 6.389829-19.169488-4.792372-39.936432-25.559317-44.728804-1.597457 0-3.194915 0-4.792372-1.597457H440.898214c-20.766945 0-35.144061 9.584744-39.936432 28.754231-4.792372 19.169488 7.987286 38.338975 27.156774 43.131347h284.347399z m0 658.152407h-271.567741c-19.169488 0-31.949146 9.584744-38.338975 23.961859-6.389829 19.169488 4.792372 39.936432 23.961859 46.326262 3.194915 1.597457 6.389829 1.597457 9.584744 1.597457h544.732939c22.364402 0 36.741518-11.182201 39.936432-30.351689 3.194915-19.169488-9.584744-38.338975-30.351689-41.533889H712.465955z m-602.241401 15.974573l43.131347 43.131347L263.580454 883.190469c15.974573 15.974573 38.338975 17.57203 54.313548 1.597457 14.377116-14.377116 14.377116-36.741518-1.597457-52.71609L137.381328 653.156618c-15.974573-15.974573-38.338975-15.974573-54.313549 0L12.779658 723.444739c-15.974573 15.974573-15.974573 38.338975-1.597457 52.716091 14.377116 14.377116 36.741518 14.377116 52.716091-1.597457 14.377116-14.377116 30.351689-28.754231 44.728804-44.728804h1.597458z"  horiz-adv-x="1024" />

    
    <glyph glyph-name="comprehensive" unicode="&#59098;" d="M395.2 771.2h233.6l-32 89.6L742.4 888c14.4-40 25.6-78.4 36.8-116.8h224v-188.8h-121.6v70.4H516.8v-70.4h-121.6v60.8c-68.8-126.4-142.4-241.6-217.6-347.2 54.4 6.4 112 14.4 169.6 22.4-4.8-40-8-81.6-8-121.6-136-12.8-233.6-25.6-289.6-38.4L14.4 276.8c38.4 38.4 81.6 97.6 129.6 176-44.8-3.2-80-8-107.2-12.8L0 556.8C43.2 611.2 94.4 721.6 153.6 886.4l128-38.4c-43.2-96-94.4-190.4-150.4-281.6 25.6 0 52.8 1.6 78.4 3.2 20.8 38.4 41.6 81.6 64 126.4l121.6-52.8v128zM24-64L3.2 72c123.2 14.4 235.2 30.4 336 48-3.2-43.2-3.2-86.4-3.2-131.2-84.8-9.6-188.8-28.8-312-52.8z m438.4 268.8l110.4-44.8c-40-81.6-83.2-161.6-129.6-238.4-35.2 20.8-72 41.6-108.8 59.2 46.4 72 89.6 147.2 128 224z m-80 32v123.2h636.8v-123.2H768v-240c0-38.4-9.6-67.2-30.4-86.4-20.8-19.2-49.6-28.8-89.6-28.8h-115.2c-6.4 41.6-16 83.2-27.2 124.8 38.4-1.6 67.2-3.2 86.4-3.2 25.6 0 38.4 14.4 38.4 41.6v192H382.4zM435.2 560h529.6v-123.2H435.2V560z m467.2-353.6c43.2-72 83.2-147.2 121.6-222.4l-113.6-54.4c-35.2 78.4-73.6 153.6-115.2 228.8l107.2 48z"  horiz-adv-x="1024" />

    
    <glyph glyph-name="fillin-information" unicode="&#59099;" d="M991.25117 322.4961c-1.597504 6.390016-3.195008 14.377535-6.390016 20.767551-6.390016 15.975039-15.975039 28.75507-27.157566 41.535101-12.780031 12.780031-23.962559 23.962559-35.145086 30.352574-6.390016 3.195008-12.780031 6.390016-19.170046 7.98752-7.98752 3.195008-17.572543 4.792512-25.560063 4.792511h-3.195008c-9.585023 0-17.572543-1.597504-27.157566-4.792511-11.182527-3.195008-20.767551-9.585023-30.352574-15.975039-4.792512-3.195008-9.585023-9.585023-15.975039-14.377536-4.792512-4.792512-9.585023-9.585023-14.377535-12.780031l-3.195008-3.195008-3.195008-3.195007-30.352574-28.755071 1.597504-1.597503-3.195008-3.195008-183.712948-185.310453c-11.182527-11.182527-20.767551-20.767551-27.157567-28.75507l-12.780031-14.377535c-6.390016-6.390016-11.182527-12.780031-15.975039-20.767551l-9.585023-19.170046c-3.195008-4.792512-4.792512-12.780031-7.98752-22.365055-3.195008-7.98752-6.390016-17.572543-7.987519-28.75507-3.195008-9.585023-4.792512-19.170047-7.98752-28.75507-3.195008-9.585023-4.792512-17.572543-6.390015-27.157567-3.195008-22.365055 1.597504-41.535101 12.780031-57.51014 6.390016-9.585023 22.365055-22.365055 49.522621-22.365055H545.547582c6.390016 1.597504 12.780031 3.195008 23.962558 4.792512 20.767551 4.792512 39.937598 12.780031 59.107645 19.170047 9.585023 3.195008 17.572543 7.98752 23.962558 9.585023 7.98752 3.195008 15.975039 7.98752 22.365055 14.377535 4.792512 3.195008 7.98752 6.390016 12.780031 11.182528l14.377535 14.377535c6.390016 7.98752 15.975039 15.975039 25.560063 27.157566l35.145085 35.145086 39.937598 41.535101 138.982839 143.775351 9.585024 9.585024 7.987519 7.987519 11.182527 11.182527c14.377535 15.975039 22.365055 38.340094 22.365055 59.107645 0 14.377535 0 22.365055-1.597504 28.75507zM766.00312 102.040562l-39.937597-41.535102c-12.780031-12.780031-25.560062-25.560062-35.145086-36.742589l-25.560063-27.157567-12.780031-12.780031c-3.195008-3.195008-7.98752-6.390016-11.182527-9.585023-4.792512-3.195008-7.98752-6.390016-12.780031-7.98752-4.792512-1.597504-11.182527-4.792512-20.767551-7.987519-9.585023-3.195008-17.572543-6.390016-27.157566-9.585024s-19.170047-6.390016-27.157567-7.987519l-19.170046-4.792512h-4.792512c-6.390016 0-9.585023 1.597504-12.780031 4.792512-3.195008 3.195008-3.195008 9.585023-3.195008 19.170047 0 4.792512 1.597504 11.182527 4.792512 20.76755 3.195008 9.585023 4.792512 17.572543 7.987519 27.157567 3.195008 9.585023 4.792512 19.170047 7.98752 27.157566s4.792512 14.377535 6.390015 15.975039c1.597504 4.792512 4.792512 9.585023 6.390016 12.780031s6.390016 7.98752 11.182527 12.780031l14.377535 14.377535c7.98752 7.98752 15.975039 17.572543 27.157567 28.755071l35.145085 36.742589 39.937598 41.535102 105.435257 108.630265 91.057723-95.850234-105.435258-108.630265zM943.326053 287.351014c-1.597504-4.792512-4.792512-9.585023-7.987519-12.780031-3.195008-4.792512-7.98752-7.98752-11.182528-11.182527l-7.987519-7.98752c-3.195008-3.195008-4.792512-4.792512-7.98752-6.390016L815.525741 343.263651c3.195008 3.195008 7.98752 7.98752 14.377535 12.780031l12.780031 12.780031c4.792512 3.195008 9.585023 6.390016 14.377535 7.987519 4.792512 1.597504 7.98752 1.597504 12.780032 1.597504h1.597504c4.792512 0 9.585023-1.597504 14.377535-1.597504 4.792512-1.597504 7.98752-3.195008 11.182527-4.792511 6.390016-3.195008 14.377535-9.585023 22.365055-19.170047 7.98752-9.585023 14.377535-19.170047 19.170046-28.75507 1.597504-3.195008 1.597504-6.390016 3.195008-11.182528 0-4.792512 1.597504-7.98752 1.597504-12.780031 1.597504-4.792512 1.597504-9.585023 0-12.780031zM361.834633-59.307332H158.951638c-35.145086 0-63.900156 28.75507-63.900156 65.49766V763.407176c0 36.74259 28.75507 65.49766 63.900156 65.49766h677.341654c35.145086 0 63.900156-28.75507 63.900156-65.49766v-238.028081c0-17.572543 14.377535-33.547582 31.950078-33.547582s31.950078 14.377535 31.950078 33.547582V763.407176c0 73.485179-57.51014 132.592824-127.800312 132.592824H158.951638c-70.290172 0-127.800312-59.107644-127.800312-132.592824v-758.814352c0-73.485179 57.51014-132.592824 127.800312-132.592824h204.480499c17.572543 0 31.950078 14.377535 31.950078 33.547582s-15.975039 35.145086-33.547582 35.145086z m391.388456 741.241809c0 17.572543-14.377535 33.547582-31.950078 33.547582H261.191888c-17.572543 0-31.950078-14.377535-31.950078-33.547582s14.377535-33.547582 31.950078-33.547582H719.675507c19.170047 0 33.547582 15.975039 33.547582 33.547582zM261.191888 493.429017c-17.572543 0-31.950078-14.377535-31.950078-33.547582 0-17.572543 14.377535-33.547582 31.950078-33.547582h316.305772c17.572543 0 31.950078 14.377535 31.950078 33.547582 0 17.572543-14.377535 33.547582-31.950078 33.547582H261.191888z m180.51794-222.053042H261.191888c-17.572543 0-31.950078-14.377535-31.950078-33.547582 0-17.572543 14.377535-33.547582 31.950078-33.547582h180.51794c17.572543 0 31.950078 14.377535 31.950078 33.547582 0 17.572543-14.377535 33.547582-31.950078 33.547582z"  horiz-adv-x="1024" />

    
    <glyph glyph-name="folder-pack" unicode="&#59100;" d="M1000 598.4c-16 14.4-36.8 24-57.6 24H496l-134.4 208c-1.6 1.6-3.2 1.6-4.8 1.6H73.6C33.6 832 0 796.8 0 752v-736c0-44.8 36.8-80 83.2-80h859.2c44.8 0 83.2 35.2 83.2 80V542.4c-1.6 20.8-9.6 41.6-25.6 56zM971.2 16c0-16-14.4-28.8-30.4-28.8H83.2c-16 0-30.4 12.8-30.4 28.8V542.4c0 16 12.8 28.8 30.4 28.8h859.2c16 0 30.4-12.8 30.4-28.8V16h-1.6zM52.8 617.6V752c0 14.4 9.6 28.8 20.8 28.8h256l102.4-158.4H81.6c-9.6 0-19.2-1.6-28.8-4.8z m177.6-302.4c-9.6 0-19.2-3.2-25.6-9.6-14.4-12.8-14.4-33.6-1.6-48l1.6-1.6c6.4-6.4 16-9.6 25.6-9.6s19.2 3.2 25.6 9.6c14.4 12.8 14.4 35.2 1.6 48l-1.6 1.6c-6.4 4.8-16 9.6-25.6 9.6z m593.6-9.6h-448c-14.4 0-25.6-11.2-27.2-25.6 0-14.4 12.8-25.6 27.2-25.6h448c14.4 0 27.2 11.2 27.2 25.6 0 14.4-12.8 25.6-27.2 25.6zM230.4 473.6c-9.6 0-19.2-3.2-25.6-9.6-14.4-12.8-14.4-33.6-1.6-48l1.6-1.6c6.4-6.4 16-9.6 25.6-9.6 9.6 0 19.2 3.2 25.6 9.6 14.4 12.8 14.4 35.2 1.6 48L256 464c-6.4 6.4-16 9.6-25.6 9.6z m593.6-9.6h-448c-14.4 0-25.6-11.2-27.2-25.6 0-14.4 12.8-25.6 27.2-25.6h448c14.4 0 25.6 11.2 27.2 25.6-1.6 14.4-12.8 25.6-27.2 25.6zM230.4 155.2c-9.6 0-19.2-3.2-25.6-9.6-14.4-12.8-14.4-33.6-1.6-48l1.6-1.6c6.4-6.4 16-9.6 25.6-9.6s19.2 3.2 25.6 9.6c14.4 12.8 14.4 35.2 1.6 48l-1.6 1.6c-6.4 6.4-16 9.6-25.6 9.6z m593.6-9.6h-448c-14.4 0-25.6-11.2-27.2-25.6 0-14.4 12.8-25.6 27.2-25.6h448c14.4 0 27.2 11.2 27.2 25.6 0 14.4-12.8 25.6-27.2 25.6z"  horiz-adv-x="1025" />

    
    <glyph glyph-name="catalog-folder" unicode="&#59101;" d="M948.8-81.6H67.2C27.2-81.6 0-48 0-12.8V780.8c0 41.6 33.6 68.8 67.2 68.8h297.6c27.2 0 54.4-20.8 67.2-48l33.6-108.8s0-6.4 6.4-6.4h481.6c40 0 67.2-33.6 67.2-68.8v-630.4c-3.2-35.2-36.8-68.8-72-68.8zM67.2 787.2s-6.4-6.4 0 0l-6.4-800s0-6.4 6.4-6.4h881.6s6.4 0 6.4 6.4V624s0 6.4-6.4 6.4H467.2c-27.2 0-54.4 20.8-67.2 48l-27.2 102.4-305.6 6.4z m720-329.6H390.4c-17.6 0-30.4 14.4-30.4 30.4s14.4 30.4 30.4 30.4h396.8c17.6 0 30.4-14.4 30.4-30.4s-12.8-30.4-30.4-30.4zM512 273.6h-121.6c-17.6 0-30.4 14.4-30.4 30.4s14.4 30.4 30.4 30.4H512c17.6 0 30.4-14.4 30.4-30.4s-12.8-30.4-30.4-30.4z m275.2-184H390.4c-17.6 0-30.4 14.4-30.4 30.4s14.4 30.4 30.4 30.4h396.8c17.6 0 30.4-14.4 30.4-30.4s-12.8-30.4-30.4-30.4z m-520 368h-30.4c-17.6 0-30.4 14.4-30.4 30.4s14.4 30.4 30.4 30.4h30.4c17.6 0 30.4-14.4 30.4-30.4s-12.8-30.4-30.4-30.4z m0-184h-30.4c-17.6 0-30.4 14.4-30.4 30.4s14.4 30.4 30.4 30.4h30.4c17.6 0 30.4-14.4 30.4-30.4s-12.8-30.4-30.4-30.4z m0-184h-30.4c-17.6 0-30.4 14.4-30.4 30.4s14.4 30.4 30.4 30.4h30.4c17.6 0 30.4-14.4 30.4-30.4s-12.8-30.4-30.4-30.4z"  horiz-adv-x="1024" />

    
    <glyph glyph-name="dataprimary-key" unicode="&#59102;" d="M816 243.2H211.2c-16 0-30.4 12.8-30.4 28.8s12.8 28.8 30.4 28.8H816c16 0 30.4-12.8 30.4-28.8s-14.4-28.8-30.4-28.8z m-136-176H211.2c-16 0-30.4 12.8-30.4 28.8s12.8 28.8 30.4 28.8h468.8c16 0 30.4-12.8 30.4-28.8-1.6-16-14.4-28.8-30.4-28.8zM208 392c-8 0-16 3.2-22.4 9.6-11.2 11.2-9.6 30.4 1.6 41.6L404.8 640c11.2 11.2 30.4 9.6 41.6 0l136-131.2 208 184c12.8 11.2 30.4 9.6 41.6-1.6 11.2-12.8 9.6-30.4-1.6-41.6L600 446.4c-11.2-9.6-28.8-9.6-40 0L425.6 576 227.2 400c-4.8-4.8-11.2-8-19.2-8zM89.6 896h844.8C984 896 1024 856 1024 806.4v-844.8c0-49.6-40-89.6-89.6-89.6H89.6C40-128 0-88 0-38.4V806.4C0 856 40 896 89.6 896z m0-76.8c-6.4 0-12.8-6.4-12.8-12.8v-844.8c0-6.4 6.4-12.8 12.8-12.8h844.8c6.4 0 12.8 6.4 12.8 12.8V806.4c0 6.4-6.4 12.8-12.8 12.8H89.6z"  horiz-adv-x="1024" />

    
    <glyph glyph-name="add-tablefooter1" unicode="&#59103;" d="M984-128h-944C17.6-128 0-110.4 0-88v944C0 878.4 17.6 896 40 896h467.2c22.4 0 40-17.6 40-40S528 816 507.2 816H78.4v-865.6h867.2V380.8c0 22.4 17.6 40 40 40s40-17.6 40-40v-468.8c-1.6-22.4-19.2-40-41.6-40z m-156.8 382.4H196.8c-22.4-1.6-38.4-19.2-38.4-41.6C160 192 176 176 196.8 176h630.4c22.4 0 40 17.6 40 40 0 20.8-17.6 38.4-40 38.4z m0-158.4H196.8c-22.4 0-40-17.6-40-40s17.6-40 40-40h630.4c22.4 1.6 38.4 19.2 36.8 41.6 0 22.4-17.6 38.4-36.8 38.4zM784 452.8c-123.2 0-222.4 99.2-222.4 220.8S660.8 896 784 896s222.4-99.2 222.4-220.8S905.6 452.8 784 452.8z m0 387.2c-91.2 0-166.4-73.6-166.4-166.4S691.2 508.8 784 508.8s166.4 73.6 166.4 166.4c0 91.2-75.2 164.8-166.4 164.8z m83.2-193.6h-56V592c0-16-12.8-27.2-27.2-27.2-16 0-27.2 12.8-27.2 27.2v56h-56c-16 0-28.8 11.2-28.8 25.6 0 16 11.2 28.8 25.6 28.8h59.2V756.8c0 16 14.4 27.2 28.8 25.6 14.4 0 25.6-12.8 25.6-25.6v-56h56c16 0 27.2-12.8 27.2-27.2 0-14.4-12.8-27.2-27.2-27.2z"  horiz-adv-x="1025" />

    
    <glyph glyph-name="deletion-system" unicode="&#59104;" d="M731.2 496H336c-16 0-27.2-11.2-27.2-25.6 0-14.4 12.8-25.6 27.2-25.6h395.2c16 0 27.2 11.2 27.2 25.6 0 14.4-11.2 25.6-27.2 25.6z m-520 20.8c-25.6 0-46.4-20.8-46.4-48 0-25.6 20.8-48 46.4-48 25.6 0 46.4 20.8 46.4 48s-20.8 48-46.4 48z m0-188.8c-25.6 0-46.4-20.8-46.4-48 0-25.6 20.8-48 46.4-48 25.6 0 46.4 20.8 46.4 48s-20.8 48-46.4 48z m0-196.8c-25.6 0-46.4-20.8-46.4-48 0-25.6 20.8-48 46.4-48 25.6 0 46.4 20.8 46.4 48 0 25.6-20.8 48-46.4 48zM884.8 785.6h-736c-16 0-27.2-12.8-27.2-27.2 0-14.4 12.8-27.2 27.2-27.2h736c16 0 27.2 12.8 27.2 27.2 0 16-12.8 27.2-27.2 27.2zM731.2 496H336c-16 0-27.2-11.2-27.2-25.6 0-14.4 12.8-25.6 27.2-25.6h395.2c16 0 27.2 11.2 27.2 25.6 0 14.4-11.2 25.6-27.2 25.6z m-520 20.8c-25.6 0-46.4-20.8-46.4-48 0-25.6 20.8-48 46.4-48 25.6 0 46.4 20.8 46.4 48s-20.8 48-46.4 48z m0-188.8c-25.6 0-46.4-20.8-46.4-48 0-25.6 20.8-48 46.4-48 25.6 0 46.4 20.8 46.4 48s-20.8 48-46.4 48z m0-196.8c-25.6 0-46.4-20.8-46.4-48 0-25.6 20.8-48 46.4-48 25.6 0 46.4 20.8 46.4 48 0 25.6-20.8 48-46.4 48z m385.6-64H336c-14.4 0-27.2 11.2-27.2 25.6 0 14.4 12.8 25.6 27.2 25.6h233.6c6.4-19.2 16-35.2 27.2-51.2z m-14.4 244.8c-4.8-8-8-16-11.2-25.6-3.2-8-6.4-17.6-8-25.6H336c-14.4 0-27.2 11.2-27.2 25.6 0 14.4 12.8 25.6 27.2 25.6h246.4z m275.2 124.8V617.6H142.4c-30.4 0-60.8 9.6-84.8 28.8v-635.2c0-46.4 38.4-84.8 84.8-84.8h715.2v40c19.2 4.8 38.4 11.2 56 20.8V-128H142.4C64-128 1.6-65.6 1.6 11.2V756.8C1.6 833.6 64 896 142.4 896h742.4c16 0 27.2-12.8 27.2-27.2s-12.8-27.2-27.2-27.2H142.4C96 841.6 57.6 804.8 57.6 756.8 57.6 710.4 96 672 142.4 672H912v-256c-17.6 9.6-35.2 16-54.4 20.8z m-56-17.6c-123.2 0-222.4-99.2-222.4-222.4s99.2-222.4 222.4-222.4S1024 73.6 1024 196.8s-100.8 222.4-222.4 222.4z m0-387.2c-91.2 0-166.4 75.2-166.4 166.4s75.2 166.4 166.4 166.4 166.4-75.2 166.4-166.4c0-92.8-75.2-166.4-166.4-166.4z m0 131.2l73.6-73.6c8-8 22.4-8 32 0 8 8 8 22.4 0 32L832 193.6l73.6 73.6c8 8 8 22.4 0 32-8 8-22.4 8-32 0L800 225.6l-73.6 73.6c-8 8-22.4 8-32 0-8-8-8-22.4 0-32l73.6-73.6-73.6-73.6c-8-8-8-22.4 0-32 8-8 22.4-8 32 0l75.2 75.2z"  horiz-adv-x="1024" />

    
    <glyph glyph-name="basic" unicode="&#59105;" d="M1024 139.2c-25.6-36.8-51.2-75.2-75.2-113.6-54.4 30.4-105.6 64-152 104v-67.2H584V0h368v-107.2H73.6V0h369.6v62.4H225.6v62.4c-46.4-36.8-96-70.4-148.8-99.2-24 38.4-49.6 75.2-76.8 112 84.8 32 158.4 72 217.6 121.6H12.8v107.2H192V678.4H43.2V785.6H192V875.2h140.8v-89.6h363.2V875.2h139.2v-89.6h148.8v-107.2h-148.8v-312h177.6v-107.2H809.6c72-54.4 144-94.4 214.4-120zM443.2 240h140.8v-72h166.4c-32 28.8-62.4 59.2-91.2 91.2H368c-28.8-32-59.2-64-91.2-91.2h166.4V240z m-110.4 387.2h363.2v51.2H332.8v-51.2z m0-131.2h363.2v51.2H332.8V496z m0-129.6h363.2v51.2H332.8v-51.2z"  horiz-adv-x="1024" />

    
    <glyph glyph-name="adding-method1" unicode="&#59106;" d="M27.33536 28.8h568c36.8-30.4 80-49.6 126.4-57.6H27.33536c-16 0-28.8 14.4-27.2 30.4 0 14.4 12.8 27.2 27.2 27.2z m219.2 422.4c9.6 0 17.6-8 17.6-17.6v-340.8c0-9.6-8-17.6-17.6-17.6H131.33536c-9.6 0-17.6 8-17.6 17.6V433.6c0 9.6 8 17.6 17.6 17.6h115.2zM465.73536 796.8c9.6 0 17.6-8 17.6-17.6v-686.4c0-9.6-8-17.6-17.6-17.6H352.13536c-9.6 0-17.6 8-17.6 17.6V779.2c0 9.6 8 17.6 17.6 17.6h113.6z m88-374.4V585.6c0 9.6 8 17.6 17.6 17.6h113.6c9.6 0 17.6-8 17.6-17.6v-64c-59.2-14.4-112-49.6-148.8-99.2z m220.8-425.6c-137.6 0-249.6 112-249.6 249.6S636.93536 496 774.53536 496 1024.13536 384 1024.13536 246.4s-112-249.6-249.6-249.6z m0 436.8c-104 1.6-188.8-80-190.4-182.4s80-188.8 182.4-190.4h8c104 3.2 185.6 88 182.4 192-1.6 97.6-83.2 177.6-182.4 180.8z m94.4-219.2h-62.4v-62.4c0-17.6-14.4-30.4-30.4-30.4s-30.4 14.4-30.4 30.4v62.4h-62.4c-17.6 0-32 12.8-32 30.4 0 17.6 12.8 32 30.4 32h64v62.4c1.6 17.6 16 30.4 32 30.4s28.8-14.4 30.4-30.4v-62.4h62.4c17.6 0 30.4-14.4 30.4-32-3.2-16-16-28.8-32-30.4z"  horiz-adv-x="1024" />

    
    </font>
</defs>
</svg>
